<svg width="12" height="20" viewBox="0 0 12 20" fill="none" xmlns="http://www.w3.org/2000/svg">
<path d="M9.18206 19.6042L0.290237 10.7388C0.184697 10.6332 0.110114 10.5189 0.0664908 10.3958C0.0221636 10.2726 0 10.1407 0 10C0 9.85928 0.0221636 9.72735 0.0664908 9.60422C0.110114 9.48109 0.184697 9.36675 0.290237 9.26121L9.18206 0.369393C9.42832 0.123131 9.73615 0 10.1055 0C10.4749 0 10.7916 0.131926 11.0554 0.395778C11.3193 0.659631 11.4512 0.967458 11.4512 1.31926C11.4512 1.67106 11.3193 1.97889 11.0554 2.24274L3.29815 10L11.0554 17.7573C11.3017 18.0035 11.4248 18.3068 11.4248 18.667C11.4248 19.028 11.2929 19.3404 11.029 19.6042C10.7652 19.8681 10.4573 20 10.1055 20C9.75374 20 9.44591 19.8681 9.18206 19.6042Z" fill="#121212"/>
</svg>
