<svg width="123" height="66" viewBox="0 0 123 66" fill="none" xmlns="http://www.w3.org/2000/svg">
<g filter="url(#filter0_i_3693_25222)">
<rect x="13" y="13" width="109.778" height="38" rx="19" fill="#D50024"/>
</g>
<g filter="url(#filter1_d_3693_25222)">
<circle cx="32" cy="31.9999" r="14.7778" fill="#FBFBFB"/>
</g>
<path d="M60.2052 36.7797H50.8845V23.6719H60.2052V36.7797ZM52.6307 35.3283H58.459V25.1006H52.6307V35.3283ZM66.3282 41.8823H64.5367V21.6762H66.3282V41.8823ZM86.4209 32.4936H84.652V21.6762H86.4209V32.4936ZM75.1273 35.9633H84.652V33.5141H86.4209V41.5648H73.3584V33.5141H75.1273V35.9633ZM84.652 40.1134V37.392H75.1273V40.1134H84.652ZM75.5355 22.674C76.5484 22.6589 77.4555 22.8441 78.2568 23.2297C79.0581 23.6152 79.6855 24.1632 80.1391 24.8738C80.5927 25.5844 80.8194 26.3932 80.8194 27.3003C80.8194 28.1923 80.5927 28.9899 80.1391 29.6929C79.6855 30.3959 79.0581 30.9439 78.2568 31.337C77.4555 31.7301 76.5484 31.9266 75.5355 31.9266C74.5225 31.9266 73.6154 31.7301 72.8141 31.337C72.0128 30.9439 71.3854 30.3959 70.9319 29.6929C70.4783 28.9899 70.2515 28.1923 70.2515 27.3003C70.2515 26.3932 70.4783 25.5844 70.9319 24.8738C71.3854 24.1632 72.0128 23.6152 72.8141 23.2297C73.6154 22.8441 74.5225 22.6589 75.5355 22.674ZM75.5355 24.1708C74.8551 24.1557 74.2466 24.2842 73.7099 24.5563C73.1732 24.8284 72.7537 25.2026 72.4513 25.6789C72.1489 26.1551 71.9977 26.6956 71.9977 27.3003C71.9977 27.9051 72.1489 28.4456 72.4513 28.9218C72.7537 29.3981 73.1732 29.7722 73.7099 30.0444C74.2466 30.3165 74.8551 30.4526 75.5355 30.4526C76.2158 30.4526 76.8243 30.3165 77.3611 30.0444C77.8978 29.7722 78.3173 29.3981 78.6197 28.9218C78.9221 28.4456 79.0732 27.9051 79.0732 27.3003C79.0732 26.6956 78.9221 26.1551 78.6197 25.6789C78.3173 25.2026 77.8978 24.8284 77.3611 24.5563C76.8243 24.2842 76.2158 24.1557 75.5355 24.1708ZM105.289 24.2388H92.1811V22.7648H105.289V24.2388ZM108.305 31.6545H89.8453V30.1804H108.305V31.6545ZM105.879 24.2615C105.879 25.4256 105.841 26.4877 105.765 27.4478C105.69 28.4078 105.508 29.5077 105.221 30.7474L103.452 30.634C103.664 29.7722 103.815 28.9672 103.906 28.2188C103.996 27.4704 104.053 26.8128 104.076 26.2458C104.098 25.6789 104.11 25.0174 104.11 24.2615V22.7648H105.879V24.2615ZM105.969 41.5648H92.1131V34.4439H105.969V41.5648ZM93.8819 40.1134H104.2V35.8499H93.8819V40.1134Z" fill="#FBFBFB"/>
<defs>
<filter id="filter0_i_3693_25222" x="13" y="13" width="114" height="42.2222" filterUnits="userSpaceOnUse" color-interpolation-filters="sRGB">
<feFlood flood-opacity="0" result="BackgroundImageFix"/>
<feBlend mode="normal" in="SourceGraphic" in2="BackgroundImageFix" result="shape"/>
<feColorMatrix in="SourceAlpha" type="matrix" values="0 0 0 0 0 0 0 0 0 0 0 0 0 0 0 0 0 0 127 0" result="hardAlpha"/>
<feOffset dx="4.22222" dy="4.22222"/>
<feGaussianBlur stdDeviation="4.22222"/>
<feComposite in2="hardAlpha" operator="arithmetic" k2="-1" k3="1"/>
<feColorMatrix type="matrix" values="0 0 0 0 0 0 0 0 0 0 0 0 0 0 0 0 0 0 0.25 0"/>
<feBlend mode="normal" in2="shape" result="effect1_innerShadow_3693_25222"/>
</filter>
<filter id="filter1_d_3693_25222" x="0.33334" y="0.333279" width="80.2222" height="80.2223" filterUnits="userSpaceOnUse" color-interpolation-filters="sRGB">
<feFlood flood-opacity="0" result="BackgroundImageFix"/>
<feColorMatrix in="SourceAlpha" type="matrix" values="0 0 0 0 0 0 0 0 0 0 0 0 0 0 0 0 0 0 127 0" result="hardAlpha"/>
<feOffset dx="8.44444" dy="8.44444"/>
<feGaussianBlur stdDeviation="12.6667"/>
<feComposite in2="hardAlpha" operator="out"/>
<feColorMatrix type="matrix" values="0 0 0 0 0 0 0 0 0 0 0 0 0 0 0 0 0 0 0.25 0"/>
<feBlend mode="normal" in2="BackgroundImageFix" result="effect1_dropShadow_3693_25222"/>
<feBlend mode="normal" in="SourceGraphic" in2="effect1_dropShadow_3693_25222" result="shape"/>
</filter>
</defs>
</svg>
