<svg width="32" height="33" viewBox="0 0 32 33" fill="none" xmlns="http://www.w3.org/2000/svg">
<path d="M6.66721 2.52844C6.90571 0.886716 8.25948 0.211238 9.79952 0.0971677C13.9472 -0.209258 18.4946 0.325309 22.6854 0.124008C23.812 0.124008 25.3339 1.40339 25.3339 2.52844V5.95504H30.5105C31.8688 5.95504 32.3844 8.01278 31.6984 8.96337H29.0681L28.0096 30.733C27.5758 32.2964 26.4514 32.755 24.9159 32.869C19.1101 33.294 12.7774 32.5313 6.91479 32.869C5.3475 32.7371 4.18453 32.0593 3.95057 30.44L2.93297 8.96561H0.302642C-0.383332 8.01502 0.132284 5.95727 1.4906 5.95727H6.66721C6.77851 4.89038 6.51729 3.56179 6.66721 2.53068V2.52844ZM22.2788 3.11221H9.72002V5.9528H22.2788V3.11221ZM26.013 8.96337H5.98805L6.83757 29.854H25.1658L26.0153 8.96337H26.013Z" fill="#121212"/>
</svg>
