<svg width="29" height="24" viewBox="0 0 29 24" fill="none" xmlns="http://www.w3.org/2000/svg">
<path d="M14.5 0C14.5 0 5.43104 -4.70281e-05 3.16904 0.626953C1.92059 0.971953 0.939555 1.98832 0.606055 3.27832C-4.54605e-05 5.61832 0 12 0 12C0 12 -4.54605e-05 18.3817 0.606055 20.7217C0.939555 22.0132 1.92204 23.028 3.16904 23.373C5.43104 24 14.5 24 14.5 24C14.5 24 23.569 24 25.831 23.373C27.078 23.028 28.0604 22.0117 28.3939 20.7217C29 18.3817 29 12 29 12C29 12 29 5.61832 28.3939 3.27832C28.0604 1.98832 27.078 0.971953 25.831 0.626953C23.569 -4.70281e-05 14.5 0 14.5 0ZM14.5 3C18.6789 3 23.9118 3.20041 25.0805 3.52441C25.3255 3.59191 25.5264 3.79969 25.5931 4.05469C25.9425 5.40169 26.1 9.513 26.1 12C26.1 14.487 25.9425 18.5968 25.5931 19.9453C25.5278 20.1988 25.327 20.4066 25.0805 20.4756C23.9132 20.7996 18.6789 21 14.5 21C10.3226 21 5.08968 20.7996 3.91953 20.4756C3.67448 20.4081 3.47363 20.2003 3.40693 19.9453C3.05748 18.5983 2.9 14.487 2.9 12C2.9 9.513 3.05748 5.40176 3.40693 4.05176C3.47218 3.79976 3.67303 3.59191 3.91953 3.52441C5.08678 3.20041 10.3211 3 14.5 3ZM11.6 6.80273V17.1973L20.3 12L11.6 6.80273Z" fill="#FBFBFB"/>
</svg>
