<svg width="29" height="24" viewBox="0 0 29 24" fill="none" xmlns="http://www.w3.org/2000/svg">
<g id="sns icons">
<path id="Vector" d="M14.5001 0C14.5001 0 5.49368 -4.70281e-05 3.24729 0.626953C2.00745 0.971953 1.03317 1.98832 0.701973 3.27832C0.100053 5.61832 0.100098 12 0.100098 12C0.100098 12 0.100053 18.3817 0.701973 20.7217C1.03317 22.0132 2.00889 23.028 3.24729 23.373C5.49368 24 14.5001 24 14.5001 24C14.5001 24 23.5065 24 25.7529 23.373C26.9913 23.028 27.967 22.0117 28.2982 20.7217C28.9001 18.3817 28.9001 12 28.9001 12C28.9001 12 28.9001 5.61832 28.2982 3.27832C27.967 1.98832 26.9913 0.971953 25.7529 0.626953C23.5065 -4.70281e-05 14.5001 0 14.5001 0ZM14.5001 3C18.6502 3 23.847 3.20041 25.0076 3.52441C25.251 3.59191 25.4504 3.79969 25.5167 4.05469C25.8637 5.40169 26.0201 9.513 26.0201 12C26.0201 14.487 25.8637 18.5968 25.5167 19.9453C25.4519 20.1988 25.2524 20.4066 25.0076 20.4756C23.8484 20.7996 18.6502 21 14.5001 21C10.3515 21 5.15468 20.7996 3.9926 20.4756C3.74924 20.4081 3.54978 20.2003 3.48354 19.9453C3.1365 18.5983 2.9801 14.487 2.9801 12C2.9801 9.513 3.1365 5.40176 3.48354 4.05176C3.54834 3.79976 3.7478 3.59191 3.9926 3.52441C5.1518 3.20041 10.35 3 14.5001 3ZM11.6201 6.80273V17.1973L20.2601 12L11.6201 6.80273Z" fill="#8E3DFF"/>
</g>
</svg>
