<svg width="11" height="13" viewBox="0 0 11 13" fill="none" xmlns="http://www.w3.org/2000/svg">
<g clip-path="url(#clip0_6508_37853)">
<path d="M0 9.71373V7.16937L7.01894 0.148115C7.34835 -0.0840943 7.59468 -0.027358 7.90011 0.207776C8.50745 0.675118 9.04984 1.47118 9.62207 1.99584C9.74612 2.16839 9.7467 2.42926 9.6683 2.6217L2.60372 9.71373H0ZM1.22872 8.48542H2.13564L8.22426 2.40177C8.26346 2.3579 8.24766 2.331 8.22426 2.28596C8.18154 2.20232 7.46245 1.52324 7.4016 1.52324L1.22872 7.6373V8.48542Z" fill="#FF3D12"/>
<path d="M11 12.1697H0V11.0291L0.087766 10.9414H10.9122L11 11.0291V12.1697Z" fill="#FF3D12"/>
</g>
<defs>
<clipPath id="clip0_6508_37853">
<rect width="11" height="12.1702" fill="white"/>
</clipPath>
</defs>
</svg>
