<svg width="15" height="15" viewBox="0 0 15 15" fill="none" xmlns="http://www.w3.org/2000/svg">
<path d="M14.0625 13.125C14.0625 13.125 15 13.125 15 12.1875C15 11.25 14.0625 8.4375 10.3125 8.4375C6.5625 8.4375 5.625 11.25 5.625 12.1875C5.625 13.125 6.5625 13.125 6.5625 13.125H14.0625ZM6.58312 12.1875L6.5625 12.1838C6.56344 11.9363 6.71906 11.2181 7.275 10.5713C7.7925 9.96469 8.70187 9.375 10.3125 9.375C11.9222 9.375 12.8316 9.96562 13.35 10.5713C13.9059 11.2181 14.0606 11.9372 14.0625 12.1838L14.055 12.1856L14.0419 12.1875H6.58312ZM10.3125 6.5625C10.8098 6.5625 11.2867 6.36496 11.6383 6.01333C11.99 5.66169 12.1875 5.18478 12.1875 4.6875C12.1875 4.19022 11.99 3.71331 11.6383 3.36167C11.2867 3.01004 10.8098 2.8125 10.3125 2.8125C9.81522 2.8125 9.33831 3.01004 8.98668 3.36167C8.63504 3.71331 8.4375 4.19022 8.4375 4.6875C8.4375 5.18478 8.63504 5.66169 8.98668 6.01333C9.33831 6.36496 9.81522 6.5625 10.3125 6.5625ZM13.125 4.6875C13.125 5.05684 13.0523 5.42257 12.9109 5.7638C12.7696 6.10503 12.5624 6.41507 12.3012 6.67624C12.0401 6.9374 11.73 7.14457 11.3888 7.28591C11.0476 7.42725 10.6818 7.5 10.3125 7.5C9.94316 7.5 9.57743 7.42725 9.2362 7.28591C8.89497 7.14457 8.58493 6.9374 8.32376 6.67624C8.0626 6.41507 7.85543 6.10503 7.71409 5.7638C7.57275 5.42257 7.5 5.05684 7.5 4.6875C7.5 3.94158 7.79632 3.22621 8.32376 2.69876C8.85121 2.17132 9.56658 1.875 10.3125 1.875C11.0584 1.875 11.7738 2.17132 12.3012 2.69876C12.8287 3.22621 13.125 3.94158 13.125 4.6875ZM6.5025 8.7C6.12727 8.58273 5.74079 8.50512 5.34937 8.46844C5.12941 8.44699 4.90851 8.43666 4.6875 8.4375C0.9375 8.4375 0 11.25 0 12.1875C0 12.8125 0.3125 13.125 0.9375 13.125H4.89C4.75109 12.8323 4.68178 12.5114 4.6875 12.1875C4.6875 11.2406 5.04094 10.2731 5.70938 9.465C5.93719 9.18937 6.2025 8.93156 6.5025 8.7ZM4.6125 9.375C4.05799 10.2089 3.75829 11.1861 3.75 12.1875H0.9375C0.9375 11.9438 1.09125 11.2219 1.65 10.5713C2.16094 9.975 3.04875 9.39375 4.6125 9.37594V9.375ZM1.40625 5.15625C1.40625 4.41033 1.70257 3.69496 2.23001 3.16751C2.75746 2.64007 3.47283 2.34375 4.21875 2.34375C4.96467 2.34375 5.68004 2.64007 6.20749 3.16751C6.73493 3.69496 7.03125 4.41033 7.03125 5.15625C7.03125 5.90217 6.73493 6.61754 6.20749 7.14499C5.68004 7.67243 4.96467 7.96875 4.21875 7.96875C3.47283 7.96875 2.75746 7.67243 2.23001 7.14499C1.70257 6.61754 1.40625 5.90217 1.40625 5.15625ZM4.21875 3.28125C3.72147 3.28125 3.24456 3.47879 2.89292 3.83042C2.54129 4.18206 2.34375 4.65897 2.34375 5.15625C2.34375 5.65353 2.54129 6.13044 2.89292 6.48208C3.24456 6.83371 3.72147 7.03125 4.21875 7.03125C4.71603 7.03125 5.19294 6.83371 5.54458 6.48208C5.89621 6.13044 6.09375 5.65353 6.09375 5.15625C6.09375 4.65897 5.89621 4.18206 5.54458 3.83042C5.19294 3.47879 4.71603 3.28125 4.21875 3.28125Z" fill="black"/>
</svg>
