<svg width="12" height="12" viewBox="0 0 12 12" fill="none" xmlns="http://www.w3.org/2000/svg">
<path d="M2.50012 0.919388C2.58955 0.322427 3.0972 0.0768102 3.6747 0.035332C5.23001 -0.07609 6.93523 0.118289 8.50673 0.0450916C8.9292 0.0450916 9.49988 0.510299 9.49988 0.919388V2.16536H11.441C11.9504 2.16536 12.1437 2.9136 11.8865 3.25925H10.9002L10.5033 11.1751C10.3406 11.7436 9.91895 11.9103 9.34316 11.9518C7.16606 12.1063 4.79135 11.829 2.59296 11.9518C2.00525 11.9038 1.56914 11.6574 1.48141 11.0685L1.09982 3.26006H0.113487C-0.143745 2.91441 0.0496049 2.16618 0.558957 2.16618H2.50012C2.54185 1.77823 2.4439 1.29513 2.50012 0.920201V0.919388ZM8.35426 1.13166H3.64488V2.16455H8.35426V1.13166ZM9.75456 3.25925H2.24544L2.564 10.8555H9.43685L9.75541 3.25925H9.75456Z" fill="#121212"/>
</svg>
