<svg width="283" height="172" viewBox="0 0 283 172" fill="none" xmlns="http://www.w3.org/2000/svg">
<g filter="url(#filter0_d_8432_35176)">
<path d="M228.788 39.1737L232.743 122.253L17.3609 95.0442L39.7943 16.9985L228.788 39.1737Z" fill="#FF3D12"/>
</g>
<path d="M106.669 69.2239H99.7776V65.1596H106.669V69.2239ZM94.6751 62.001C94.6751 64.8283 94.3364 67.5305 93.659 70.1075C92.9964 72.6845 91.9877 75.0112 90.6329 77.0875C89.2928 79.1638 87.6215 80.791 85.6188 81.9691L82.7693 78.2582C84.5953 77.2127 86.1121 75.8284 87.3196 74.1055C88.5418 72.3679 89.4475 70.4683 90.0365 68.4067C90.6402 66.3451 90.9421 64.2098 90.9421 62.001V60.5652H94.6751V62.001ZM95.5807 62.001C95.5807 64.1215 95.8753 66.1683 96.4643 68.1416C97.0533 70.1149 97.9589 71.9114 99.1812 73.5312C100.403 75.1363 101.913 76.4322 103.709 77.4188L100.992 81.0414C98.975 79.9664 97.2816 78.457 95.9121 76.5132C94.5426 74.5547 93.5265 72.3384 92.8638 69.8645C92.2012 67.3906 91.8698 64.7694 91.8698 62.001V60.5652H95.5807V62.001ZM102.274 60.764H84.1388V56.788H102.274V60.764ZM95.5586 59.9467H90.9421V51.2217H95.5586V59.9467ZM117.736 89.7001H113.097V49.808H117.736V89.7001ZM109.607 87.8005H105.013V50.5811H109.607V87.8005ZM155.927 73.973H151.023V49.808H155.927V73.973ZM153.055 65.6898H145.324V61.6696H153.055V65.6898ZM155.927 89.2362H129.354V75.8064H155.927V89.2362ZM134.28 85.2824H151.134V79.6719H134.28V85.2824ZM146.009 57.4728H122.551V53.5631H146.009V57.4728ZM134.28 59.019C136.121 59.019 137.755 59.3282 139.184 59.9467C140.627 60.5505 141.753 61.3972 142.563 62.4869C143.373 63.5766 143.778 64.8062 143.778 66.1757C143.778 67.5894 143.373 68.8411 142.563 69.9308C141.753 71.0058 140.627 71.8525 139.184 72.471C137.755 73.0747 136.121 73.3766 134.28 73.3766C132.454 73.3766 130.827 73.0747 129.398 72.471C127.97 71.8525 126.851 71.0058 126.041 69.9308C125.231 68.8411 124.826 67.5894 124.826 66.1757C124.826 64.8062 125.231 63.5766 126.041 62.4869C126.851 61.3972 127.97 60.5505 129.398 59.9467C130.827 59.3282 132.454 59.019 134.28 59.019ZM134.28 62.752C133.338 62.752 132.506 62.8919 131.784 63.1717C131.077 63.4367 130.518 63.8343 130.105 64.3644C129.708 64.8798 129.509 65.4836 129.509 66.1757C129.509 66.8973 129.7 67.5231 130.083 68.0532C130.481 68.5686 131.04 68.9736 131.762 69.2681C132.498 69.5479 133.338 69.6952 134.28 69.7099C135.237 69.6952 136.069 69.5479 136.776 69.2681C137.498 68.9736 138.05 68.5686 138.433 68.0532C138.83 67.5231 139.029 66.8973 139.029 66.1757C139.029 65.4836 138.83 64.8798 138.433 64.3644C138.05 63.8343 137.498 63.4367 136.776 63.1717C136.054 62.8919 135.222 62.752 134.28 62.752ZM136.71 56.3905H131.85V49.4767H136.71V56.3905Z" fill="#FBFBFB"/>
<defs>
<filter id="filter0_d_8432_35176" x="-3.32637" y="-9.18633" width="285.419" height="191.918" filterUnits="userSpaceOnUse" color-interpolation-filters="sRGB">
<feFlood flood-opacity="0" result="BackgroundImageFix"/>
<feColorMatrix in="SourceAlpha" type="matrix" values="0 0 0 0 0 0 0 0 0 0 0 0 0 0 0 0 0 0 127 0" result="hardAlpha"/>
<feOffset dx="16.45" dy="16.45"/>
<feGaussianBlur stdDeviation="16.45"/>
<feComposite in2="hardAlpha" operator="out"/>
<feColorMatrix type="matrix" values="0 0 0 0 0 0 0 0 0 0 0 0 0 0 0 0 0 0 0.25 0"/>
<feBlend mode="normal" in2="BackgroundImageFix" result="effect1_dropShadow_8432_35176"/>
<feBlend mode="normal" in="SourceGraphic" in2="effect1_dropShadow_8432_35176" result="shape"/>
</filter>
</defs>
</svg>
