<svg width="282" height="172" viewBox="0 0 282 172" fill="none" xmlns="http://www.w3.org/2000/svg">
<g filter="url(#filter0_d_8432_35179)">
<path d="M227.904 39.4705L231.859 122.55L16.4772 95.3411L38.9106 17.2954L227.904 39.4705Z" fill="#FF3D12"/>
</g>
<path d="M99.4175 90.2377H94.5138V79.7235H72.2043V75.8138H99.4175V90.2377ZM99.4175 73.8258H94.5138V50.2573H99.4175V73.8258ZM95.795 63.9522H85.5459V59.9983H95.795V63.9522ZM86.4515 71.5065H67.7203V53.173H86.4515V71.5065ZM72.6019 67.6189H81.6362V57.1268H72.6019V67.6189ZM138.492 90.1493H133.611V50.2573H138.492V90.1493ZM135.908 69.872H125.151V65.8518H135.908V69.872ZM125.327 54.4983C125.327 58.6657 124.768 62.4649 123.649 65.896C122.544 69.3124 120.667 72.4711 118.016 75.372C115.366 78.2583 111.824 80.8058 107.392 83.0147L104.829 79.1492C108.599 77.2937 111.633 75.1953 113.93 72.8539C116.242 70.5125 117.913 67.9061 118.944 65.0346C119.989 62.1483 120.512 58.916 120.512 55.3376V54.4983H125.327ZM123.074 58.3859H106.663V54.4983H123.074V58.3859ZM177.435 90.2598H172.553V50.2573H177.435V90.2598ZM149.868 76.7415C153.594 76.7562 156.973 76.6605 160.007 76.4544C163.055 76.2482 166.177 75.8874 169.372 75.372L169.814 79.3922C166.633 79.937 163.497 80.3125 160.404 80.5187C157.327 80.7101 153.814 80.8058 149.868 80.8058H146.378V76.7415H149.868ZM165.153 68.7013H151.436V78.2656H146.378V64.8137H160.161V57.7232H146.334V53.7252H165.153V68.7013Z" fill="#FBFBFB"/>
<defs>
<filter id="filter0_d_8432_35179" x="-4.21001" y="-8.88945" width="285.419" height="191.918" filterUnits="userSpaceOnUse" color-interpolation-filters="sRGB">
<feFlood flood-opacity="0" result="BackgroundImageFix"/>
<feColorMatrix in="SourceAlpha" type="matrix" values="0 0 0 0 0 0 0 0 0 0 0 0 0 0 0 0 0 0 127 0" result="hardAlpha"/>
<feOffset dx="16.45" dy="16.45"/>
<feGaussianBlur stdDeviation="16.45"/>
<feComposite in2="hardAlpha" operator="out"/>
<feColorMatrix type="matrix" values="0 0 0 0 0 0 0 0 0 0 0 0 0 0 0 0 0 0 0.25 0"/>
<feBlend mode="normal" in2="BackgroundImageFix" result="effect1_dropShadow_8432_35179"/>
<feBlend mode="normal" in="SourceGraphic" in2="effect1_dropShadow_8432_35179" result="shape"/>
</filter>
</defs>
</svg>
