<svg width="282" height="172" viewBox="0 0 282 172" fill="none" xmlns="http://www.w3.org/2000/svg">
<g filter="url(#filter0_d_8432_35173)">
<path d="M228.579 38.6766L232.535 121.756L17.1527 94.5472L39.5861 16.5014L228.579 38.6766Z" fill="#7512FF"/>
</g>
<path d="M100.906 74.7903C103.821 74.7903 106.332 75.0848 108.438 75.6738C110.558 76.2481 112.193 77.1022 113.341 78.2361C114.505 79.3553 115.086 80.6953 115.086 82.2562C115.086 83.7877 114.505 85.1057 113.341 86.2101C112.193 87.3293 110.551 88.1833 108.416 88.7724C106.295 89.3761 103.792 89.678 100.906 89.678C98.0635 89.678 95.5749 89.3761 93.4396 88.7724C91.3191 88.1833 89.6772 87.3293 88.5139 86.2101C87.3653 85.1057 86.791 83.7877 86.791 82.2562C86.791 80.71 87.3653 79.37 88.5139 78.2361C89.6772 77.1022 91.3191 76.2481 93.4396 75.6738C95.5601 75.0848 98.0488 74.7903 100.906 74.7903ZM100.906 78.457C98.9912 78.457 97.342 78.6042 95.9577 78.8988C94.5735 79.1933 93.5133 79.6277 92.777 80.202C92.0554 80.7763 91.6946 81.461 91.6946 82.2562C91.6946 83.0367 92.0554 83.6994 92.777 84.2442C93.5133 84.7891 94.5735 85.2087 95.9577 85.5033C97.342 85.783 98.9912 85.9229 100.906 85.9229C102.864 85.9229 104.528 85.783 105.898 85.5033C107.282 85.2087 108.342 84.7891 109.078 84.2442C109.829 83.6846 110.205 83.022 110.205 82.2562C110.205 81.461 109.829 80.7763 109.078 80.202C108.342 79.6277 107.282 79.1933 105.898 78.8988C104.528 78.6042 102.864 78.457 100.906 78.457ZM112.767 55.5953H87.1665V51.7077H112.767V55.5953ZM119.261 71.8746H82.9917V67.8986H119.261V71.8746ZM101.9 69.0251H97.0401V60.6756H101.9V69.0251ZM114.866 54.9989C114.866 57.1488 114.799 59.0043 114.667 60.5652C114.549 62.1261 114.232 63.8196 113.717 65.6456L108.88 65.1596C109.351 63.3042 109.638 61.6623 109.741 60.2339C109.859 58.8055 109.925 57.0605 109.94 54.9989V51.7077H114.866V54.9989ZM152.306 59.6154H140.378V55.6615H152.306V59.6154ZM152.306 69.246H140.378V65.2701H152.306V69.246ZM155.464 79.1417H150.561V49.8522H155.464V79.1417ZM156.481 88.9933H129.267V84.9731H156.481V88.9933ZM134.193 86.9169H129.267V76.1377H134.193V86.9169ZM133.111 52.2378C135.055 52.2378 136.814 52.6796 138.39 53.5631C139.98 54.4467 141.239 55.6689 142.167 57.2298C143.11 58.776 143.581 60.5284 143.581 62.4869C143.581 64.416 143.11 66.1536 142.167 67.6998C141.239 69.246 139.98 70.4609 138.39 71.3445C136.814 72.228 135.055 72.6698 133.111 72.6698C131.123 72.6698 129.326 72.228 127.721 71.3445C126.116 70.4609 124.857 69.246 123.944 67.6998C123.031 66.1536 122.575 64.416 122.575 62.4869C122.575 60.5284 123.031 58.7687 123.944 57.2077C124.857 55.6468 126.116 54.4319 127.721 53.5631C129.326 52.6796 131.123 52.2378 133.111 52.2378ZM133.111 56.6113C131.977 56.5966 130.961 56.8396 130.063 57.3403C129.179 57.8262 128.487 58.511 127.986 59.3945C127.486 60.2781 127.235 61.3089 127.235 62.4869C127.235 63.6502 127.486 64.6737 127.986 65.5572C128.487 66.4261 129.179 67.1034 130.063 67.5894C130.961 68.0606 131.977 68.3036 133.111 68.3183C134.186 68.3036 135.165 68.0606 136.049 67.5894C136.932 67.1034 137.624 66.4187 138.125 65.5351C138.626 64.6516 138.876 63.6355 138.876 62.4869C138.876 61.3089 138.626 60.2781 138.125 59.3945C137.624 58.511 136.932 57.8262 136.049 57.3403C135.165 56.8396 134.186 56.5966 133.111 56.6113Z" fill="#FBFBFB"/>
<defs>
<filter id="filter0_d_8432_35173" x="-3.53463" y="-9.6834" width="285.419" height="191.918" filterUnits="userSpaceOnUse" color-interpolation-filters="sRGB">
<feFlood flood-opacity="0" result="BackgroundImageFix"/>
<feColorMatrix in="SourceAlpha" type="matrix" values="0 0 0 0 0 0 0 0 0 0 0 0 0 0 0 0 0 0 127 0" result="hardAlpha"/>
<feOffset dx="16.45" dy="16.45"/>
<feGaussianBlur stdDeviation="16.45"/>
<feComposite in2="hardAlpha" operator="out"/>
<feColorMatrix type="matrix" values="0 0 0 0 0 0 0 0 0 0 0 0 0 0 0 0 0 0 0.25 0"/>
<feBlend mode="normal" in2="BackgroundImageFix" result="effect1_dropShadow_8432_35173"/>
<feBlend mode="normal" in="SourceGraphic" in2="effect1_dropShadow_8432_35173" result="shape"/>
</filter>
</defs>
</svg>
