<svg width="336" height="172" viewBox="0 0 336 172" fill="none" xmlns="http://www.w3.org/2000/svg">
<g filter="url(#filter0_d_8432_35185)">
<path d="M281.369 39.1737L286.313 122.253L17.0855 95.0442L45.1272 16.9985L281.369 39.1737Z" fill="#FF3D12"/>
</g>
<path d="M73.7755 55.2639C73.7755 58.106 73.0613 60.7714 71.6329 63.26C70.2192 65.7487 68.2607 67.8618 65.7573 69.5994C63.2686 71.3371 60.4487 72.5372 57.2974 73.1999L55.1768 69.1135C57.8717 68.5981 60.3088 67.6409 62.4882 66.242C64.6823 64.843 66.3905 63.179 67.6127 61.2499C68.8497 59.3209 69.4682 57.3255 69.4682 55.2639V52.3482H73.7755V55.2639ZM74.659 55.2639C74.659 57.3255 75.2775 59.3282 76.5145 61.272C77.7661 63.2011 79.4891 64.8725 81.6832 66.2862C83.8921 67.6851 86.3513 68.6276 89.0608 69.1135L86.874 73.1999C83.7522 72.5372 80.9469 71.3445 78.4583 69.6215C75.9696 67.8986 74.0111 65.8002 72.5827 63.3263C71.169 60.8376 70.4622 58.1502 70.4622 55.2639V52.3482H74.659V55.2639ZM90.5628 84.6418H54.0724V80.5996H90.5628V84.6418ZM125.595 74.6577H97.587V70.7701H125.595V74.6577ZM129.66 84.8848H93.1693V80.8867H129.66V84.8848ZM125.242 56.9427H102.579V71.8304H97.587V52.9225H125.242V56.9427ZM124.336 65.5793H101.099V61.7138H124.336V65.5793ZM165.443 76.9771H160.562V49.808H165.443V76.9771ZM137.766 68.8263C142.037 68.8116 145.556 68.7233 148.325 68.5613C151.108 68.3846 153.898 68.0606 156.696 67.5894L157.204 71.4991C154.362 71.9997 151.513 72.3384 148.656 72.5151C145.814 72.6919 142.184 72.7876 137.766 72.8023H134.342V68.8263H137.766ZM152.676 64.2319H139.158V70.6376H134.342V60.521H147.817V56.28H134.298V52.3041H152.676V64.2319ZM153.736 75.7843C153.736 78.1404 153.096 80.283 151.815 82.2121C150.548 84.1264 148.759 85.7168 146.447 86.9832C144.15 88.2496 141.47 89.1111 138.407 89.5676L136.507 85.8125C139.143 85.4444 141.448 84.7743 143.421 83.8024C145.409 82.8305 146.926 81.6525 147.971 80.2683C149.017 78.8693 149.539 77.3746 149.539 75.7843V74.9228H153.736V75.7843ZM154.686 75.7843C154.686 77.3746 155.202 78.8619 156.232 80.2462C157.263 81.6304 158.765 82.8158 160.738 83.8024C162.712 84.7743 165.009 85.4444 167.63 85.8125L165.841 89.5676C162.763 89.0816 160.068 88.2128 157.756 86.9611C155.444 85.7094 153.655 84.1264 152.389 82.2121C151.122 80.2977 150.489 78.1551 150.489 75.7843V74.9228H154.686V75.7843ZM189.321 74.7903C192.237 74.7903 194.748 75.0848 196.853 75.6738C198.974 76.2481 200.608 77.1022 201.757 78.2361C202.92 79.3553 203.502 80.6953 203.502 82.2562C203.502 83.7877 202.92 85.1057 201.757 86.2101C200.608 87.3293 198.966 88.1833 196.831 88.7724C194.711 89.3761 192.207 89.678 189.321 89.678C186.479 89.678 183.99 89.3761 181.855 88.7724C179.735 88.1833 178.093 87.3293 176.929 86.2101C175.781 85.1057 175.206 83.7877 175.206 82.2562C175.206 80.71 175.781 79.37 176.929 78.2361C178.093 77.1022 179.735 76.2481 181.855 75.6738C183.976 75.0848 186.464 74.7903 189.321 74.7903ZM189.321 78.457C187.407 78.457 185.757 78.6042 184.373 78.8988C182.989 79.1933 181.929 79.6277 181.192 80.202C180.471 80.7763 180.11 81.461 180.11 82.2562C180.11 83.0367 180.471 83.6994 181.192 84.2442C181.929 84.7891 182.989 85.2087 184.373 85.5033C185.757 85.783 187.407 85.9229 189.321 85.9229C191.28 85.9229 192.944 85.783 194.313 85.5033C195.697 85.2087 196.758 84.7891 197.494 84.2442C198.245 83.6846 198.62 83.022 198.62 82.2562C198.62 81.461 198.245 80.7763 197.494 80.202C196.758 79.6277 195.697 79.1933 194.313 78.8988C192.944 78.6042 191.28 78.457 189.321 78.457ZM201.183 55.5953H175.582V51.7077H201.183V55.5953ZM207.677 71.8746H171.407V67.8986H207.677V71.8746ZM190.315 69.0251H185.456V60.6756H190.315V69.0251ZM203.281 54.9989C203.281 57.1488 203.215 59.0043 203.082 60.5652C202.964 62.1261 202.648 63.8196 202.132 65.6456L197.295 65.1596C197.766 63.3042 198.053 61.6623 198.157 60.2339C198.274 58.8055 198.341 57.0605 198.355 54.9989V51.7077H203.281V54.9989ZM240.721 59.6154H228.793V55.6615H240.721V59.6154ZM240.721 69.246H228.793V65.2701H240.721V69.246ZM243.88 79.1417H238.976V49.8522H243.88V79.1417ZM244.896 88.9933H217.683V84.9731H244.896V88.9933ZM222.609 86.9169H217.683V76.1377H222.609V86.9169ZM221.526 52.2378C223.47 52.2378 225.23 52.6796 226.805 53.5631C228.396 54.4467 229.655 55.6689 230.583 57.2298C231.525 58.776 231.996 60.5284 231.996 62.4869C231.996 64.416 231.525 66.1536 230.583 67.6998C229.655 69.246 228.396 70.4609 226.805 71.3445C225.23 72.228 223.47 72.6698 221.526 72.6698C219.538 72.6698 217.742 72.228 216.137 71.3445C214.532 70.4609 213.272 69.246 212.36 67.6998C211.447 66.1536 210.99 64.416 210.99 62.4869C210.99 60.5284 211.447 58.7687 212.36 57.2077C213.272 55.6468 214.532 54.4319 216.137 53.5631C217.742 52.6796 219.538 52.2378 221.526 52.2378ZM221.526 56.6113C220.392 56.5966 219.376 56.8396 218.478 57.3403C217.595 57.8262 216.902 58.511 216.402 59.3945C215.901 60.2781 215.651 61.3089 215.651 62.4869C215.651 63.6502 215.901 64.6737 216.402 65.5572C216.902 66.4261 217.595 67.1034 218.478 67.5894C219.376 68.0606 220.392 68.3036 221.526 68.3183C222.601 68.3036 223.581 68.0606 224.464 67.5894C225.348 67.1034 226.04 66.4187 226.54 65.5351C227.041 64.6516 227.291 63.6355 227.291 62.4869C227.291 61.3089 227.041 60.2781 226.54 59.3945C226.04 58.511 225.348 57.8262 224.464 57.3403C223.581 56.8396 222.601 56.5966 221.526 56.6113Z" fill="#FBFBFB"/>
<defs>
<filter id="filter0_d_8432_35185" x="-4.66112" y="-9.18633" width="340.324" height="191.918" filterUnits="userSpaceOnUse" color-interpolation-filters="sRGB">
<feFlood flood-opacity="0" result="BackgroundImageFix"/>
<feColorMatrix in="SourceAlpha" type="matrix" values="0 0 0 0 0 0 0 0 0 0 0 0 0 0 0 0 0 0 127 0" result="hardAlpha"/>
<feOffset dx="16.45" dy="16.45"/>
<feGaussianBlur stdDeviation="16.45"/>
<feComposite in2="hardAlpha" operator="out"/>
<feColorMatrix type="matrix" values="0 0 0 0 0 0 0 0 0 0 0 0 0 0 0 0 0 0 0.25 0"/>
<feBlend mode="normal" in2="BackgroundImageFix" result="effect1_dropShadow_8432_35185"/>
<feBlend mode="normal" in="SourceGraphic" in2="effect1_dropShadow_8432_35185" result="shape"/>
</filter>
</defs>
</svg>
