<svg width="282" height="172" viewBox="0 0 282 172" fill="none" xmlns="http://www.w3.org/2000/svg">
<g filter="url(#filter0_d_8432_35182)">
<path d="M228.466 38.6951L232.422 121.774L17.0397 94.5657L39.4731 16.52L228.466 38.6951Z" fill="#FF3D12"/>
</g>
<path d="M106.181 62.5824H98.98V58.6285H106.181V62.5824ZM106.181 74.8857H98.98V70.8656H106.181V74.8857ZM117.446 89.3759H112.719V49.4838H117.446V89.3759ZM109.34 87.4983H104.723V50.1686H109.34V87.4983ZM92.022 52.51C93.7891 52.51 95.328 53.0843 96.6386 54.2329C97.9492 55.3815 98.9652 57.0308 99.6868 59.1807C100.408 61.3307 100.769 63.8562 100.769 66.7571C100.769 69.6434 100.408 72.1688 99.6868 74.3335C98.9652 76.4835 97.9492 78.1401 96.6386 79.3035C95.328 80.4668 93.7891 81.0485 92.022 81.0485C90.2844 81.0485 88.7603 80.4668 87.4497 79.3035C86.1538 78.1401 85.1451 76.4835 84.4236 74.3335C83.7167 72.1688 83.3633 69.6434 83.3633 66.7571C83.3633 63.8414 83.7167 61.316 84.4236 59.1807C85.1451 57.0308 86.1612 55.3815 87.4718 54.2329C88.7824 53.0843 90.2991 52.51 92.022 52.51ZM92.022 57.1486C91.1532 57.1486 90.4096 57.5167 89.7911 58.253C89.1726 58.9746 88.694 60.0569 88.3553 61.5C88.0314 62.9284 87.8694 64.6808 87.8694 66.7571C87.8694 68.8187 88.0314 70.5637 88.3553 71.9921C88.694 73.4205 89.1726 74.5029 89.7911 75.2392C90.4096 75.9754 91.1532 76.3436 92.022 76.3436C92.9056 76.3436 93.664 75.9754 94.2972 75.2392C94.9304 74.5029 95.4163 73.4205 95.755 71.9921C96.1084 70.549 96.2851 68.804 96.2851 66.7571C96.2851 64.6955 96.1084 62.9505 95.755 61.5221C95.4163 60.079 94.923 58.9893 94.2751 58.253C93.6419 57.5167 92.8909 57.1486 92.022 57.1486ZM127.96 62.3615H134.454V53.1284H139.027V79.7673H123.322V53.1284H127.96V62.3615ZM134.454 75.8135V66.2712H127.96V75.8135H134.454ZM156.543 89.3759H151.816V49.4838H156.543V89.3759ZM153.362 68.9439H146.25V64.9459H153.362V68.9439ZM147.575 87.4983H142.936V50.1686H147.575V87.4983Z" fill="#FBFBFB"/>
<defs>
<filter id="filter0_d_8432_35182" x="-3.64751" y="-9.66484" width="285.419" height="191.918" filterUnits="userSpaceOnUse" color-interpolation-filters="sRGB">
<feFlood flood-opacity="0" result="BackgroundImageFix"/>
<feColorMatrix in="SourceAlpha" type="matrix" values="0 0 0 0 0 0 0 0 0 0 0 0 0 0 0 0 0 0 127 0" result="hardAlpha"/>
<feOffset dx="16.45" dy="16.45"/>
<feGaussianBlur stdDeviation="16.45"/>
<feComposite in2="hardAlpha" operator="out"/>
<feColorMatrix type="matrix" values="0 0 0 0 0 0 0 0 0 0 0 0 0 0 0 0 0 0 0.25 0"/>
<feBlend mode="normal" in2="BackgroundImageFix" result="effect1_dropShadow_8432_35182"/>
<feBlend mode="normal" in="SourceGraphic" in2="effect1_dropShadow_8432_35182" result="shape"/>
</filter>
</defs>
</svg>
