<svg width="18" height="16" viewBox="0 0 18 16" fill="none" xmlns="http://www.w3.org/2000/svg">
<path d="M1 16C0.716667 16 0.479333 15.872 0.288 15.616C0.0960001 15.3609 0 15.0444 0 14.6667C0 14.2889 0.0960001 13.9724 0.288 13.7173C0.479333 13.4613 0.716667 13.3333 1 13.3333H17C17.2833 13.3333 17.5207 13.4613 17.712 13.7173C17.904 13.9724 18 14.2889 18 14.6667C18 15.0444 17.904 15.3609 17.712 15.616C17.5207 15.872 17.2833 16 17 16H1ZM1 9.33333C0.716667 9.33333 0.479333 9.20533 0.288 8.94933C0.0960001 8.69422 0 8.37778 0 8C0 7.62222 0.0960001 7.30533 0.288 7.04933C0.479333 6.79422 0.716667 6.66667 1 6.66667H17C17.2833 6.66667 17.5207 6.79422 17.712 7.04933C17.904 7.30533 18 7.62222 18 8C18 8.37778 17.904 8.69422 17.712 8.94933C17.5207 9.20533 17.2833 9.33333 17 9.33333H1ZM1 2.66667C0.716667 2.66667 0.479333 2.53911 0.288 2.284C0.0960001 2.028 0 1.71111 0 1.33333C0 0.955556 0.0960001 0.638667 0.288 0.382667C0.479333 0.127556 0.716667 0 1 0H17C17.2833 0 17.5207 0.127556 17.712 0.382667C17.904 0.638667 18 0.955556 18 1.33333C18 1.71111 17.904 2.028 17.712 2.284C17.5207 2.53911 17.2833 2.66667 17 2.66667H1Z" fill="#121212"/>
</svg>
