<svg width="1280" height="744" viewBox="0 0 1280 744" fill="none" xmlns="http://www.w3.org/2000/svg">
<g clip-path="url(#clip0_6414_56387)">
<rect width="1280" height="744" fill="url(#paint0_linear_6414_56387)"/>
<g opacity="0.9">
<g filter="url(#filter0_d_6414_56387)">
<path d="M672.234 229.348L848.234 253.848L1024.74 620.848L853.735 608.848L672.234 229.348Z" fill="#BB2200"/>
</g>
<g filter="url(#filter1_d_6414_56387)">
<path d="M1278.23 -233.651L1420.73 -165.651L1024.73 620.849L853.734 608.849L1278.23 -233.651Z" fill="#FF3D12"/>
</g>
<g filter="url(#filter2_d_6414_56387)">
<path d="M340.332 1042.52L214.448 960.951L672.232 229.349L848.232 253.849L340.332 1042.52Z" fill="#FF3D12"/>
</g>
<g clip-path="url(#clip1_6414_56387)">
<path d="M437.91 720.837L427.746 710.806L433.741 688.049L446.912 691.06L437.91 720.837Z" fill="#FBFBFB"/>
<path d="M467.603 705.799L458.296 692.325L437.703 731.071L452.542 735.216L467.603 705.799Z" fill="#FBFBFB"/>
<path d="M452.786 734.703L442.214 744.046L402.551 719.627L408.14 707.219L452.786 734.703Z" fill="#FBFBFB"/>
<path d="M468.771 690.327L467.601 705.799L426.644 680.536L432.229 668.111L468.771 690.327Z" fill="#FBFBFB"/>
<path d="M449.664 657.377L462.193 663.712L474.84 638.723L460.208 634.073L449.664 657.377Z" fill="#FBFBFB"/>
<path d="M517.671 690.62L519.326 673.143L471.557 626.672L460.168 634.138L517.671 690.62Z" fill="#FBFBFB"/>
<path d="M470.239 625.814L482.767 632.148L495.414 607.16L480.782 602.509L470.239 625.814Z" fill="#FBFBFB"/>
<path d="M538.246 659.056L539.9 641.579L492.125 595.118L480.742 602.573L538.246 659.056Z" fill="#FBFBFB"/>
<path d="M505.026 705.501L466.456 779.703L457.546 771.513L495.764 699.463L505.026 705.501Z" fill="#FBFBFB"/>
<path d="M481.187 736.067L471.776 745.22L462.967 731.566L471.881 721.632L481.187 736.067Z" fill="#FBFBFB"/>
<path d="M487.083 576.528L561.071 634.563L565.721 623.315L493.133 567.247L487.083 576.528Z" fill="#FBFBFB"/>
<path d="M520.45 583.113L528.252 596.278L537.425 577.318L525.036 574.114L520.45 583.113Z" fill="#FBFBFB"/>
</g>
<path d="M564.124 469.576L552.135 489.12L549.49 487.497L561.479 467.953L564.124 469.576ZM557.521 476.705L555.498 480.003L551.315 477.437L553.338 474.139L557.521 476.705ZM558.501 469.174L549.3 484.172L546.678 482.564L555.878 467.565L558.501 469.174ZM553.635 466.333L546.543 477.894L550.459 480.296L548.414 483.629L541.9 479.633L551.036 464.739L553.635 466.333ZM558.988 479.963C559.946 478.401 560.919 477.154 561.909 476.221C562.898 475.288 563.877 474.712 564.845 474.493C565.805 474.27 566.713 474.42 567.568 474.945C568.391 475.45 568.917 476.179 569.145 477.131C569.373 478.084 569.297 479.219 568.917 480.536C568.542 481.846 567.877 483.277 566.924 484.831C565.971 486.385 564.991 487.634 563.984 488.577C562.983 489.513 562 490.103 561.038 490.347C560.081 490.583 559.19 490.448 558.367 489.943C557.512 489.419 556.969 488.674 556.738 487.709C556.504 486.731 556.581 485.586 556.969 484.274C557.357 482.961 558.03 481.524 558.988 479.963ZM561.528 481.521C560.952 482.461 560.528 483.265 560.257 483.933C559.986 484.601 559.869 485.149 559.906 485.578C559.942 486.007 560.127 486.324 560.461 486.528C560.788 486.729 561.146 486.745 561.537 486.579C561.92 486.408 562.346 486.054 562.814 485.518C563.279 484.969 563.802 484.22 564.384 483.273C564.96 482.332 565.385 481.535 565.659 480.879C565.925 480.219 566.044 479.677 566.015 479.253C565.986 478.829 565.813 478.52 565.494 478.324C565.16 478.119 564.794 478.098 564.395 478.259C563.997 478.421 563.561 478.774 563.088 479.318C562.615 479.862 562.095 480.596 561.528 481.521ZM557.18 455.901C557.856 454.798 558.771 454.012 559.925 453.543C561.083 453.067 562.394 452.935 563.856 453.148C565.319 453.361 566.82 453.939 568.358 454.883C569.912 455.836 571.115 456.916 571.968 458.124C572.82 459.331 573.297 460.559 573.397 461.808C573.497 463.056 573.211 464.228 572.539 465.323C571.863 466.427 570.943 467.22 569.78 467.704C568.621 468.181 567.313 468.309 565.855 468.088C564.397 467.867 562.891 467.28 561.338 466.327C559.799 465.383 558.601 464.312 557.744 463.112C556.887 461.913 556.408 460.689 556.308 459.44C556.212 458.184 556.503 457.004 557.18 455.901ZM560.221 457.767C559.905 458.247 559.809 458.787 559.933 459.387C560.062 459.979 560.41 460.588 560.978 461.214C561.545 461.84 562.33 462.461 563.332 463.076C564.342 463.695 565.259 464.118 566.082 464.345C566.897 464.568 567.594 464.599 568.173 464.441C568.748 464.27 569.186 463.94 569.486 463.45C569.801 462.938 569.901 462.39 569.788 461.807C569.672 461.212 569.328 460.605 568.756 459.987C568.18 459.356 567.388 458.731 566.378 458.111C565.368 457.492 564.455 457.071 563.64 456.848C562.821 456.614 562.12 456.58 561.537 456.746C560.959 456.904 560.52 457.245 560.221 457.767ZM583.978 456.926L581.912 460.294L560.515 447.169L562.581 443.801L583.978 456.926ZM575.15 447.341L572.841 451.105L570.056 449.396L572.365 445.632L575.15 447.341ZM597.326 435.298L595.274 438.642L573.82 425.481L575.871 422.136L597.326 435.298ZM580.477 445.508C581.724 443.493 582.783 441.662 583.654 440.015C584.53 438.36 585.328 436.641 586.047 434.859L588.929 436.226C588.254 437.971 587.475 439.686 586.593 441.368C585.702 443.046 584.58 444.989 583.227 447.195L582.026 449.153L579.276 447.466L580.477 445.508ZM581.96 435.062L577.828 441.798L582.443 444.629L580.313 448.102L573.076 443.662L577.236 436.88L574.113 434.964L569.945 441.758L567.253 440.107L573.523 429.886L581.96 435.062ZM591.131 409.812C592.886 410.889 594.403 412.129 595.68 413.533C596.963 414.929 597.927 416.451 598.574 418.099C599.212 419.742 599.427 421.424 599.216 423.144L595.405 423.421C595.606 421.908 595.465 420.464 594.983 419.088C594.498 417.7 593.776 416.455 592.816 415.353C591.848 414.246 590.731 413.304 589.465 412.527L587.321 411.212L588.986 408.496L591.131 409.812ZM591.567 409.101C592.771 409.84 594.048 410.372 595.399 410.698C596.746 411.011 598.117 411.061 599.51 410.846C600.901 410.619 602.205 410.061 603.424 409.173L604.938 412.588C603.511 413.606 601.948 414.219 600.249 414.427C598.554 414.628 596.837 414.489 595.099 414.011C593.361 413.532 591.645 412.774 589.951 411.735L587.807 410.419L589.422 407.786L591.567 409.101ZM593.37 404.305L585.957 416.39L583.23 414.717L590.643 402.632L593.37 404.305ZM613.196 409.297L611.101 412.712L589.705 399.586L591.799 396.172L613.196 409.297ZM614.569 394.325L612.503 397.693L607.807 394.812L609.873 391.444L614.569 394.325ZM620.788 385.18L618.729 388.537L602.612 378.649L604.671 375.293L620.788 385.18ZM625.973 387.735L616.044 403.923L613.351 402.271L623.281 386.084L625.973 387.735ZM616.117 399.332L614.051 402.7L609.599 399.969L611.665 396.601L616.117 399.332ZM602.76 399.351C604.518 396.398 606.008 393.848 607.23 391.699C608.449 389.538 609.536 387.399 610.494 385.281L613.002 386.579C612.083 388.86 610.993 391.169 609.73 393.506C608.473 395.835 607.106 398.194 605.63 400.582L602.76 399.351ZM617.653 386.866L614.758 391.586L612.497 390.199L615.392 385.479L617.653 386.866ZM598.355 387.105C598.972 386.083 599.697 385.266 600.532 384.655C601.363 384.032 602.215 383.672 603.087 383.576C603.951 383.475 604.755 383.653 605.501 384.111C606.255 384.573 606.779 385.21 607.072 386.021C607.358 386.827 607.41 387.736 607.228 388.747C607.051 389.751 606.646 390.769 606.012 391.802C605.368 392.851 604.637 393.686 603.818 394.306C602.999 394.926 602.166 395.292 601.317 395.402C600.461 395.508 599.656 395.33 598.903 394.867C598.157 394.41 597.629 393.771 597.32 392.95C597.003 392.125 596.935 391.206 597.117 390.195C597.291 389.179 597.704 388.149 598.355 387.105ZM600.791 388.599C600.519 389.042 600.333 389.468 600.232 389.877C600.128 390.273 600.13 390.627 600.238 390.939C600.346 391.251 600.551 391.5 600.854 391.686C601.15 391.867 601.461 391.935 601.788 391.89C602.107 391.84 602.424 391.681 602.738 391.414C603.048 391.134 603.34 390.772 603.611 390.329C603.873 389.902 604.054 389.494 604.153 389.106C604.245 388.713 604.24 388.363 604.14 388.056C604.037 387.736 603.838 387.485 603.542 387.304C603.239 387.118 602.922 387.052 602.59 387.105C602.258 387.158 601.942 387.316 601.64 387.581C601.336 387.833 601.053 388.172 600.791 388.599ZM632.916 362.482L620.927 382.025L618.305 380.417L630.294 360.873L632.916 362.482ZM634.435 374.674L632.398 377.995L624.543 373.176L626.581 369.855L634.435 374.674ZM612.562 369.307L617.723 360.893L615.439 359.492L617.498 356.135L627.007 361.969L617.764 377.037L608.254 371.204L610.277 367.906L612.562 369.307ZM622.28 363.688L620.345 362.501L615.184 370.916L617.118 372.102L622.28 363.688ZM651.315 347.288L649.27 350.621L627.816 337.46L629.86 334.126L651.315 347.288ZM638.128 343.24L635.74 347.132L633.071 345.495L635.459 341.603L638.128 343.24ZM634.365 358.158C635.531 356.275 636.508 354.613 637.296 353.172C638.081 351.718 638.809 350.218 639.479 348.672L642.367 349.978C641.671 351.583 640.913 353.15 640.093 354.679C639.27 356.195 638.27 357.912 637.092 359.831L636.034 361.556L633.307 359.883L634.365 358.158ZM629.916 344.025L625.833 350.679L636.205 357.041L634.146 360.398L621.083 352.384L627.223 342.373L629.916 344.025ZM635.339 348.362L631.257 355.016L628.634 353.408L632.717 346.753L635.339 348.362ZM594.491 501.886C595.458 500.309 596.452 499.047 597.471 498.1C598.495 497.146 599.504 496.546 600.499 496.301C601.499 496.048 602.43 496.187 603.293 496.716C604.124 497.225 604.65 497.981 604.87 498.982C605.102 499.98 605.026 501.158 604.643 502.516C604.264 503.866 603.595 505.322 602.637 506.883C601.693 508.422 600.706 509.666 599.674 510.615C598.642 511.565 597.624 512.17 596.62 512.431C595.628 512.688 594.716 512.562 593.885 512.052C593.03 511.528 592.486 510.767 592.254 509.769C592.018 508.758 592.094 507.58 592.481 506.235C592.873 504.882 593.543 503.432 594.491 501.886ZM596.962 503.402C596.39 504.334 595.97 505.157 595.704 505.87C595.43 506.579 595.311 507.174 595.346 507.656C595.379 508.125 595.578 508.472 595.944 508.696C596.285 508.905 596.669 508.916 597.095 508.728C597.525 508.532 597.99 508.149 598.489 507.579C598.989 507.008 599.525 506.257 600.096 505.325C600.678 504.377 601.11 503.551 601.392 502.847C601.679 502.136 601.812 501.544 601.791 501.072C601.763 500.594 601.582 500.253 601.248 500.049C600.883 499.825 600.481 499.808 600.043 499.999C599.598 500.186 599.119 500.565 598.606 501.139C598.091 501.7 597.543 502.454 596.962 503.402ZM588.553 489.759L580.225 503.336L577.603 501.727L585.931 488.15L588.553 489.759ZM599.39 491.338L587.487 510.742L584.783 509.083L596.686 489.679L599.39 491.338ZM591.835 499.182L589.798 502.504L585.462 499.844L587.5 496.523L591.835 499.182ZM588.547 487.782C589.697 488.488 590.678 489.137 591.489 489.732C592.298 490.313 593.106 491.044 593.914 491.924L591.569 495.041C590.734 494.187 589.957 493.502 589.237 492.985C588.521 492.461 587.603 491.849 586.481 491.15L584.745 490.085L586.811 486.717L588.547 487.782ZM603.368 470.185L599.508 476.478L596.827 474.833L600.688 468.54L603.368 470.185ZM608.554 473.366L604.694 479.659L602.025 478.022L605.885 471.729L608.554 473.366ZM614.699 474.2L612.654 477.533L597.085 467.982L599.129 464.649L614.699 474.2ZM620.453 477.056L611.359 491.88L608.667 490.229L617.761 475.405L620.453 477.056ZM612.148 487.745L610.089 491.101L604.356 487.584L606.414 484.227L612.148 487.745ZM592.895 477.505C593.538 476.457 594.367 475.655 595.38 475.101C596.391 474.534 597.481 474.256 598.65 474.268C599.824 474.271 600.943 474.6 602.008 475.252C603.049 475.891 603.837 476.733 604.372 477.778C604.904 478.81 605.148 479.911 605.104 481.082C605.065 482.244 604.728 483.342 604.094 484.376C603.436 485.448 602.593 486.273 601.565 486.85C600.542 487.42 599.452 487.698 598.296 487.683C597.136 487.656 596.036 487.324 594.994 486.685C593.93 486.032 593.123 485.195 592.573 484.173C592.021 483.139 591.771 482.039 591.823 480.874C591.88 479.7 592.237 478.578 592.895 477.505ZM595.878 479.336C595.557 479.823 595.383 480.326 595.354 480.843C595.318 481.355 595.435 481.844 595.706 482.309C595.976 482.775 596.387 483.177 596.939 483.515C597.483 483.849 598.016 484.026 598.538 484.047C599.059 484.067 599.541 483.946 599.981 483.681C600.421 483.416 600.802 483.04 601.122 482.553C601.393 482.077 601.544 481.587 601.575 481.082C601.611 480.57 601.5 480.09 601.24 479.641C600.977 479.181 600.578 478.786 600.042 478.457C599.49 478.119 598.945 477.935 598.408 477.904C597.875 477.866 597.389 477.979 596.949 478.244C596.505 478.496 596.148 478.86 595.878 479.336ZM618.581 449.203L616.451 452.675L613.77 451.031L615.901 447.558L618.581 449.203ZM625.247 453.292L623.117 456.765L620.401 455.099L622.532 451.626L625.247 453.292ZM636.721 451.268L634.756 454.473L613.359 441.348L615.325 438.143L636.721 451.268ZM633.068 455.106L631.138 458.253L610.977 445.885L612.907 442.738L633.068 455.106ZM608.332 452.811C608.923 451.848 609.752 451.202 610.82 450.873C611.888 450.545 613.131 450.548 614.55 450.884C615.974 451.212 617.487 451.867 619.087 452.849C620.687 453.831 621.96 454.884 622.906 456.01C623.849 457.123 624.419 458.232 624.618 459.338C624.817 460.443 624.628 461.482 624.053 462.455C623.46 463.386 622.629 464.009 621.558 464.325C620.487 464.642 619.245 464.628 617.83 464.284C616.408 463.936 614.897 463.27 613.296 462.289C611.68 461.297 610.403 460.252 609.463 459.151C608.523 458.051 607.956 456.954 607.76 455.861C607.569 454.76 607.76 453.744 608.332 452.811ZM611.513 454.763C611.278 455.111 611.254 455.508 611.441 455.954C611.627 456.399 612.028 456.896 612.643 457.445C613.25 457.989 614.09 458.589 615.162 459.247C616.227 459.9 617.143 460.376 617.91 460.676C618.678 460.976 619.303 461.108 619.785 461.072C620.259 461.032 620.605 460.832 620.825 460.475C621.053 460.102 621.081 459.691 620.907 459.243C620.725 458.789 620.332 458.28 619.726 457.716C619.113 457.147 618.278 456.539 617.221 455.891C616.164 455.243 615.248 454.776 614.47 454.492C613.693 454.208 613.059 454.091 612.567 454.143C612.073 454.182 611.722 454.388 611.513 454.763ZM649.375 430.641L647.409 433.846L626.013 420.72L627.979 417.516L649.375 430.641ZM637.445 426.322L635.336 429.76L632.621 428.094L634.73 424.656L637.445 426.322ZM645.486 434.863L643.548 438.022L623.387 425.654L625.325 422.496L645.486 434.863ZM638.333 436.875L633.05 445.488L619.042 436.894L624.325 428.282L638.333 436.875ZM632.351 440.744L633.788 438.402L625.036 433.033L623.599 435.375L632.351 440.744ZM661.171 411.412L659.098 414.792L637.701 401.666L639.775 398.287L661.171 411.412ZM652.439 402.351L650.144 406.091L647.394 404.404L649.689 400.663L652.439 402.351ZM635.291 410.485C637.645 411.929 639.56 413.243 641.037 414.427C642.518 415.603 643.809 416.951 644.908 418.47C646.008 419.989 646.857 421.777 647.456 423.834L643.978 425.293C643.455 423.497 642.757 421.967 641.885 420.705C641.017 419.435 639.968 418.305 638.736 417.314C637.51 416.316 635.855 415.178 633.773 413.901L633.354 413.643L635.291 410.485ZM636.87 414.004L634.418 418.001L631.702 416.335L634.154 412.338L636.87 414.004ZM638.944 404.53C641.399 406.036 643.453 407.429 645.105 408.71C646.757 409.991 648.219 411.444 649.489 413.068C650.765 414.684 651.776 416.54 652.523 418.634L649.045 420.093C648.353 418.257 647.498 416.663 646.478 415.31C645.458 413.958 644.241 412.725 642.828 411.612C641.407 410.494 639.593 409.259 637.387 407.905L637.014 407.676L638.944 404.53ZM640.573 407.967L638.464 411.405L635.748 409.739L637.857 406.301L640.573 407.967ZM652.239 390.519C653.994 391.596 655.511 392.836 656.788 394.24C658.071 395.636 659.035 397.158 659.682 398.806C660.32 400.449 660.535 402.131 660.324 403.851L656.513 404.128C656.714 402.615 656.573 401.171 656.091 399.795C655.606 398.407 654.884 397.162 653.924 396.06C652.956 394.953 651.839 394.011 650.573 393.234L648.429 391.919L650.094 389.204L652.239 390.519ZM652.675 389.808C653.879 390.547 655.156 391.079 656.507 391.405C657.854 391.718 659.225 391.768 660.618 391.553C662.009 391.326 663.313 390.768 664.532 389.88L666.046 393.295C664.619 394.313 663.056 394.926 661.357 395.134C659.662 395.335 657.945 395.196 656.207 394.718C654.469 394.239 652.753 393.481 651.059 392.442L648.915 391.126L650.53 388.493L652.675 389.808ZM654.478 385.012L647.065 397.097L644.338 395.424L651.751 383.339L654.478 385.012ZM674.304 390.004L672.209 393.419L650.813 380.293L652.907 376.879L674.304 390.004ZM637.561 518.09L635.495 521.458L619.552 511.678L621.618 508.31L637.561 518.09ZM632.445 511.134L630.164 514.852L627.426 513.172L629.706 509.454L632.445 511.134ZM623.655 515.606L615.884 528.274L613.273 526.673L621.044 514.005L623.655 515.606ZM620.398 522.301C621.027 521.276 621.768 520.469 622.621 519.88C623.466 519.286 624.343 518.964 625.252 518.912C626.165 518.852 627.034 519.075 627.857 519.58C628.665 520.075 629.242 520.739 629.587 521.571C629.937 522.395 630.039 523.319 629.893 524.341C629.739 525.359 629.348 526.38 628.718 527.406C628.08 528.447 627.339 529.27 626.497 529.877C625.652 530.47 624.778 530.805 623.875 530.883C622.977 530.952 622.124 530.739 621.316 530.243C620.493 529.738 619.9 529.065 619.54 528.223C619.184 527.374 619.079 526.438 619.225 525.416C619.368 524.381 619.759 523.343 620.398 522.301ZM622.973 523.881C622.721 524.293 622.555 524.694 622.476 525.084C622.397 525.474 622.429 525.831 622.573 526.154C622.722 526.47 622.975 526.737 623.332 526.957C623.666 527.162 624.004 527.256 624.345 527.241C624.69 527.218 625.023 527.085 625.343 526.843C625.655 526.596 625.937 526.266 626.19 525.855C626.452 525.427 626.62 525.022 626.694 524.64C626.765 524.245 626.735 523.885 626.604 523.558C626.472 523.232 626.24 522.966 625.906 522.761C625.548 522.542 625.191 522.445 624.832 522.472C624.474 522.498 624.139 522.634 623.827 522.882C623.52 523.121 623.235 523.454 622.973 523.881ZM619.469 519.422L617.403 522.79L613.977 520.688L616.043 517.32L619.469 519.422ZM643.071 520.508L634.035 535.238L631.343 533.587L640.379 518.856L643.071 520.508ZM634.562 530.927L632.496 534.295L627.741 531.378L629.808 528.01L634.562 530.927ZM641.592 494.21L638.303 499.571L635.623 497.927L638.911 492.566L641.592 494.21ZM650.674 496.269L648.63 499.602L632.885 489.944L634.93 486.611L650.674 496.269ZM656.225 499.065L647.139 513.877L644.447 512.225L653.533 497.413L656.225 499.065ZM648.107 509.787L646.02 513.19L640.286 509.673L642.374 506.27L648.107 509.787ZM630.921 503.238L633.144 499.614L630.033 497.705L632.077 494.372L643.148 501.164L636.8 511.512L625.729 504.721L627.809 501.33L630.921 503.238ZM638.482 502.888L635.673 501.165L633.45 504.79L636.258 506.513L638.482 502.888ZM654.237 478.486L652.15 481.889L649.493 480.259L651.58 476.856L654.237 478.486ZM669.234 478.591L667.268 481.796L645.871 468.67L647.837 465.465L669.234 478.591ZM665.53 482.51L663.593 485.668L643.432 473.301L645.369 470.142L665.53 482.51ZM640.844 480.134C641.435 479.17 642.264 478.524 643.332 478.196C644.4 477.867 645.643 477.871 647.062 478.207C648.486 478.535 649.999 479.19 651.599 480.172C653.2 481.153 654.473 482.207 655.418 483.332C656.361 484.445 656.931 485.554 657.13 486.66C657.329 487.766 657.14 488.805 656.565 489.778C655.973 490.708 655.141 491.332 654.07 491.648C653 491.964 651.757 491.95 650.342 491.607C648.92 491.258 647.409 490.593 645.808 489.611C644.192 488.62 642.915 487.574 641.975 486.474C641.035 485.373 640.468 484.277 640.272 483.184C640.081 482.083 640.272 481.066 640.844 480.134ZM644.025 482.086C643.8 482.418 643.784 482.809 643.979 483.26C644.17 483.698 644.575 484.187 645.195 484.728C645.815 485.269 646.653 485.863 647.71 486.511C648.767 487.159 649.68 487.64 650.451 487.952C651.214 488.26 651.834 488.399 652.311 488.371C652.785 488.331 653.127 488.139 653.337 487.798C653.561 487.432 653.583 487.029 653.405 486.588C653.223 486.135 652.827 485.63 652.217 485.074C651.599 484.513 650.761 483.908 649.705 483.26C648.648 482.612 647.733 482.141 646.961 481.849C646.188 481.557 645.559 481.433 645.072 481.477C644.583 481.508 644.234 481.711 644.025 482.086ZM666.151 467.092L664.12 470.402L652.163 463.564L654.644 459.52L666.151 467.092ZM670.508 472.043C670.274 472.423 669.96 472.717 669.566 472.924C669.172 473.132 668.758 473.231 668.325 473.222C667.889 473.2 667.481 473.073 667.1 472.839C666.735 472.615 666.448 472.316 666.239 471.942C666.027 471.555 665.928 471.142 665.942 470.701C665.955 470.26 666.079 469.85 666.312 469.469C666.541 469.096 666.847 468.808 667.228 468.603C667.615 468.391 668.031 468.288 668.477 468.294C668.914 468.296 669.316 468.408 669.681 468.632C670.062 468.866 670.355 469.18 670.563 469.574C670.762 469.964 670.859 470.381 670.853 470.827C670.852 471.264 670.737 471.67 670.508 472.043Z" fill="#FBFBFB"/>
<mask id="mask0_6414_56387" style="mask-type:alpha" maskUnits="userSpaceOnUse" x="440" y="-181" width="1021" height="528">
<g clip-path="url(#clip2_6414_56387)">
<path d="M949.917 62.451L924.198 74.7519L858.884 55.477L892.415 43.8797L949.917 62.451Z" fill="#121212"/>
<path d="M965.986 87.6553L933.966 78.0243L894.669 110.022L938.966 114.313L965.986 87.6553Z" fill="#121212"/>
<path d="M939.675 113.724L908.953 124.353L789.651 98.0353L805.387 84.1039L939.675 113.724Z" fill="#121212"/>
<path d="M846.69 105.205L820.368 88.3273L852.661 41.7563L892.579 43.9177L846.69 105.205Z" fill="#121212"/>
<path d="M1046.06 7.11629L1015.23 -3.828L1031.47 -29.287L1070.72 -26.2094L1046.06 7.11629Z" fill="#121212"/>
<path d="M1133.11 -10.2667L1104.59 -25.0611L1046.12 18.5222L1090.42 22.8133L1133.11 -10.2667Z" fill="#121212"/>
<path d="M1091.12 22.2252L1060.4 32.854L941.097 6.53629L956.832 -7.3951L1091.12 22.2252Z" fill="#121212"/>
<path d="M1244.1 -11.41L1134.73 72.0154L1107.74 63.0925L1216.22 -17.9289L1244.1 -11.41Z" fill="#121212"/>
<path d="M1175.46 23.1267L1148.15 33.5303L1121.11 18.5133L1146.88 7.26249L1175.46 23.1267Z" fill="#121212"/>
<path d="M1097.63 77.0806L988.281 160.494L961.276 151.583L1069.75 70.5617L1097.63 77.0806Z" fill="#121212"/>
<path d="M1028.99 111.617L1001.7 122.009L974.663 106.992L1000.41 95.7531L1028.99 111.617Z" fill="#121212"/>
<path d="M723.711 169.9L706.105 141.605L548.839 236.62L667.032 281.981L816.6 191.617L798.993 163.322L770.139 180.755L752.565 152.467L723.711 169.9Z" fill="#121212"/>
<path d="M701.364 222.683L834.016 253.697L619.011 332.28L507.695 296.955L701.364 222.683Z" fill="#121212"/>
</g>
</mask>
<g mask="url(#mask0_6414_56387)">
<path d="M850.562 253.002L671.734 229.35L584.234 369.35L724.562 445.002L850.562 253.002Z" fill="#FBFBFB"/>
</g>
</g>
<g opacity="0.9">
<g filter="url(#filter3_d_6414_56387)">
<rect x="139.762" y="-11.707" width="150" height="1416" transform="rotate(-33.2063 139.762 -11.707)" fill="#7512FF"/>
</g>
<g clip-path="url(#clip3_6414_56387)">
<path d="M345.365 148.463L339.005 135.915L363.952 123.285L368.625 137.943L345.365 148.463Z" fill="#FBFBFB"/>
<path d="M322.572 143.768L334.95 137.646L314.498 113.457L304.723 125.366L322.572 143.768Z" fill="#FBFBFB"/>
<path d="M305.095 125.796L300.805 112.355L339.141 85.9002L348.243 96.0163L305.095 125.796Z" fill="#FBFBFB"/>
<path d="M325.223 100.62L342.682 98.9886L375.991 126.596L368.57 137.978L325.223 100.62Z" fill="#FBFBFB"/>
<path d="M376.737 198.92L390.014 193.662L408.424 208.322L400.359 219.161L376.737 198.92Z" fill="#FBFBFB"/>
<path d="M378.534 232.154L394.616 229.068L367.459 194.604L357.684 206.514L378.534 232.154Z" fill="#FBFBFB"/>
<path d="M358.052 206.943L353.763 193.503L392.098 167.048L401.201 177.164L358.052 206.943Z" fill="#FBFBFB"/>
<path d="M392.22 239.462L378.532 232.155L418.162 204.855L427.282 214.975L392.22 239.462Z" fill="#FBFBFB"/>
<path d="M430.075 235.258L419.228 244.171L436.999 265.817L447.153 254.301L430.075 235.258Z" fill="#FBFBFB"/>
<path d="M372.243 284.094L387.57 292.653L449.354 267.669L447.113 254.236L372.243 284.094Z" fill="#FBFBFB"/>
<path d="M450.669 266.811L439.822 275.723L457.592 297.369L467.747 285.854L450.669 266.811Z" fill="#FBFBFB"/>
<path d="M392.833 315.647L408.16 324.205L469.937 299.211L467.702 285.789L392.833 315.647Z" fill="#FBFBFB"/>
<path d="M363.718 266.527L311.358 201.319L322.446 196.466L372.977 260.484L363.718 266.527Z" fill="#FBFBFB"/>
<path d="M345.354 232.388L340.771 220.086L356.817 217.527L362.316 229.69L345.354 232.388Z" fill="#FBFBFB"/>
<path d="M312.5 188.046L260.147 122.849L271.235 117.996L321.76 182.004L312.5 188.046Z" fill="#FBFBFB"/>
<path d="M294.136 153.907L289.553 141.605L305.606 139.058L311.104 151.22L294.136 153.907Z" fill="#FBFBFB"/>
<path d="M488.985 302.089L406.051 346.407L414.47 355.197L495.041 311.368L488.985 302.089Z" fill="#FBFBFB"/>
<path d="M469.508 329.971L454.315 331.804L467.968 347.842L475.895 337.795L469.508 329.971Z" fill="#FBFBFB"/>
</g>
<g clip-path="url(#clip4_6414_56387)">
<path d="M733.697 790.815L730.91 775.748L771.64 719.278L779.541 727.252L733.697 790.815Z" fill="#FBFBFB"/>
<path d="M756.299 746.44L773.729 734.315L803.659 751.222L795.098 770.317L756.299 746.44Z" fill="#FBFBFB"/>
<path d="M728.246 685.457L752.876 677.86L707.636 599.503L652.574 654.866L695.598 729.387L720.228 721.79L711.928 707.414L736.546 699.833L728.246 685.457Z" fill="#FBFBFB"/>
<path d="M691.858 673.136L645.235 735.872L622.526 630.297L668.743 577.933L691.858 673.136Z" fill="#FBFBFB"/>
</g>
<path d="M539.395 390.584L526.604 371.556L529.18 369.824L541.971 388.853L539.395 390.584ZM535.656 381.615L533.498 378.404L537.571 375.666L539.729 378.877L535.656 381.615ZM542.099 385.637L532.283 371.034L534.836 369.317L544.652 383.921L542.099 385.637ZM546.705 382.392L539.139 371.136L535.326 373.699L533.145 370.454L539.488 366.19L549.235 380.692L546.705 382.392ZM532.084 381.595C533.106 383.115 533.836 384.519 534.273 385.807C534.71 387.094 534.827 388.224 534.623 389.196C534.427 390.162 533.913 390.925 533.081 391.484C532.279 392.023 531.397 392.198 530.436 392.01C529.475 391.821 528.474 391.28 527.434 390.387C526.4 389.501 525.374 388.302 524.357 386.789C523.34 385.276 522.611 383.866 522.172 382.558C521.737 381.258 521.609 380.119 521.787 379.143C521.97 378.174 522.463 377.42 523.265 376.881C524.097 376.322 525 376.137 525.974 376.328C526.961 376.522 527.97 377.068 529.002 377.966C530.035 378.865 531.062 380.074 532.084 381.595ZM529.61 383.258C528.995 382.342 528.44 381.623 527.945 381.099C527.45 380.575 527 380.24 526.595 380.095C526.19 379.95 525.825 379.987 525.5 380.205C525.182 380.419 525.018 380.738 525.007 381.163C525.003 381.583 525.148 382.117 525.441 382.765C525.747 383.416 526.21 384.203 526.83 385.126C527.446 386.041 527.994 386.76 528.477 387.281C528.967 387.798 529.41 388.131 529.808 388.281C530.205 388.431 530.559 388.402 530.869 388.194C531.194 387.975 531.366 387.651 531.385 387.221C531.403 386.791 531.264 386.248 530.965 385.592C530.667 384.936 530.215 384.158 529.61 383.258ZM554.719 389.953C555.441 391.027 555.776 392.187 555.722 393.43C555.674 394.682 555.249 395.929 554.447 397.17C553.646 398.412 552.496 399.536 550.998 400.543C549.485 401.56 548.002 402.205 546.55 402.479C545.097 402.752 543.783 402.675 542.605 402.247C541.428 401.82 540.481 401.072 539.764 400.006C539.042 398.932 538.703 397.765 538.746 396.506C538.795 395.254 539.222 394.011 540.029 392.777C540.836 391.543 541.995 390.418 543.508 389.401C545.006 388.394 546.479 387.75 547.926 387.469C549.374 387.188 550.686 387.261 551.863 387.689C553.045 388.124 553.997 388.879 554.719 389.953ZM551.758 391.944C551.453 391.457 551.002 391.145 550.404 391.009C549.812 390.88 549.114 390.943 548.308 391.199C547.503 391.455 546.612 391.91 545.636 392.566C544.653 393.227 543.887 393.885 543.338 394.539C542.797 395.189 542.479 395.809 542.382 396.401C542.299 396.995 542.417 397.531 542.737 398.007C543.073 398.507 543.529 398.826 544.106 398.965C544.696 399.107 545.39 399.046 546.191 398.783C547.004 398.522 547.902 398.061 548.885 397.4C549.869 396.739 550.631 396.084 551.172 395.435C551.726 394.788 552.048 394.165 552.139 393.565C552.236 392.974 552.109 392.433 551.758 391.944ZM542.646 413.9L540.442 410.621L561.274 396.617L563.479 399.897L542.646 413.9ZM555.034 409.856L552.57 406.191L555.282 404.368L557.746 408.033L555.034 409.856ZM556.768 435.031L554.579 431.775L575.468 417.734L577.657 420.99L556.768 435.031ZM554.487 415.462C555.801 417.434 557.026 419.159 558.162 420.636C559.302 422.12 560.534 423.56 561.856 424.956L559.414 427.009C558.107 425.669 556.872 424.248 555.709 422.746C554.553 421.239 553.253 419.411 551.809 417.262L550.527 415.356L553.205 413.556L554.487 415.462ZM563.37 421.154L558.962 414.596L554.468 417.616L552.195 414.235L559.242 409.499L563.681 416.102L566.722 414.058L562.275 407.443L564.896 405.681L571.585 415.632L563.37 421.154ZM582.523 439.992C580.813 441.141 579.054 442.005 577.246 442.583C575.444 443.169 573.659 443.413 571.891 443.316C570.131 443.214 568.513 442.71 567.036 441.803L568.368 438.222C569.661 439.033 571.032 439.506 572.484 439.64C573.948 439.776 575.381 439.636 576.782 439.221C578.191 438.801 579.512 438.177 580.745 437.348L582.833 435.945L584.61 438.589L582.523 439.992ZM582.988 440.684C581.815 441.472 580.8 442.413 579.942 443.505C579.097 444.601 578.482 445.827 578.098 447.183C577.727 448.542 577.692 449.96 577.993 451.438L574.258 451.395C573.925 449.675 574.017 447.999 574.534 446.366C575.057 444.741 575.897 443.238 577.054 441.856C578.212 440.473 579.615 439.228 581.264 438.12L583.352 436.716L585.076 439.281L582.988 440.684ZM586.6 444.318L578.691 432.552L581.346 430.767L589.255 442.533L586.6 444.318ZM573.818 460.274L571.583 456.949L592.416 442.946L594.65 446.271L573.818 460.274ZM586.864 467.747L584.66 464.468L589.232 461.395L591.436 464.674L586.864 467.747ZM592.595 477.205L590.399 473.938L606.091 463.389L608.288 466.657L592.595 477.205ZM588.116 480.859L577.522 465.098L580.143 463.336L590.737 479.097L588.116 480.859ZM581.666 467.073L579.462 463.794L583.797 460.881L586.001 464.16L581.666 467.073ZM587.202 454.918C589.156 457.744 590.857 460.16 592.303 462.164C593.762 464.171 595.255 466.05 596.784 467.801L594.561 469.542C592.868 467.759 591.221 465.807 589.62 463.687C588.025 461.575 586.448 459.351 584.889 457.016L587.202 454.918ZM592.366 473.653L589.277 469.058L591.478 467.578L594.567 472.174L592.366 473.653ZM600.17 456.002C600.844 456.988 601.285 457.988 601.494 459.001C601.715 460.016 601.688 460.94 601.413 461.773C601.146 462.601 600.649 463.258 599.923 463.747C599.189 464.24 598.393 464.451 597.533 464.381C596.681 464.306 595.832 463.976 594.988 463.39C594.149 462.812 593.392 462.02 592.716 461.013C592.029 459.992 591.574 458.98 591.35 457.978C591.127 456.975 591.141 456.065 591.393 455.247C591.653 454.425 592.15 453.767 592.883 453.273C593.61 452.785 594.41 452.571 595.285 452.631C596.167 452.686 597.031 453.006 597.875 453.592C598.726 454.173 599.492 454.976 600.17 456.002ZM597.799 457.597C597.509 457.165 597.199 456.819 596.87 456.557C596.553 456.298 596.23 456.153 595.901 456.121C595.572 456.09 595.261 456.173 594.966 456.371C594.678 456.564 594.487 456.819 594.392 457.136C594.305 457.447 594.317 457.801 594.43 458.197C594.556 458.596 594.763 459.011 595.053 459.442C595.333 459.858 595.628 460.192 595.94 460.444C596.26 460.69 596.58 460.832 596.901 460.869C597.235 460.908 597.546 460.831 597.833 460.638C598.128 460.439 598.321 460.178 598.41 459.854C598.5 459.53 598.488 459.176 598.372 458.793C598.27 458.411 598.079 458.013 597.799 457.597ZM608.197 497.672L595.407 478.643L597.96 476.927L610.75 495.956L608.197 497.672ZM596.478 493.985L594.304 490.751L601.952 485.611L604.125 488.844L596.478 493.985ZM610.452 476.322L615.959 484.515L618.182 483.02L620.379 486.288L611.12 492.511L601.258 477.84L610.517 471.616L612.676 474.827L610.452 476.322ZM611.522 487.497L613.405 486.231L607.899 478.038L606.015 479.304L611.522 487.497ZM614.367 520.722L612.186 517.477L633.075 503.436L635.257 506.681L614.367 520.722ZM623.531 510.411L620.984 506.621L623.582 504.875L626.129 508.665L623.531 510.411ZM611.527 500.787C612.755 502.631 613.861 504.21 614.844 505.526C615.84 506.844 616.902 508.13 618.029 509.382L615.64 511.465C614.47 510.165 613.36 508.824 612.311 507.443C611.274 506.064 610.128 504.441 608.872 502.572L607.743 500.893L610.398 499.108L611.527 500.787ZM626.231 502.616L621.876 496.137L611.778 502.925L609.581 499.657L622.301 491.107L628.853 500.854L626.231 502.616ZM620.032 505.745L615.677 499.266L618.23 497.55L622.585 504.029L620.032 505.745ZM497.385 404.77C498.417 406.306 499.152 407.734 499.589 409.054C500.032 410.382 500.157 411.55 499.967 412.557C499.781 413.571 499.268 414.361 498.429 414.925C497.619 415.469 496.713 415.633 495.712 415.417C494.707 415.213 493.667 414.655 492.592 413.741C491.522 412.835 490.476 411.622 489.454 410.102C488.447 408.604 487.726 407.188 487.291 405.855C486.856 404.522 486.729 403.345 486.91 402.323C487.088 401.313 487.582 400.537 488.391 399.993C489.223 399.433 490.142 399.255 491.146 399.459C492.163 399.665 493.203 400.223 494.266 401.134C495.333 402.053 496.373 403.265 497.385 404.77ZM494.98 406.387C494.369 405.48 493.795 404.756 493.257 404.217C492.727 403.673 492.235 403.317 491.782 403.15C491.341 402.985 490.943 403.022 490.588 403.261C490.255 403.484 490.086 403.829 490.08 404.294C490.079 404.767 490.234 405.349 490.545 406.04C490.856 406.732 491.317 407.531 491.927 408.439C492.548 409.362 493.119 410.098 493.642 410.647C494.17 411.204 494.653 411.571 495.091 411.749C495.536 411.921 495.922 411.898 496.247 411.68C496.603 411.441 496.785 411.082 496.793 410.605C496.809 410.122 496.662 409.528 496.354 408.824C496.058 408.122 495.6 407.31 494.98 406.387ZM510.883 404.412L501.997 391.193L504.55 389.477L513.436 402.696L510.883 404.412ZM504.942 413.611L492.243 394.719L494.875 392.949L507.574 411.841L504.942 413.611ZM500.948 403.479L498.775 400.245L502.996 397.408L505.169 400.642L500.948 403.479ZM512.683 405.228C511.564 405.98 510.565 406.602 509.687 407.094C508.822 407.587 507.821 408.018 506.685 408.387L504.825 404.958C505.949 404.555 506.895 404.133 507.665 403.692C508.439 403.26 509.377 402.678 510.479 401.949L512.17 400.812L514.374 404.091L512.683 405.228ZM522.527 426.023L518.408 419.896L521.018 418.142L525.136 424.269L522.527 426.023ZM517.477 429.417L513.359 423.29L515.957 421.543L520.076 427.671L517.477 429.417ZM514.164 434.659L511.983 431.414L527.142 421.224L529.323 424.469L514.164 434.659ZM509.174 438.705L499.473 424.272L502.094 422.51L511.795 436.943L509.174 438.705ZM502.906 426.708L500.71 423.441L506.292 419.688L508.489 422.956L502.906 426.708ZM520.223 413.454C520.909 414.475 521.294 415.562 521.376 416.715C521.472 417.87 521.271 418.976 520.775 420.035C520.283 421.101 519.519 421.982 518.483 422.679C517.47 423.36 516.376 423.727 515.204 423.78C514.043 423.835 512.94 423.599 511.894 423.072C510.853 422.553 509.995 421.79 509.318 420.784C508.617 419.74 508.217 418.63 508.119 417.455C508.026 416.288 508.227 415.181 508.721 414.135C509.227 413.092 509.987 412.229 511.001 411.548C512.037 410.851 513.134 410.465 514.292 410.39C515.462 410.317 516.566 410.547 517.605 411.079C518.648 411.619 519.521 412.41 520.223 413.454ZM517.318 415.407C517.008 414.912 516.623 414.545 516.165 414.304C515.714 414.058 515.221 413.961 514.685 414.014C514.149 414.066 513.613 414.273 513.076 414.634C512.546 414.99 512.163 415.401 511.928 415.867C511.692 416.333 511.603 416.821 511.66 417.332C511.718 417.842 511.902 418.345 512.212 418.839C512.532 419.283 512.915 419.624 513.361 419.862C513.812 420.108 514.295 420.206 514.811 420.156C515.339 420.109 515.864 419.909 516.386 419.559C516.923 419.198 517.317 418.779 517.568 418.303C517.824 417.834 517.923 417.345 517.866 416.834C517.821 416.326 517.638 415.85 517.318 415.407ZM535.285 448.582L533.012 445.201L535.622 443.447L537.895 446.828L535.285 448.582ZM528.795 452.945L526.522 449.563L529.166 447.786L531.439 451.168L528.795 452.945ZM525.865 464.222L523.767 461.101L544.6 447.098L546.697 450.219L525.865 464.222ZM523.893 459.304L521.834 456.24L541.464 443.045L543.523 446.109L523.893 459.304ZM536.264 437.76C536.894 438.698 537.137 439.721 536.992 440.829C536.847 441.937 536.327 443.066 535.432 444.217C534.541 445.376 533.317 446.479 531.758 447.526C530.2 448.574 528.713 449.293 527.296 449.686C525.892 450.08 524.646 450.138 523.558 449.859C522.47 449.58 521.603 448.977 520.957 448.049C520.357 447.123 520.136 446.108 520.293 445.003C520.451 443.897 520.98 442.773 521.881 441.629C522.789 440.481 524.022 439.383 525.581 438.335C527.154 437.278 528.636 436.55 530.028 436.153C531.419 435.756 532.653 435.696 533.728 435.972C534.808 436.256 535.654 436.852 536.264 437.76ZM533.166 439.842C532.948 439.484 532.597 439.297 532.114 439.281C531.631 439.265 531.012 439.423 530.258 439.755C529.511 440.081 528.615 440.595 527.571 441.297C526.535 441.993 525.721 442.629 525.129 443.202C524.537 443.776 524.157 444.289 523.99 444.742C523.829 445.19 523.866 445.588 524.1 445.936C524.344 446.299 524.707 446.495 525.187 446.524C525.675 446.547 526.301 446.401 527.066 446.084C527.838 445.763 528.739 445.256 529.768 444.565C530.797 443.873 531.602 443.233 532.184 442.644C532.765 442.056 533.135 441.527 533.292 441.059C533.462 440.593 533.42 440.188 533.166 439.842ZM539.365 484.305L537.267 481.185L558.1 467.182L560.197 470.302L539.365 484.305ZM548.253 475.251L546.003 471.903L548.646 470.126L550.896 473.474L548.253 475.251ZM537.141 479.013L535.075 475.938L554.704 462.743L556.771 465.818L537.141 479.013ZM538.285 471.671L532.649 463.286L546.288 454.118L551.924 462.503L538.285 471.671ZM537.254 464.622L538.787 466.903L547.308 461.175L545.775 458.894L537.254 464.622ZM551.949 503.028L549.737 499.737L570.57 485.734L572.782 489.024L551.949 503.028ZM563.821 498.853L561.373 495.211L564.051 493.411L566.499 497.053L563.821 498.853ZM563.552 479.875C561.26 481.416 559.268 482.612 557.578 483.463C555.892 484.321 554.13 484.934 552.291 485.303C550.452 485.671 548.473 485.7 546.354 485.39L546.472 481.62C548.323 481.891 550.004 481.893 551.515 481.624C553.031 481.363 554.495 480.878 555.908 480.17C557.326 479.469 559.049 478.438 561.076 477.075L561.485 476.801L563.552 479.875ZM559.695 479.848L557.079 475.957L559.723 474.179L562.339 478.071L559.695 479.848ZM567.449 485.674C565.059 487.28 562.938 488.569 561.086 489.539C559.234 490.509 557.305 491.235 555.3 491.715C553.3 492.203 551.192 492.351 548.977 492.16L549.095 488.39C551.052 488.524 552.858 488.409 554.512 488.044C556.167 487.678 557.794 487.084 559.393 486.262C561.001 485.434 562.878 484.298 565.027 482.854L565.39 482.61L567.449 485.674ZM563.646 485.726L561.396 482.379L564.04 480.602L566.29 483.949L563.646 485.726ZM574.665 503.59C572.955 504.739 571.197 505.602 569.389 506.181C567.586 506.766 565.801 507.011 564.034 506.914C562.274 506.812 560.655 506.307 559.178 505.4L560.511 501.82C561.803 502.631 563.175 503.104 564.626 503.237C566.091 503.373 567.523 503.234 568.925 502.819C570.334 502.399 571.655 501.775 572.888 500.946L574.976 499.542L576.753 502.186L574.665 503.59ZM575.13 504.282C573.958 505.07 572.943 506.01 572.085 507.103C571.239 508.198 570.625 509.424 570.241 510.781C569.869 512.14 569.834 513.558 570.136 515.036L566.4 514.993C566.068 513.273 566.16 511.596 566.677 509.964C567.199 508.339 568.039 506.835 569.197 505.453C570.354 504.071 571.757 502.826 573.407 501.717L575.494 500.314L577.218 502.878L575.13 504.282ZM578.743 507.916L570.833 496.149L573.489 494.365L581.398 506.131L578.743 507.916ZM565.96 523.872L563.725 520.547L584.558 506.544L586.793 509.868L565.96 523.872ZM464.742 437.206L462.538 433.926L478.061 423.493L480.265 426.772L464.742 437.206ZM473.196 435.444L470.762 431.825L473.429 430.032L475.862 433.652L473.196 435.444ZM472.783 425.591L464.492 413.257L467.034 411.548L475.324 423.882L472.783 425.591ZM468.047 419.845C468.719 420.843 469.145 421.853 469.325 422.874C469.514 423.889 469.443 424.821 469.112 425.669C468.787 426.525 468.223 427.222 467.422 427.761C466.635 428.29 465.791 428.538 464.891 428.506C463.996 428.482 463.114 428.191 462.245 427.633C461.383 427.07 460.617 426.289 459.946 425.291C459.264 424.277 458.823 423.261 458.622 422.243C458.434 421.228 458.492 420.293 458.797 419.44C459.108 418.595 459.656 417.908 460.443 417.379C461.245 416.84 462.103 416.581 463.018 416.603C463.939 416.632 464.833 416.926 465.703 417.484C466.584 418.044 467.366 418.831 468.047 419.845ZM465.54 421.531C465.27 421.13 464.975 420.812 464.653 420.578C464.331 420.344 463.993 420.226 463.639 420.222C463.29 420.226 462.942 420.345 462.594 420.579C462.268 420.797 462.042 421.065 461.914 421.381C461.791 421.705 461.774 422.063 461.861 422.455C461.956 422.841 462.139 423.235 462.408 423.636C462.688 424.052 462.986 424.373 463.303 424.599C463.632 424.828 463.973 424.95 464.324 424.967C464.676 424.983 465.014 424.882 465.339 424.663C465.687 424.429 465.924 424.144 466.049 423.808C466.174 423.471 466.189 423.109 466.094 422.723C466.004 422.344 465.819 421.947 465.54 421.531ZM471.052 420.198L468.848 416.918L472.184 414.676L474.388 417.955L471.052 420.198ZM460.253 441.212L450.612 426.869L453.233 425.108L462.874 439.45L460.253 441.212ZM454.314 429.142L452.11 425.863L456.74 422.751L458.944 426.03L454.314 429.142ZM484.785 450.799L481.277 445.58L483.886 443.825L487.395 449.045L484.785 450.799ZM479.137 458.204L476.956 454.958L492.285 444.654L494.466 447.899L479.137 458.204ZM474.287 462.09L464.593 447.668L467.214 445.906L476.908 460.328L474.287 462.09ZM467.909 450.249L465.682 446.936L471.265 443.183L473.492 446.497L467.909 450.249ZM481.01 437.341L483.382 440.87L486.412 438.833L488.593 442.078L477.814 449.324L471.041 439.248L481.82 432.003L484.04 435.304L481.01 437.341ZM478.185 444.363L480.92 442.525L478.548 438.996L475.813 440.834L478.185 444.363ZM493.829 468.837L491.602 465.524L494.189 463.785L496.416 467.098L493.829 468.837ZM487.499 482.432L485.402 479.312L506.234 465.309L508.332 468.429L487.499 482.432ZM485.474 477.435L483.407 474.36L503.037 461.165L505.104 464.24L485.474 477.435ZM497.898 455.971C498.529 456.909 498.772 457.932 498.627 459.039C498.482 460.147 497.962 461.277 497.066 462.428C496.175 463.586 494.951 464.689 493.393 465.737C491.835 466.784 490.347 467.504 488.93 467.896C487.526 468.291 486.28 468.349 485.192 468.07C484.104 467.791 483.237 467.187 482.592 466.26C481.991 465.334 481.77 464.319 481.928 463.213C482.085 462.108 482.614 460.984 483.515 459.84C484.423 458.692 485.657 457.594 487.215 456.546C488.788 455.488 490.271 454.761 491.662 454.364C493.054 453.967 494.287 453.907 495.362 454.183C496.443 454.467 497.288 455.063 497.898 455.971ZM494.801 458.053C494.592 457.71 494.243 457.533 493.752 457.522C493.274 457.514 492.661 457.679 491.911 458.018C491.162 458.357 490.272 458.873 489.244 459.564C488.215 460.256 487.398 460.887 486.794 461.458C486.197 462.024 485.812 462.53 485.639 462.976C485.479 463.424 485.511 463.814 485.735 464.147C485.974 464.502 486.331 464.691 486.806 464.712C487.294 464.735 487.918 464.585 488.678 464.261C489.445 463.932 490.343 463.422 491.372 462.73C492.4 462.039 493.208 461.402 493.795 460.821C494.382 460.24 494.756 459.719 494.919 459.258C495.094 458.8 495.055 458.398 494.801 458.053ZM499.239 484.409L497.073 481.186L508.263 473.154L510.909 477.092L499.239 484.409ZM492.925 486.314C492.676 485.943 492.539 485.535 492.515 485.09C492.49 484.646 492.572 484.228 492.76 483.838C492.961 483.451 493.247 483.132 493.617 482.883C493.973 482.644 494.364 482.507 494.791 482.473C495.231 482.441 495.648 482.523 496.044 482.718C496.439 482.914 496.761 483.197 497.01 483.568C497.254 483.931 497.389 484.329 497.416 484.761C497.448 485.201 497.369 485.622 497.178 486.024C496.995 486.422 496.726 486.74 496.371 486.979C496 487.228 495.592 487.365 495.147 487.39C494.71 487.409 494.29 487.323 493.888 487.133C493.49 486.95 493.169 486.677 492.925 486.314Z" fill="#FBFBFB"/>
</g>
<rect y="-1" width="1280" height="28" fill="url(#paint1_linear_6414_56387)"/>
<rect x="1268" y="744" width="1280" height="28.0001" transform="rotate(180 1268 744)" fill="url(#paint2_linear_6414_56387)"/>
<g clip-path="url(#clip5_6414_56387)">
<path d="M1080.85 305.215L1072.16 318.224L1046.2 300.895L1057.87 288.362L1080.85 305.215Z" fill="#FBFBFB"/>
<path d="M1088.81 329.88L1076.07 321.204L1063.8 354.244L1080.73 357.241L1088.81 329.88Z" fill="#FBFBFB"/>
<path d="M1080.95 356.633L1070.26 368.119L1023.53 345.33L1028.35 330.985L1080.95 356.633Z" fill="#FBFBFB"/>
<path d="M1045.45 350.829L1034.29 334.763L1042.81 287.396L1057.93 288.396L1045.45 350.829Z" fill="#FBFBFB"/>
<path d="M1112.61 247.263L1100.22 237.243L1104.34 211.39L1119.29 213.323L1112.61 247.263Z" fill="#FBFBFB"/>
<path d="M1143.9 227.415L1132.07 213.489L1113.51 258.635L1130.44 261.632L1143.9 227.415Z" fill="#FBFBFB"/>
<path d="M1130.66 261.024L1119.97 272.51L1073.24 249.722L1078.06 235.376L1130.66 261.024Z" fill="#FBFBFB"/>
<path d="M1143.47 210.15L1143.89 227.415L1095.63 203.831L1100.44 189.479L1143.47 210.15Z" fill="#FBFBFB"/>
<path d="M1118.6 175.716L1133.21 181.386L1144.48 152.334L1127.72 148.755L1118.6 175.716Z" fill="#FBFBFB"/>
<path d="M1197.78 205.22L1197.67 185.682L1139.49 139.349L1127.68 148.831L1197.78 205.22Z" fill="#FBFBFB"/>
<path d="M1137.93 138.54L1152.54 144.211L1163.8 115.159L1147.05 111.579L1137.93 138.54Z" fill="#FBFBFB"/>
<path d="M1217.1 168.044L1216.99 148.506L1158.81 102.173L1147.01 111.655L1217.1 168.044Z" fill="#FBFBFB"/>
<path d="M1185.4 223.063L1150.84 309.404L1140.04 301.289L1174.45 217.37L1185.4 223.063Z" fill="#FBFBFB"/>
<path d="M1162.33 259.483L1152.9 270.646L1141.61 256.455L1150.4 244.492L1162.33 259.483Z" fill="#FBFBFB"/>
<path d="M1137.32 315.528L1102.77 401.858L1091.96 393.754L1126.37 309.835L1137.32 315.528Z" fill="#FBFBFB"/>
<path d="M1114.26 351.949L1104.83 363.099L1093.54 348.908L1102.33 336.958L1114.26 351.949Z" fill="#FBFBFB"/>
<path d="M1151.15 82.1224L1239.71 138.459L1243.62 125.5L1156.83 71.1906L1151.15 82.1224Z" fill="#FBFBFB"/>
<path d="M1188.91 85.8441L1199.03 99.5762L1207.1 77.601L1193 75.37L1188.91 85.8441Z" fill="#FBFBFB"/>
<path d="M1004.35 418.889L995.577 391.187L943.959 490.47L991.74 532.277L1040.83 437.855L1032.06 410.153L1022.59 428.368L1013.82 400.673L1004.35 418.889Z" fill="#FBFBFB"/>
<path d="M1000.04 472.162L1052.14 499.246L977.617 583.816L933.185 551.816L1000.04 472.162Z" fill="#FBFBFB"/>
</g>
</g>
<defs>
<filter id="filter0_d_6414_56387" x="660.234" y="217.348" width="392.5" height="431.5" filterUnits="userSpaceOnUse" color-interpolation-filters="sRGB">
<feFlood flood-opacity="0" result="BackgroundImageFix"/>
<feColorMatrix in="SourceAlpha" type="matrix" values="0 0 0 0 0 0 0 0 0 0 0 0 0 0 0 0 0 0 127 0" result="hardAlpha"/>
<feOffset dx="8" dy="8"/>
<feGaussianBlur stdDeviation="10"/>
<feComposite in2="hardAlpha" operator="out"/>
<feColorMatrix type="matrix" values="0 0 0 0 0 0 0 0 0 0 0 0 0 0 0 0 0 0 0.45 0"/>
<feBlend mode="normal" in2="BackgroundImageFix" result="effect1_dropShadow_6414_56387"/>
<feBlend mode="normal" in="SourceGraphic" in2="effect1_dropShadow_6414_56387" result="shape"/>
</filter>
<filter id="filter1_d_6414_56387" x="841.734" y="-245.651" width="607" height="894.5" filterUnits="userSpaceOnUse" color-interpolation-filters="sRGB">
<feFlood flood-opacity="0" result="BackgroundImageFix"/>
<feColorMatrix in="SourceAlpha" type="matrix" values="0 0 0 0 0 0 0 0 0 0 0 0 0 0 0 0 0 0 127 0" result="hardAlpha"/>
<feOffset dx="8" dy="8"/>
<feGaussianBlur stdDeviation="10"/>
<feComposite in2="hardAlpha" operator="out"/>
<feColorMatrix type="matrix" values="0 0 0 0 0 0 0 0 0 0 0 0 0 0 0 0 0 0 0.45 0"/>
<feBlend mode="normal" in2="BackgroundImageFix" result="effect1_dropShadow_6414_56387"/>
<feBlend mode="normal" in="SourceGraphic" in2="effect1_dropShadow_6414_56387" result="shape"/>
</filter>
<filter id="filter2_d_6414_56387" x="202.449" y="217.349" width="673.781" height="853.169" filterUnits="userSpaceOnUse" color-interpolation-filters="sRGB">
<feFlood flood-opacity="0" result="BackgroundImageFix"/>
<feColorMatrix in="SourceAlpha" type="matrix" values="0 0 0 0 0 0 0 0 0 0 0 0 0 0 0 0 0 0 127 0" result="hardAlpha"/>
<feOffset dx="8" dy="8"/>
<feGaussianBlur stdDeviation="10"/>
<feComposite in2="hardAlpha" operator="out"/>
<feColorMatrix type="matrix" values="0 0 0 0 0 0 0 0 0 0 0 0 0 0 0 0 0 0 0.45 0"/>
<feBlend mode="normal" in2="BackgroundImageFix" result="effect1_dropShadow_6414_56387"/>
<feBlend mode="normal" in="SourceGraphic" in2="effect1_dropShadow_6414_56387" result="shape"/>
</filter>
<filter id="filter3_d_6414_56387" x="127.762" y="-105.855" width="940.984" height="1306.92" filterUnits="userSpaceOnUse" color-interpolation-filters="sRGB">
<feFlood flood-opacity="0" result="BackgroundImageFix"/>
<feColorMatrix in="SourceAlpha" type="matrix" values="0 0 0 0 0 0 0 0 0 0 0 0 0 0 0 0 0 0 127 0" result="hardAlpha"/>
<feOffset dx="8" dy="8"/>
<feGaussianBlur stdDeviation="10"/>
<feComposite in2="hardAlpha" operator="out"/>
<feColorMatrix type="matrix" values="0 0 0 0 0 0 0 0 0 0 0 0 0 0 0 0 0 0 0.45 0"/>
<feBlend mode="normal" in2="BackgroundImageFix" result="effect1_dropShadow_6414_56387"/>
<feBlend mode="normal" in="SourceGraphic" in2="effect1_dropShadow_6414_56387" result="shape"/>
</filter>
<linearGradient id="paint0_linear_6414_56387" x1="640" y1="0" x2="640" y2="744" gradientUnits="userSpaceOnUse">
<stop stop-color="#DFDFDF"/>
<stop offset="1" stop-color="#F9F9F9"/>
</linearGradient>
<linearGradient id="paint1_linear_6414_56387" x1="640" y1="-1" x2="640" y2="27" gradientUnits="userSpaceOnUse">
<stop stop-color="#FBFBFB"/>
<stop offset="1" stop-color="#FBFBFB" stop-opacity="0"/>
</linearGradient>
<linearGradient id="paint2_linear_6414_56387" x1="1908" y1="744" x2="1908" y2="772" gradientUnits="userSpaceOnUse">
<stop stop-color="#FBFBFB"/>
<stop offset="1" stop-color="#FBFBFB" stop-opacity="0"/>
</linearGradient>
<clipPath id="clip0_6414_56387">
<rect width="1280" height="744" fill="white"/>
</clipPath>
<clipPath id="clip1_6414_56387">
<rect width="302" height="94.9632" fill="white" transform="translate(335.734 806.344) rotate(-56.9013)"/>
</clipPath>
<clipPath id="clip2_6414_56387">
<rect width="911.318" height="245.939" fill="white" transform="matrix(0.855915 -0.517116 0.973741 0.22766 440.77 290.607)"/>
</clipPath>
<clipPath id="clip3_6414_56387">
<rect width="302" height="94.9632" fill="white" transform="translate(339.672 70.9473) rotate(56.8701)"/>
</clipPath>
<clipPath id="clip4_6414_56387">
<rect width="448.759" height="141.111" fill="white" transform="matrix(0.5 0.866025 -0.596488 0.802622 685.172 546)"/>
</clipPath>
<clipPath id="clip5_6414_56387">
<rect width="555" height="106" fill="white" transform="translate(907.617 547.424) rotate(-62.5296)"/>
</clipPath>
</defs>
</svg>
