<svg width="26" height="103" viewBox="0 0 26 103" fill="none" xmlns="http://www.w3.org/2000/svg">
<path d="M14 97.3333C12.5272 97.3333 11.3333 98.5272 11.3333 100C11.3333 101.473 12.5272 102.667 14 102.667C15.4728 102.667 16.6667 101.473 16.6667 100C16.6667 98.5272 15.4728 97.3333 14 97.3333ZM14 42L13.5 42L13.5 100L14 100L14.5 100L14.5 42L14 42Z" fill="#3E3E3E"/>
<path d="M3.98535 8.68164C3.9209 8.42383 3.7902 8.2251 3.59326 8.08545C3.39632 7.9458 3.13314 7.87598 2.80371 7.87598C2.56738 7.87598 2.35612 7.91357 2.16992 7.98877C1.98372 8.06396 1.83691 8.1696 1.72949 8.30566C1.62207 8.44173 1.56836 8.59212 1.56836 8.75684C1.56836 8.9502 1.65072 9.11491 1.81543 9.25098C1.98014 9.38704 2.23079 9.49447 2.56738 9.57324L3.4375 9.78809C3.96029 9.90983 4.35059 10.1014 4.6084 10.3628C4.86621 10.6242 4.99512 10.959 4.99512 11.3672C4.99512 11.7038 4.9056 12.0046 4.72656 12.2695C4.54753 12.5345 4.28613 12.7422 3.94238 12.8926C3.59863 13.043 3.18685 13.1182 2.70703 13.1182C2.27018 13.1182 1.89421 13.0555 1.5791 12.9302C1.264 12.8049 1.01156 12.6187 0.821777 12.3716C0.631999 12.1245 0.512044 11.8255 0.461914 11.4746H1.42871C1.486 11.7539 1.61849 11.9634 1.82617 12.103C2.03385 12.2427 2.32031 12.3125 2.68555 12.3125C2.95768 12.3125 3.1958 12.2767 3.3999 12.2051C3.604 12.1335 3.76156 12.0296 3.87256 11.8936C3.98356 11.7575 4.03906 11.5999 4.03906 11.4209C4.03906 11.2132 3.96208 11.0396 3.80811 10.8999C3.65413 10.7603 3.41243 10.6546 3.08301 10.583L2.20215 10.3789C1.69368 10.2572 1.30697 10.062 1.04199 9.79346C0.777018 9.5249 0.644531 9.19727 0.644531 8.81055C0.644531 8.48112 0.73584 8.18571 0.918457 7.92432C1.10107 7.66292 1.35531 7.45882 1.68115 7.31201C2.007 7.1652 2.38118 7.0918 2.80371 7.0918C3.19759 7.0918 3.54492 7.15804 3.8457 7.29053C4.14648 7.42301 4.38639 7.60921 4.56543 7.84912C4.74447 8.08903 4.85189 8.36654 4.8877 8.68164H3.98535ZM8.58301 13.1182C8.0459 13.1182 7.57503 12.9893 7.17041 12.7314C6.76579 12.4736 6.45605 12.1174 6.24121 11.6626C6.02637 11.2078 5.91895 10.6904 5.91895 10.1104C5.91895 9.52311 6.02995 9.00033 6.25195 8.54199C6.47396 8.08366 6.78369 7.72738 7.18115 7.47314C7.57861 7.21891 8.03874 7.0918 8.56152 7.0918C8.97689 7.0918 9.35107 7.16699 9.68408 7.31738C10.0171 7.46777 10.2874 7.68262 10.4951 7.96191C10.7028 8.24121 10.8317 8.56348 10.8818 8.92871H9.95801C9.91504 8.74251 9.83268 8.57243 9.71094 8.41846C9.58919 8.26449 9.43343 8.14095 9.24365 8.04785C9.05387 7.95475 8.83366 7.9082 8.58301 7.9082C8.23926 7.9082 7.93669 7.99772 7.67529 8.17676C7.4139 8.35579 7.2098 8.60824 7.06299 8.93408C6.91618 9.25993 6.84277 9.64128 6.84277 10.0781C6.84277 10.5221 6.91439 10.9106 7.05762 11.2437C7.20085 11.5767 7.40316 11.8345 7.66455 12.0171C7.92594 12.1997 8.2321 12.291 8.58301 12.291C8.81217 12.291 9.02165 12.2516 9.21143 12.1729C9.4012 12.0941 9.56055 11.9777 9.68945 11.8237C9.81836 11.6698 9.90788 11.4889 9.95801 11.2812H10.8818C10.8317 11.6322 10.7064 11.9455 10.5059 12.2212C10.3053 12.4969 10.0404 12.7153 9.71094 12.8765C9.38151 13.0376 9.00553 13.1182 8.58301 13.1182ZM12.0205 7.16699H12.9121V8.05859H12.9766C13.084 7.75781 13.2756 7.5179 13.5513 7.33887C13.827 7.15983 14.1367 7.07031 14.4805 7.07031C14.6595 7.07031 14.8206 7.07747 14.9639 7.0918V8.02637C14.9281 8.01204 14.8529 7.99772 14.7383 7.9834C14.6237 7.96908 14.5127 7.96191 14.4053 7.96191C14.1331 7.96191 13.8861 8.021 13.6641 8.13916C13.4421 8.25732 13.2666 8.42025 13.1377 8.62793C13.0088 8.83561 12.9443 9.06836 12.9443 9.32617V13H12.0205V7.16699ZM18.0576 13.1182C17.5348 13.1182 17.0711 12.9928 16.6665 12.7422C16.2619 12.4915 15.9486 12.1388 15.7266 11.6841C15.5046 11.2293 15.3936 10.7048 15.3936 10.1104C15.3936 9.50879 15.5046 8.98063 15.7266 8.52588C15.9486 8.07113 16.2619 7.71842 16.6665 7.46777C17.0711 7.21712 17.5348 7.0918 18.0576 7.0918C18.5804 7.0918 19.0423 7.21712 19.4434 7.46777C19.8444 7.71842 20.1541 8.07113 20.3726 8.52588C20.591 8.98063 20.7002 9.50879 20.7002 10.1104C20.7002 10.7048 20.591 11.2293 20.3726 11.6841C20.1541 12.1388 19.8444 12.4915 19.4434 12.7422C19.0423 12.9928 18.5804 13.1182 18.0576 13.1182ZM18.0576 12.3018C18.4372 12.3018 18.7559 12.2015 19.0137 12.001C19.2715 11.8005 19.4631 11.5355 19.5884 11.2061C19.7137 10.8766 19.7764 10.5114 19.7764 10.1104C19.7764 9.70931 19.7137 9.34229 19.5884 9.00928C19.4631 8.67627 19.2715 8.40951 19.0137 8.20898C18.7559 8.00846 18.4372 7.9082 18.0576 7.9082C17.6781 7.9082 17.3576 8.00846 17.0962 8.20898C16.8348 8.40951 16.6396 8.67627 16.5107 9.00928C16.3818 9.34229 16.3174 9.70931 16.3174 10.1104C16.3174 10.5114 16.3818 10.8766 16.5107 11.2061C16.6396 11.5355 16.8348 11.8005 17.0962 12.001C17.3576 12.2015 17.6781 12.3018 18.0576 12.3018ZM22.8379 13H21.9141V5.22266H22.8379V13ZM25.2334 13H24.3096V5.22266H25.2334V13Z" fill="#3E3E3E"/>
</svg>
