<svg width="440" height="982" viewBox="0 0 440 982" fill="none" xmlns="http://www.w3.org/2000/svg">
<rect y="128" width="440" height="828" fill="url(#paint0_linear_6235_29650)"/>
<g opacity="0.9" filter="url(#filter0_f_6235_29650)">
<g filter="url(#filter1_d_6235_29650)">
<path d="M302.869 146.549L424.416 201.211L474.272 502.543L353.695 457.93L302.869 146.549Z" fill="#BB2200"/>
</g>
<g filter="url(#filter2_d_6235_29650)">
<path d="M836.527 -59.275L924.807 19.6554L474.273 502.544L353.696 457.932L836.527 -59.275Z" fill="#FF3D12"/>
</g>
<g filter="url(#filter3_d_6235_29650)">
<path d="M-107.13 662.121L-180.594 576.92L302.869 146.55L424.416 201.212L-107.13 662.121Z" fill="#FF3D12"/>
</g>
<g clip-path="url(#clip0_6235_29650)">
<path d="M30.7863 451.074L25.5793 441.714L34.6826 426.592L43.5306 431.531L30.7863 451.074Z" fill="#FBFBFB"/>
<path d="M55.3239 446.494L51.4583 434.836L28.4825 458.396L38.2935 464.502L55.3239 446.494Z" fill="#FBFBFB"/>
<path d="M38.5766 464.184L29.001 468.686L5.5847 442.762L12.2183 435.006L38.5766 464.184Z" fill="#FBFBFB"/>
<path d="M59.4208 435.601L55.3239 446.493L31.1534 419.69L37.788 411.92L59.4208 435.601Z" fill="#FBFBFB"/>
<path d="M52.5983 407.864L60.285 415.059L74.6459 399.731L65.091 393.305L52.5983 407.864Z" fill="#FBFBFB"/>
<path d="M94.561 446.1L99.4286 433.866L74.8168 390.363L65.047 393.341L94.561 446.1Z" fill="#FBFBFB"/>
<path d="M74.0505 389.469L81.7372 396.665L96.0981 381.336L86.5431 374.91L74.0505 389.469Z" fill="#FBFBFB"/>
<path d="M116.013 427.705L120.881 415.472L96.2617 371.975L86.4991 374.947L116.013 427.705Z" fill="#FBFBFB"/>
<path d="M82.3297 454.154L38.9534 499.457L34.2619 491.686L76.932 447.859L82.3297 454.154Z" fill="#FBFBFB"/>
<path d="M58.7368 471.142L50.0366 475.751L46.5672 464.069L55.0745 458.793L58.7368 471.142Z" fill="#FBFBFB"/>
<path d="M28.9728 499.904L-14.3963 545.202L-19.0877 537.431L23.5751 493.609L28.9728 499.904Z" fill="#FBFBFB"/>
<path d="M5.38037 516.892L-3.31982 521.501L-6.78196 509.813L1.72538 504.537L5.38037 516.892Z" fill="#FBFBFB"/>
<path d="M96.5417 357.531L137.596 414.875L143.31 407.755L102.85 352.122L96.5417 357.531Z" fill="#FBFBFB"/>
<path d="M119.177 369.291L122.024 380.409L132.616 368.69L124.371 363.777L119.177 369.291Z" fill="#FBFBFB"/>
</g>
<path d="M174.336 296.558L161.594 308.106L160.031 306.381L172.773 294.834L174.336 296.558ZM168.083 300.302L165.933 302.25L163.461 299.522L165.611 297.574L168.083 300.302ZM170.372 295.086L160.593 303.948L159.044 302.238L168.823 293.376L170.372 295.086ZM167.467 292.017L159.929 298.848L162.243 301.401L160.07 303.37L156.221 299.123L165.931 290.323L167.467 292.017ZM168.453 302.955C169.471 302.032 170.435 301.339 171.343 300.876C172.251 300.412 173.077 300.204 173.82 300.25C174.559 300.291 175.18 300.59 175.685 301.147C176.172 301.684 176.397 302.32 176.361 303.054C176.325 303.787 176.031 304.588 175.481 305.457C174.935 306.32 174.155 307.211 173.142 308.129C172.129 309.047 171.161 309.74 170.238 310.208C169.32 310.671 168.489 310.889 167.745 310.862C167.006 310.83 166.393 310.546 165.907 310.009C165.402 309.452 165.167 308.802 165.204 308.058C165.241 307.305 165.537 306.497 166.093 305.634C166.648 304.77 167.435 303.878 168.453 302.955ZM169.954 304.611C169.341 305.167 168.867 305.656 168.532 306.08C168.196 306.504 167.997 306.874 167.933 307.191C167.869 307.507 167.935 307.774 168.133 307.992C168.326 308.204 168.58 308.292 168.897 308.254C169.208 308.212 169.589 308.046 170.039 307.759C170.489 307.462 171.023 307.033 171.641 306.473C172.254 305.917 172.728 305.433 173.063 305.018C173.393 304.599 173.593 304.234 173.661 303.923C173.73 303.611 173.67 303.352 173.482 303.144C173.284 302.926 173.025 302.834 172.704 302.866C172.383 302.899 171.995 303.061 171.541 303.354C171.086 303.646 170.557 304.065 169.954 304.611ZM172.213 285.253C172.933 284.601 173.757 284.228 174.686 284.133C175.62 284.034 176.591 284.215 177.599 284.676C178.607 285.137 179.566 285.869 180.475 286.872C181.393 287.885 182.032 288.915 182.391 289.964C182.751 291.012 182.836 291.997 182.645 292.916C182.455 293.836 182.003 294.62 181.288 295.267C180.569 295.919 179.74 296.297 178.801 296.401C177.867 296.5 176.898 296.317 175.895 295.851C174.892 295.386 173.931 294.646 173.013 293.633C172.104 292.63 171.468 291.607 171.103 290.563C170.738 289.519 170.651 288.537 170.841 287.617C171.037 286.693 171.494 285.905 172.213 285.253ZM174.01 287.236C173.682 287.515 173.499 287.883 173.462 288.341C173.43 288.795 173.553 289.307 173.83 289.877C174.106 290.447 174.541 291.059 175.133 291.712C175.73 292.371 176.301 292.868 176.846 293.205C177.386 293.536 177.881 293.706 178.33 293.713C178.781 293.711 179.165 293.566 179.484 293.276C179.819 292.973 180.006 292.6 180.048 292.157C180.089 291.704 179.969 291.195 179.687 290.629C179.406 290.054 178.967 289.437 178.37 288.779C177.773 288.12 177.205 287.625 176.664 287.294C176.125 286.953 175.627 286.781 175.173 286.778C174.723 286.77 174.336 286.923 174.01 287.236ZM191.289 291.629L189.094 293.618L176.452 279.668L178.647 277.678L191.289 291.629ZM186.951 282.871L184.497 285.095L182.851 283.279L185.305 281.055L186.951 282.871ZM205.449 278.866L203.268 280.842L190.592 266.854L192.772 264.878L205.449 278.866ZM191.171 282.672C192.493 281.483 193.64 280.388 194.614 279.386C195.593 278.379 196.529 277.309 197.421 276.177L199.209 277.768C198.355 278.883 197.434 279.953 196.445 280.979C195.451 281.999 194.235 283.161 192.796 284.465L191.52 285.622L189.895 283.829L191.171 282.672ZM194.437 275.464L190.045 279.444L192.772 282.453L190.507 284.505L186.231 279.786L190.654 275.779L188.808 273.743L184.378 277.757L182.788 276.002L189.451 269.963L194.437 275.464ZM206.35 259.216C207.388 260.361 208.218 261.573 208.843 262.852C209.472 264.127 209.846 265.425 209.965 266.747C210.079 268.065 209.88 269.32 209.366 270.515L206.564 269.912C207.027 268.865 207.23 267.796 207.172 266.704C207.115 265.603 206.857 264.555 206.398 263.559C205.934 262.559 205.328 261.646 204.58 260.82L203.313 259.422L205.083 257.818L206.35 259.216ZM206.814 258.796C207.525 259.581 208.333 260.233 209.236 260.752C210.141 261.261 211.117 261.585 212.165 261.723C213.214 261.852 214.27 261.725 215.334 261.342L215.706 264.119C214.465 264.551 213.211 264.664 211.943 264.456C210.681 264.244 209.474 263.783 208.324 263.073C207.173 262.363 206.097 261.456 205.096 260.352L203.829 258.954L205.547 257.398L206.814 258.796ZM209.121 255.723L201.242 262.863L199.63 261.085L207.51 253.945L209.121 255.723ZM222.343 263.487L220.117 265.505L207.475 251.555L209.701 249.537L222.343 263.487ZM226.481 252.998L224.285 254.988L221.511 251.926L223.706 249.936L226.481 252.998ZM232.882 247.723L230.694 249.706L221.171 239.198L223.36 237.215L232.882 247.723ZM236.077 250.653L225.524 260.217L223.933 258.462L234.487 248.898L236.077 250.653ZM226.542 256.928L224.346 258.918L221.716 256.015L223.912 254.026L226.542 256.928ZM216.923 254.132C218.81 252.376 220.419 250.853 221.75 249.564C223.082 248.264 224.315 246.953 225.45 245.63L226.982 247.091C225.842 248.54 224.571 249.973 223.17 251.39C221.775 252.802 220.295 254.213 218.73 255.622L216.923 254.132ZM230.271 248.277L227.193 251.065L225.858 249.591L228.935 246.803L230.271 248.277ZM216.328 244.389C216.987 243.783 217.681 243.348 218.41 243.084C219.14 242.81 219.829 242.73 220.476 242.844C221.12 242.953 221.662 243.251 222.102 243.737C222.547 244.228 222.791 244.797 222.831 245.443C222.868 246.083 222.714 246.748 222.37 247.438C222.032 248.123 221.525 248.771 220.852 249.381C220.168 250.001 219.466 250.448 218.746 250.722C218.026 250.997 217.349 251.084 216.715 250.986C216.076 250.882 215.534 250.584 215.089 250.092C214.648 249.606 214.403 249.035 214.353 248.379C214.299 247.718 214.443 247.043 214.787 246.354C215.126 245.659 215.64 245.004 216.328 244.389ZM217.767 245.977C217.478 246.239 217.255 246.506 217.096 246.779C216.938 247.043 216.865 247.298 216.877 247.545C216.889 247.793 216.984 248.015 217.163 248.213C217.338 248.405 217.548 248.52 217.793 248.556C218.033 248.587 218.294 248.539 218.576 248.413C218.859 248.277 219.145 248.078 219.433 247.816C219.712 247.564 219.928 247.308 220.081 247.05C220.229 246.786 220.3 246.533 220.292 246.29C220.285 246.038 220.195 245.816 220.02 245.624C219.841 245.426 219.627 245.312 219.377 245.28C219.127 245.248 218.865 245.296 218.593 245.423C218.321 245.54 218.046 245.725 217.767 245.977ZM246.388 233.934L233.646 245.481L232.097 243.771L244.839 232.224L246.388 233.934ZM244.917 243.03L242.751 244.993L238.111 239.871L240.276 237.909L244.917 243.03ZM230.299 234.565L235.785 229.594L234.435 228.105L236.624 226.122L242.242 232.322L232.418 241.225L226.799 235.025L228.95 233.076L230.299 234.565ZM238.477 232.565L237.334 231.303L231.848 236.275L232.991 237.536L238.477 232.565ZM262.83 226.866L260.657 228.836L247.98 214.847L250.153 212.878L262.83 226.866ZM254.188 221.178L251.65 223.478L250.073 221.738L252.611 219.438L254.188 221.178ZM248.341 231.126C249.576 230.016 250.629 229.025 251.5 228.153C252.371 227.271 253.21 226.345 254.018 225.373L255.822 226.921C254.983 227.93 254.108 228.898 253.196 229.826C252.285 230.744 251.203 231.77 249.952 232.904L248.828 233.923L247.216 232.145L248.341 231.126ZM248.111 220.015L243.772 223.947L249.9 230.709L247.712 232.692L239.993 224.175L246.52 218.26L248.111 220.015ZM251.102 224.279L246.764 228.21L245.215 226.501L249.553 222.569L251.102 224.279ZM189.735 326.577C190.764 325.645 191.744 324.946 192.677 324.478C193.615 324.007 194.468 323.787 195.236 323.82C196.009 323.849 196.65 324.144 197.159 324.706C197.65 325.248 197.87 325.903 197.818 326.67C197.775 327.437 197.473 328.269 196.911 329.166C196.354 330.058 195.566 330.965 194.548 331.888C193.545 332.797 192.573 333.485 191.63 333.951C190.688 334.418 189.827 334.639 189.049 334.616C188.281 334.592 187.651 334.31 187.16 333.768C186.655 333.21 186.424 332.548 186.467 331.781C186.51 331.004 186.812 330.172 187.373 329.285C187.94 328.393 188.727 327.49 189.735 326.577ZM191.195 328.188C190.587 328.738 190.112 329.243 189.77 329.7C189.424 330.152 189.213 330.556 189.137 330.91C189.062 331.255 189.133 331.546 189.348 331.785C189.55 332.007 189.824 332.096 190.17 332.05C190.521 332 190.936 331.822 191.416 331.516C191.896 331.211 192.439 330.782 193.047 330.232C193.665 329.672 194.15 329.168 194.501 328.72C194.857 328.269 195.077 327.87 195.162 327.526C195.242 327.177 195.184 326.893 194.986 326.675C194.77 326.437 194.485 326.341 194.129 326.386C193.769 326.427 193.345 326.6 192.855 326.905C192.366 327.2 191.813 327.628 191.195 328.188ZM188.012 316.598L179.16 324.619L177.611 322.91L186.463 314.888L188.012 316.598ZM195.481 320.014L182.83 331.478L181.233 329.716L193.883 318.251L195.481 320.014ZM188.392 324.072L186.227 326.034L183.665 323.207L185.831 321.245L188.392 324.072ZM188.423 315.173C189.103 315.923 189.672 316.597 190.131 317.195C190.591 317.784 191.019 318.48 191.415 319.284L189.072 321.034C188.651 320.244 188.235 319.587 187.825 319.064C187.421 318.536 186.888 317.902 186.228 317.163L185.202 316.031L187.397 314.041L188.423 315.173ZM202.795 305.623L198.692 309.341L197.108 307.593L201.211 303.875L202.795 305.623ZM205.859 309.004L201.756 312.722L200.179 310.982L204.282 307.264L205.859 309.004ZM210.107 310.897L207.934 312.866L198.735 302.715L200.908 300.746L210.107 310.897ZM213.649 314.164L203.984 322.922L202.393 321.167L212.058 312.409L213.649 314.164ZM205.421 320.111L203.233 322.094L199.846 318.356L202.034 316.373L205.421 320.111ZM193.715 308.69C194.399 308.07 195.164 307.667 196.01 307.481C196.857 307.286 197.7 307.315 198.54 307.569C199.384 307.819 200.12 308.291 200.749 308.985C201.364 309.664 201.755 310.435 201.92 311.3C202.086 312.155 202.03 312.999 201.752 313.833C201.479 314.661 201.006 315.381 200.332 315.991C199.633 316.625 198.853 317.041 197.991 317.241C197.135 317.436 196.292 317.407 195.462 317.153C194.633 316.889 193.911 316.418 193.296 315.74C192.667 315.046 192.262 314.273 192.081 313.422C191.901 312.561 191.952 311.717 192.235 310.889C192.523 310.056 193.016 309.323 193.715 308.69ZM195.478 310.635C195.144 310.918 194.913 311.243 194.784 311.61C194.65 311.971 194.631 312.347 194.728 312.739C194.825 313.131 195.036 313.507 195.362 313.867C195.684 314.221 196.03 314.461 196.401 314.586C196.773 314.71 197.145 314.724 197.517 314.626C197.89 314.528 198.243 314.337 198.576 314.054C198.871 313.768 199.083 313.447 199.212 313.091C199.346 312.729 199.366 312.36 199.273 311.983C199.181 311.596 198.977 311.228 198.66 310.878C198.334 310.519 197.981 310.271 197.6 310.137C197.225 309.997 196.851 309.976 196.478 310.074C196.106 310.162 195.772 310.349 195.478 310.635ZM218.161 293.718L215.896 295.77L214.313 294.023L216.577 291.971L218.161 293.718ZM222.099 298.064L219.835 300.116L218.231 298.346L220.495 296.294L222.099 298.064ZM230.785 299.022L228.696 300.915L216.054 286.965L218.143 285.071L230.785 299.022ZM227.348 301.016L225.296 302.875L213.384 289.73L215.436 287.871L227.348 301.016ZM210.023 294.16C210.651 293.591 211.384 293.3 212.222 293.288C213.06 293.276 213.954 293.54 214.905 294.081C215.861 294.617 216.812 295.406 217.758 296.45C218.703 297.493 219.398 298.52 219.842 299.529C220.287 300.528 220.464 301.447 220.374 302.284C220.285 303.122 219.931 303.831 219.312 304.41C218.69 304.955 217.96 305.229 217.122 305.231C216.285 305.234 215.393 304.962 214.447 304.417C213.497 303.867 212.549 303.071 211.603 302.027C210.648 300.973 209.949 299.952 209.504 298.962C209.059 297.972 208.881 297.063 208.97 296.235C209.064 295.403 209.415 294.711 210.023 294.16ZM211.903 296.234C211.661 296.435 211.56 296.716 211.6 297.076C211.64 297.436 211.824 297.878 212.152 298.403C212.475 298.922 212.953 299.531 213.586 300.23C214.215 300.924 214.774 301.46 215.264 301.837C215.754 302.214 216.176 302.441 216.53 302.516C216.88 302.587 217.171 302.516 217.404 302.305C217.647 302.085 217.754 301.795 217.723 301.435C217.688 301.071 217.511 300.621 217.194 300.088C216.872 299.549 216.399 298.936 215.775 298.247C215.15 297.558 214.588 297.029 214.089 296.661C213.589 296.293 213.157 296.076 212.792 296.009C212.428 295.933 212.132 296.008 211.903 296.234ZM244.234 286.834L242.144 288.728L229.502 274.778L231.592 272.884L244.234 286.834ZM236.554 281.215L234.313 283.246L232.708 281.476L234.95 279.445L236.554 281.215ZM240.546 289.056L238.487 290.922L226.575 277.777L228.634 275.911L240.546 289.056ZM234.973 288.999L229.358 294.088L221.082 284.955L226.697 279.866L234.973 288.999ZM229.853 290.526L231.38 289.142L226.209 283.436L224.682 284.82L229.853 290.526ZM256.771 275.473L254.567 277.47L241.925 263.52L244.129 261.523L256.771 275.473ZM252.391 267.112L249.952 269.323L248.327 267.53L250.766 265.319L252.391 267.112ZM238.335 269.361C239.726 270.896 240.828 272.245 241.642 273.407C242.461 274.566 243.107 275.807 243.579 277.132C244.051 278.458 244.286 279.923 244.284 281.53L241.474 281.849C241.475 280.446 241.294 279.198 240.932 278.106C240.575 277.009 240.057 275.974 239.379 275.002C238.706 274.025 237.754 272.858 236.524 271.501L236.276 271.227L238.335 269.361ZM238.731 272.226L236.125 274.588L234.521 272.818L237.127 270.456L238.731 272.226ZM242.218 265.842C243.668 267.443 244.853 268.878 245.773 270.148C246.693 271.418 247.44 272.771 248.013 274.207C248.591 275.639 248.929 277.188 249.026 278.852L246.215 279.171C246.103 277.704 245.823 276.377 245.373 275.188C244.923 274 244.307 272.856 243.524 271.758C242.736 270.654 241.69 269.383 240.386 267.945L240.166 267.702L242.218 265.842ZM242.667 268.659L240.426 270.691L238.821 268.92L241.063 266.889L242.667 268.659ZM254.736 258.553C255.773 259.698 256.604 260.91 257.228 262.189C257.858 263.464 258.232 264.762 258.351 266.084C258.465 267.402 258.265 268.657 257.751 269.852L254.95 269.249C255.413 268.202 255.615 267.133 255.558 266.041C255.501 264.94 255.243 263.892 254.783 262.896C254.32 261.896 253.714 260.983 252.965 260.157L251.698 258.759L253.469 257.155L254.736 258.553ZM255.199 258.133C255.911 258.918 256.718 259.57 257.622 260.089C258.526 260.598 259.502 260.922 260.55 261.06C261.599 261.189 262.656 261.062 263.72 260.679L264.091 263.456C262.851 263.888 261.596 264.001 260.329 263.793C259.067 263.581 257.86 263.12 256.709 262.41C255.558 261.7 254.483 260.793 253.482 259.689L252.215 258.291L253.932 256.735L255.199 258.133ZM257.506 255.059L249.627 262.2L248.016 260.422L255.895 253.282L257.506 255.059ZM270.728 262.824L268.502 264.842L255.86 250.891L258.087 248.874L270.728 262.824ZM216.996 346.932L214.801 348.922L205.381 338.528L207.577 336.538L216.996 346.932ZM214.777 340.848L212.353 343.045L210.735 341.259L213.159 339.063L214.777 340.848ZM207.508 342.218L199.249 349.703L197.706 348.001L205.966 340.516L207.508 342.218ZM203.755 346.353C204.423 345.747 205.127 345.322 205.865 345.078C206.598 344.828 207.297 344.78 207.962 344.934C208.633 345.083 209.211 345.426 209.698 345.963C210.175 346.49 210.45 347.089 210.524 347.761C210.602 348.427 210.481 349.114 210.161 349.819C209.836 350.519 209.34 351.172 208.671 351.778C207.992 352.393 207.286 352.83 206.552 353.09C205.819 353.339 205.119 353.397 204.453 353.262C203.792 353.123 203.223 352.79 202.745 352.263C202.259 351.727 201.974 351.117 201.891 350.436C201.814 349.749 201.935 349.054 202.256 348.348C202.576 347.633 203.076 346.968 203.755 346.353ZM205.276 348.032C205.008 348.276 204.804 348.529 204.665 348.794C204.527 349.058 204.475 349.321 204.51 349.584C204.551 349.843 204.677 350.089 204.888 350.322C205.085 350.54 205.308 350.679 205.557 350.739C205.811 350.795 206.078 350.77 206.359 350.663C206.636 350.55 206.908 350.373 207.177 350.129C207.455 349.877 207.662 349.621 207.795 349.361C207.93 349.092 207.984 348.826 207.958 348.564C207.932 348.301 207.821 348.061 207.623 347.843C207.412 347.61 207.175 347.465 206.911 347.409C206.648 347.352 206.378 347.38 206.102 347.492C205.83 347.6 205.555 347.78 205.276 348.032ZM203.692 344.085L201.496 346.075L199.472 343.841L201.668 341.851L203.692 344.085ZM220.454 349.832L210.85 358.535L209.26 356.78L218.864 348.076L220.454 349.832ZM212.137 355.542L209.941 357.532L207.132 354.432L209.328 352.442L212.137 355.542ZM224.922 330.589L221.427 333.756L219.843 332.009L223.338 328.841L224.922 330.589ZM231.027 333.982L228.854 335.951L219.552 325.686L221.725 323.717L231.027 333.982ZM234.435 337.162L224.778 345.914L223.187 344.159L232.844 335.407L234.435 337.162ZM226.335 343.174L224.117 345.184L220.729 341.446L222.948 339.435L226.335 343.174ZM215.341 334.844L217.704 332.702L215.865 330.673L218.038 328.704L224.58 335.922L217.832 342.037L211.291 334.819L213.502 332.815L215.341 334.844ZM220.857 336.182L219.198 334.351L216.835 336.492L218.494 338.323L220.857 336.182ZM237.333 321.929L235.114 323.94L233.545 322.208L235.763 320.197L237.333 321.929ZM248.107 325.16L246.017 327.053L233.375 313.103L235.465 311.21L248.107 325.16ZM244.616 327.202L242.557 329.068L230.645 315.924L232.704 314.058L244.616 327.202ZM227.345 320.298C227.973 319.729 228.706 319.438 229.543 319.426C230.381 319.414 231.276 319.679 232.227 320.219C233.183 320.755 234.134 321.545 235.079 322.588C236.025 323.631 236.72 324.658 237.164 325.667C237.608 326.666 237.786 327.585 237.696 328.423C237.606 329.26 237.252 329.969 236.633 330.548C236.011 331.093 235.281 331.367 234.444 331.37C233.607 331.372 232.715 331.101 231.769 330.556C230.819 330.006 229.87 329.209 228.925 328.165C227.97 327.112 227.27 326.09 226.825 325.1C226.38 324.11 226.202 323.202 226.292 322.373C226.386 321.541 226.737 320.849 227.345 320.298ZM229.224 322.373C228.992 322.564 228.899 322.843 228.944 323.208C228.989 323.564 229.178 324.001 229.511 324.521C229.843 325.041 230.322 325.645 230.946 326.334C231.57 327.023 232.127 327.561 232.616 327.948C233.101 328.33 233.518 328.561 233.867 328.641C234.217 328.711 234.503 328.645 234.726 328.443C234.964 328.228 235.065 327.942 235.029 327.587C234.994 327.223 234.815 326.776 234.493 326.247C234.166 325.713 233.69 325.102 233.066 324.413C232.442 323.724 231.882 323.193 231.387 322.82C230.893 322.447 230.466 322.226 230.106 322.155C229.747 322.074 229.453 322.147 229.224 322.373ZM248.306 316.233L246.148 318.189L238.979 310.751L241.616 308.362L248.306 316.233ZM250.402 320.714C250.153 320.939 249.866 321.084 249.538 321.151C249.211 321.217 248.892 321.201 248.582 321.104C248.273 320.996 248.006 320.819 247.781 320.57C247.565 320.332 247.421 320.057 247.35 319.743C247.278 319.421 247.294 319.102 247.397 318.788C247.499 318.473 247.675 318.204 247.923 317.979C248.166 317.758 248.447 317.615 248.764 317.548C249.087 317.477 249.408 317.49 249.728 317.588C250.043 317.681 250.308 317.847 250.524 318.085C250.749 318.333 250.894 318.621 250.96 318.948C251.022 319.271 251.004 319.592 250.906 319.911C250.813 320.226 250.645 320.494 250.402 320.714Z" fill="#FBFBFB"/>
<mask id="mask0_6235_29650" style="mask-type:alpha" maskUnits="userSpaceOnUse" x="256" y="7" width="474" height="228">
<g clip-path="url(#clip1_6235_29650)">
<path d="M484.387 137.106L470.421 138.995L425.916 107.906L434.291 102.113L484.387 137.106Z" fill="#121212"/>
<path d="M447.973 119.693L439.748 106.539L459.524 84.4293L475.371 91.0543L447.973 119.693Z" fill="#121212"/>
<path d="M388.879 139.847L385.825 121.381L308.486 154.137L349.801 195.902L423.354 164.75L420.3 146.284L406.11 152.294L403.068 133.837L388.879 139.847Z" fill="#121212"/>
<path d="M372.234 166.834L421.467 202.397L323.121 218.006L283.145 182.876L372.234 166.834Z" fill="#121212"/>
</g>
</mask>
<g mask="url(#mask0_6235_29650)">
<path d="M416.388 196.73L317.241 152.952L243.184 218.945L311.364 286.225L416.388 196.73Z" fill="#FBFBFB"/>
</g>
</g>
<g opacity="0.9">
<g filter="url(#filter4_d_6235_29650)">
<rect x="-91.7842" y="168.461" width="112.5" height="1062" transform="rotate(-41.7534 -91.7842 168.461)" fill="#7512FF"/>
</g>
<g clip-path="url(#clip2_6235_29650)">
<path d="M78.5592 264.339L72.4438 255.742L89.5386 243.594L94.6375 253.944L78.5592 264.339Z" fill="#FBFBFB"/>
<path d="M61.1316 263.397L69.6295 257.476L51.7646 241.815L45.8424 251.738L61.1316 263.397Z" fill="#FBFBFB"/>
<path d="M46.1657 252.015L41.4861 242.524L66.9697 218.63L74.8483 225.118L46.1657 252.015Z" fill="#FBFBFB"/>
<path d="M58.2883 231.101L71.0549 227.944L98.8367 244.707L94.6014 253.976L58.2883 231.101Z" fill="#FBFBFB"/>
<path d="M107.454 298.265L116.715 292.885L132.003 301.705L127.23 310.644L107.454 298.265Z" fill="#FBFBFB"/>
<path d="M112.489 322.714L124.072 318.632L100.089 296.099L94.1666 306.022L112.489 322.714Z" fill="#FBFBFB"/>
<path d="M94.4899 306.298L89.8103 296.808L115.294 272.913L123.172 279.402L94.4899 306.298Z" fill="#FBFBFB"/>
<path d="M123.455 326.607L112.489 322.713L138.838 298.049L146.73 304.538L123.455 326.607Z" fill="#FBFBFB"/>
<path d="M151.063 319.27L144.011 327.089L159.604 341.163L165.852 331.49L151.063 319.27Z" fill="#FBFBFB"/>
<path d="M113.612 361.937L125.935 366.576L168.973 341.16L165.813 331.447L113.612 361.937Z" fill="#FBFBFB"/>
<path d="M169.853 340.377L162.801 348.197L178.394 362.27L184.642 352.597L169.853 340.377Z" fill="#FBFBFB"/>
<path d="M132.402 383.044L144.725 387.683L187.756 362.26L184.603 352.554L132.402 383.044Z" fill="#FBFBFB"/>
<path d="M105.333 349.855L59.2301 307.329L66.9126 302.493L111.526 344.341L105.333 349.855Z" fill="#FBFBFB"/>
<path d="M87.908 326.582L83.1376 317.969L94.7532 314.283L100.187 322.691L87.908 326.582Z" fill="#FBFBFB"/>
<path d="M58.5977 297.358L12.5016 254.838L20.184 250.003L64.7913 291.844L58.5977 297.358Z" fill="#FBFBFB"/>
<path d="M41.1736 274.086L36.4033 265.473L48.0252 261.794L53.459 270.202L41.1736 274.086Z" fill="#FBFBFB"/>
<path d="M202.203 362.271L145.632 404.385L152.857 409.965L207.728 368.478L202.203 362.271Z" fill="#FBFBFB"/>
<path d="M190.866 385.119L179.803 388.172L191.716 398.545L196.475 390.21L190.866 385.119Z" fill="#FBFBFB"/>
</g>
<path d="M250.091 422.041L238.585 409.262L240.315 407.704L251.821 420.483L250.091 422.041ZM246.368 415.776L244.426 413.619L247.162 411.156L249.104 413.313L246.368 415.776ZM251.576 418.082L242.746 408.275L244.461 406.731L253.291 416.538L251.576 418.082ZM254.654 415.186L247.848 407.627L245.287 409.933L243.325 407.753L247.585 403.918L256.353 413.656L254.654 415.186ZM243.713 416.138C244.633 417.159 245.323 418.124 245.783 419.034C246.244 419.944 246.45 420.771 246.401 421.513C246.358 422.252 246.057 422.872 245.498 423.376C244.959 423.861 244.323 424.084 243.589 424.045C242.856 424.007 242.056 423.711 241.189 423.157C240.327 422.609 239.439 421.826 238.524 420.81C237.609 419.794 236.92 418.824 236.455 417.899C235.995 416.98 235.78 416.148 235.809 415.404C235.843 414.665 236.129 414.053 236.667 413.569C237.226 413.065 237.877 412.833 238.621 412.872C239.374 412.912 240.181 413.211 241.042 413.769C241.904 414.327 242.794 415.117 243.713 416.138ZM242.052 417.633C241.499 417.019 241.011 416.543 240.588 416.206C240.165 415.869 239.796 415.669 239.479 415.604C239.163 415.539 238.896 415.605 238.678 415.801C238.464 415.993 238.376 416.248 238.413 416.564C238.454 416.876 238.618 417.257 238.904 417.708C239.2 418.159 239.627 418.695 240.185 419.314C240.739 419.929 241.222 420.405 241.635 420.741C242.054 421.073 242.418 421.273 242.729 421.343C243.04 421.412 243.3 421.353 243.508 421.166C243.726 420.969 243.82 420.71 243.788 420.389C243.757 420.068 243.596 419.68 243.305 419.224C243.014 418.768 242.597 418.238 242.052 417.633ZM261.403 419.955C262.053 420.676 262.424 421.501 262.515 422.431C262.611 423.365 262.427 424.336 261.963 425.342C261.499 426.349 260.764 427.305 259.758 428.211C258.742 429.126 257.709 429.761 256.66 430.118C255.61 430.474 254.626 430.556 253.706 430.362C252.787 430.169 252.005 429.714 251.36 428.998C250.711 428.276 250.335 427.446 250.235 426.506C250.138 425.572 250.325 424.604 250.793 423.602C251.262 422.601 252.004 421.643 253.02 420.728C254.026 419.822 255.052 419.188 256.097 418.827C257.142 418.465 258.124 418.381 259.043 418.575C259.967 418.773 260.754 419.233 261.403 419.955ZM259.415 421.745C259.137 421.416 258.769 421.232 258.311 421.194C257.858 421.16 257.345 421.281 256.774 421.556C256.203 421.831 255.59 422.264 254.935 422.854C254.274 423.448 253.775 424.018 253.437 424.561C253.104 425.101 252.932 425.595 252.923 426.045C252.924 426.495 253.068 426.88 253.357 427.2C253.658 427.535 254.031 427.724 254.474 427.767C254.927 427.81 255.436 427.691 256.003 427.411C256.579 427.132 257.197 426.695 257.858 426.1C258.518 425.505 259.015 424.938 259.348 424.399C259.691 423.861 259.865 423.364 259.869 422.909C259.878 422.459 259.727 422.071 259.415 421.745ZM254.967 439.01L252.984 436.808L266.974 424.211L268.957 426.413L254.967 439.01ZM263.738 434.7L261.522 432.238L263.343 430.599L265.559 433.06L263.738 434.7ZM267.683 453.21L265.714 451.023L279.743 438.392L281.712 440.579L267.683 453.21ZM263.924 438.92C265.108 440.246 266.199 441.397 267.199 442.374C268.202 443.356 269.269 444.295 270.398 445.192L268.802 446.974C267.69 446.117 266.623 445.192 265.6 444.2C264.583 443.202 263.424 441.982 262.125 440.54L260.973 439.26L262.771 437.64L263.924 438.92ZM271.121 442.209L267.155 437.805L264.137 440.522L262.093 438.251L266.825 433.99L270.818 438.425L272.86 436.586L268.86 432.144L270.62 430.559L276.638 437.242L271.121 442.209ZM287.331 454.175C286.183 455.208 284.968 456.035 283.687 456.656C282.41 457.281 281.11 457.651 279.788 457.765C278.47 457.875 277.215 457.672 276.022 457.154L276.634 454.355C277.679 454.821 278.748 455.027 279.84 454.973C280.941 454.919 281.99 454.664 282.987 454.208C283.989 453.748 284.904 453.145 285.732 452.399L287.134 451.137L288.733 452.912L287.331 454.175ZM287.749 454.639C286.962 455.348 286.307 456.154 285.786 457.056C285.274 457.958 284.947 458.934 284.805 459.981C284.672 461.03 284.796 462.086 285.176 463.152L282.398 463.515C281.969 462.272 281.861 461.018 282.072 459.751C282.289 458.489 282.753 457.284 283.467 456.136C284.181 454.987 285.091 453.914 286.199 452.917L287.601 451.655L289.151 453.377L287.749 454.639ZM290.815 456.957L283.7 449.054L285.483 447.449L292.598 455.351L290.815 456.957ZM283.008 470.154L280.998 467.921L294.989 455.324L296.999 457.556L283.008 470.154ZM293.484 474.326L291.502 472.123L294.572 469.358L296.555 471.561L293.484 474.326ZM298.739 480.743L296.763 478.549L307.301 469.06L309.277 471.254L298.739 480.743ZM295.798 483.929L286.268 473.345L288.028 471.76L297.559 482.344L295.798 483.929ZM289.554 474.374L287.571 472.172L290.482 469.551L292.465 471.753L289.554 474.374ZM292.381 464.764C294.131 466.656 295.648 468.27 296.934 469.606C298.229 470.942 299.536 472.179 300.856 473.318L299.389 474.846C297.944 473.7 296.515 472.425 295.103 471.02C293.695 469.62 292.289 468.135 290.885 466.566L292.381 464.764ZM298.193 478.13L295.414 475.044L296.893 473.713L299.672 476.799L298.193 478.13ZM302.125 464.2C302.729 464.861 303.163 465.556 303.424 466.286C303.696 467.017 303.774 467.706 303.657 468.353C303.546 468.996 303.247 469.537 302.759 469.976C302.266 470.42 301.697 470.661 301.051 470.7C300.41 470.734 299.746 470.578 299.057 470.232C298.373 469.892 297.727 469.383 297.119 468.708C296.501 468.022 296.056 467.319 295.784 466.598C295.512 465.877 295.427 465.199 295.528 464.566C295.634 463.927 295.933 463.387 296.426 462.943C296.914 462.504 297.486 462.26 298.142 462.212C298.803 462.16 299.477 462.307 300.166 462.652C300.86 462.994 301.513 463.51 302.125 464.2ZM300.533 465.634C300.272 465.344 300.005 465.12 299.733 464.96C299.47 464.801 299.215 464.727 298.968 464.739C298.72 464.75 298.497 464.845 298.299 465.023C298.106 465.197 297.991 465.406 297.954 465.651C297.922 465.892 297.969 466.153 298.095 466.435C298.23 466.718 298.428 467.005 298.688 467.294C298.94 467.574 299.195 467.79 299.453 467.944C299.716 468.094 299.969 468.165 300.211 468.158C300.464 468.152 300.686 468.062 300.879 467.888C301.077 467.71 301.193 467.496 301.225 467.246C301.257 466.996 301.211 466.734 301.085 466.461C300.968 466.189 300.784 465.913 300.533 465.634ZM312.484 494.293L300.978 481.514L302.693 479.971L314.199 492.749L312.484 494.293ZM303.393 492.793L301.437 490.621L306.573 485.997L308.529 488.169L303.393 492.793ZM311.905 478.203L316.858 483.704L318.352 482.359L320.328 484.554L314.11 490.153L305.238 480.3L311.456 474.701L313.398 476.858L311.905 478.203ZM313.879 486.387L315.144 485.248L310.19 479.746L308.925 480.885L313.879 486.387ZM319.499 510.758L317.537 508.578L331.566 495.947L333.528 498.126L319.499 510.758ZM325.215 502.134L322.923 499.589L324.668 498.018L326.96 500.563L325.215 502.134ZM315.286 496.255C316.392 497.494 317.38 498.55 318.249 499.424C319.128 500.297 320.052 501.14 321.021 501.95L319.467 503.749C318.461 502.908 317.495 502.029 316.57 501.115C315.655 500.2 314.632 499.116 313.503 497.861L312.487 496.733L314.27 495.127L315.286 496.255ZM326.397 496.061L322.48 491.71L315.698 497.816L313.722 495.621L322.264 487.93L328.158 494.476L326.397 496.061ZM322.125 499.039L318.207 494.688L319.921 493.144L323.839 497.495L322.125 499.039ZM220.023 437.344C220.952 438.375 221.648 439.358 222.112 440.292C222.581 441.232 222.798 442.085 222.762 442.853C222.732 443.626 222.434 444.266 221.87 444.774C221.327 445.264 220.672 445.481 219.905 445.426C219.138 445.381 218.306 445.076 217.412 444.511C216.521 443.952 215.616 443.161 214.697 442.14C213.791 441.134 213.107 440.159 212.643 439.215C212.179 438.271 211.961 437.41 211.987 436.633C212.013 435.864 212.297 435.235 212.841 434.746C213.4 434.243 214.063 434.014 214.83 434.059C215.607 434.104 216.438 434.409 217.323 434.974C218.213 435.543 219.113 436.333 220.023 437.344ZM218.408 438.799C217.859 438.189 217.356 437.713 216.9 437.369C216.449 437.021 216.046 436.809 215.692 436.732C215.347 436.656 215.056 436.726 214.817 436.941C214.593 437.142 214.504 437.415 214.549 437.761C214.598 438.113 214.775 438.528 215.079 439.009C215.383 439.49 215.809 440.035 216.358 440.644C216.916 441.264 217.418 441.75 217.865 442.103C218.315 442.46 218.713 442.682 219.057 442.768C219.406 442.849 219.69 442.791 219.908 442.595C220.147 442.38 220.244 442.094 220.2 441.739C220.161 441.378 219.989 440.953 219.686 440.463C219.392 439.973 218.966 439.418 218.408 438.799ZM230.008 435.653L222.015 426.775L223.729 425.232L231.723 434.109L230.008 435.653ZM226.568 443.111L215.144 430.423L216.912 428.831L228.336 441.519L226.568 443.111ZM222.533 436.009L220.578 433.837L223.412 431.285L225.368 433.457L222.533 436.009ZM231.431 436.069C230.679 436.746 230.003 437.313 229.404 437.77C228.813 438.228 228.116 438.654 227.311 439.047L225.568 436.698C226.36 436.28 227.018 435.866 227.543 435.458C228.072 435.055 228.707 434.525 229.448 433.867L230.584 432.844L232.567 435.046L231.431 436.069ZM240.936 450.471L237.231 446.356L238.983 444.778L242.688 448.893L240.936 450.471ZM237.545 453.524L233.84 449.409L235.585 447.838L239.29 451.953L237.545 453.524ZM235.638 457.766L233.676 455.587L243.856 446.42L245.818 448.599L235.638 457.766ZM232.36 461.297L223.632 451.604L225.393 450.019L234.12 459.712L232.36 461.297ZM226.439 453.051L224.463 450.856L228.212 447.481L230.188 449.675L226.439 453.051ZM237.898 441.381C238.515 442.067 238.916 442.833 239.099 443.68C239.292 444.528 239.26 445.371 239.003 446.209C238.75 447.053 238.276 447.788 237.58 448.414C236.899 449.027 236.126 449.415 235.261 449.578C234.405 449.741 233.562 449.683 232.729 449.402C231.901 449.126 231.183 448.65 230.575 447.975C229.944 447.274 229.53 446.492 229.333 445.63C229.141 444.773 229.173 443.93 229.429 443.101C229.695 442.273 230.169 441.552 230.849 440.939C231.545 440.312 232.319 439.91 233.171 439.732C234.032 439.555 234.876 439.609 235.703 439.894C236.535 440.184 237.267 440.68 237.898 441.381ZM235.947 443.138C235.665 442.803 235.34 442.571 234.974 442.44C234.614 442.305 234.237 442.286 233.845 442.381C233.453 442.477 233.076 442.687 232.716 443.012C232.36 443.332 232.119 443.678 231.993 444.049C231.867 444.419 231.853 444.791 231.949 445.164C232.046 445.537 232.236 445.891 232.518 446.225C232.803 446.521 233.123 446.734 233.479 446.864C233.84 446.999 234.209 447.02 234.587 446.929C234.974 446.838 235.343 446.635 235.693 446.319C236.054 445.994 236.302 445.642 236.438 445.262C236.579 444.887 236.601 444.513 236.505 444.14C236.418 443.767 236.232 443.433 235.947 443.138ZM252.791 465.875L250.746 463.604L252.499 462.026L254.543 464.297L252.791 465.875ZM248.432 469.799L246.387 467.528L248.163 465.93L250.208 468.201L248.432 469.799ZM247.447 478.482L245.56 476.387L259.551 463.789L261.438 465.885L247.447 478.482ZM245.464 475.038L243.611 472.981L256.794 461.111L258.647 463.168L245.464 475.038ZM252.375 457.736C252.942 458.365 253.231 459.099 253.24 459.937C253.249 460.775 252.982 461.669 252.439 462.618C251.9 463.572 251.107 464.521 250.061 465.463C249.014 466.405 247.986 467.097 246.975 467.537C245.974 467.979 245.055 468.153 244.218 468.061C243.38 467.969 242.673 467.612 242.096 466.991C241.552 466.367 241.281 465.637 241.281 464.799C241.281 463.962 241.556 463.071 242.104 462.127C242.657 461.178 243.457 460.233 244.503 459.291C245.56 458.339 246.584 457.643 247.575 457.201C248.566 456.759 249.476 456.584 250.303 456.676C251.136 456.773 251.826 457.126 252.375 457.736ZM250.295 459.609C250.095 459.366 249.814 459.264 249.454 459.303C249.094 459.342 248.651 459.525 248.126 459.851C247.606 460.172 246.995 460.648 246.294 461.279C245.598 461.906 245.06 462.464 244.681 462.952C244.302 463.44 244.075 463.862 243.998 464.216C243.926 464.565 243.996 464.857 244.206 465.091C244.426 465.335 244.716 465.442 245.075 465.412C245.44 465.378 245.89 465.203 246.424 464.888C246.964 464.567 247.579 464.096 248.27 463.474C248.961 462.852 249.491 462.292 249.861 461.793C250.231 461.295 250.449 460.863 250.517 460.499C250.594 460.135 250.52 459.838 250.295 459.609ZM259.591 491.97L257.704 489.874L271.695 477.277L273.582 479.373L259.591 491.97ZM265.235 484.308L263.211 482.06L264.986 480.461L267.01 482.709L265.235 484.308ZM257.382 488.274L255.522 486.209L268.705 474.339L270.565 476.405L257.382 488.274ZM257.456 482.702L252.386 477.071L261.545 468.824L266.615 474.455L257.456 482.702ZM255.946 477.577L257.325 479.109L263.048 473.956L261.668 472.424L255.946 477.577ZM270.912 504.543L268.923 502.333L282.913 489.736L284.903 491.946L270.912 504.543ZM279.287 500.19L277.084 497.744L278.883 496.125L281.085 498.571L279.287 500.19ZM277.083 486.127C275.544 487.513 274.192 488.611 273.026 489.421C271.865 490.236 270.622 490.878 269.295 491.346C267.969 491.813 266.502 492.044 264.895 492.037L264.585 489.226C265.989 489.231 267.237 489.055 268.33 488.696C269.428 488.342 270.464 487.827 271.439 487.152C272.418 486.483 273.588 485.535 274.95 484.309L275.224 484.062L277.083 486.127ZM274.217 486.514L271.863 483.9L273.639 482.302L275.992 484.915L274.217 486.514ZM280.589 490.021C278.984 491.466 277.545 492.647 276.272 493.563C275 494.479 273.644 495.221 272.206 495.789C270.772 496.363 269.223 496.695 267.558 496.787L267.248 493.976C268.715 493.868 270.044 493.592 271.234 493.146C272.424 492.7 273.569 492.087 274.67 491.308C275.776 490.524 277.05 489.482 278.493 488.183L278.737 487.963L280.589 490.021ZM277.771 490.461L275.747 488.213L277.522 486.615L279.546 488.862L277.771 490.461ZM287.839 502.562C286.691 503.596 285.476 504.423 284.195 505.043C282.918 505.668 281.618 506.038 280.296 506.153C278.978 506.263 277.723 506.059 276.53 505.542L277.142 502.742C278.187 503.208 279.256 503.414 280.348 503.36C281.449 503.307 282.498 503.052 283.495 502.596C284.497 502.135 285.412 501.532 286.24 500.787L287.642 499.524L289.241 501.3L287.839 502.562ZM288.257 503.027C287.47 503.736 286.815 504.541 286.294 505.443C285.782 506.346 285.455 507.321 285.313 508.369C285.18 509.417 285.304 510.474 285.684 511.539L282.906 511.902C282.477 510.66 282.369 509.405 282.58 508.138C282.797 506.877 283.261 505.672 283.975 504.523C284.689 503.375 285.599 502.302 286.707 501.305L288.109 500.042L289.659 501.764L288.257 503.027ZM291.323 505.344L284.208 497.442L285.991 495.836L293.106 503.738L291.323 505.344ZM283.516 518.541L281.506 516.308L295.497 503.711L297.507 505.944L283.516 518.541ZM199.581 464.54L197.598 462.338L208.023 452.952L210.005 455.154L199.581 464.54ZM205.672 462.34L203.483 459.909L205.274 458.296L207.463 460.727L205.672 462.34ZM204.325 455.067L196.867 446.783L198.574 445.247L206.032 453.53L204.325 455.067ZM200.202 451.3C200.806 451.971 201.229 452.675 201.471 453.414C201.718 454.148 201.764 454.848 201.608 455.512C201.457 456.182 201.112 456.759 200.573 457.244C200.045 457.72 199.445 457.993 198.773 458.065C198.106 458.141 197.42 458.018 196.716 457.695C196.017 457.368 195.365 456.87 194.762 456.199C194.149 455.518 193.714 454.811 193.457 454.076C193.21 453.342 193.155 452.642 193.291 451.976C193.432 451.316 193.767 450.747 194.295 450.272C194.834 449.787 195.444 449.504 196.126 449.424C196.812 449.348 197.508 449.472 198.212 449.795C198.926 450.118 199.589 450.619 200.202 451.3ZM198.518 452.816C198.276 452.547 198.023 452.343 197.759 452.203C197.495 452.063 197.232 452.011 196.969 452.045C196.71 452.085 196.464 452.21 196.23 452.421C196.012 452.617 195.872 452.84 195.81 453.088C195.753 453.342 195.778 453.609 195.884 453.891C195.996 454.168 196.173 454.441 196.415 454.71C196.667 454.99 196.922 455.197 197.181 455.331C197.45 455.466 197.716 455.521 197.978 455.496C198.241 455.471 198.482 455.361 198.7 455.164C198.934 454.953 199.079 454.717 199.137 454.453C199.194 454.19 199.167 453.92 199.056 453.643C198.949 453.371 198.77 453.096 198.518 452.816ZM202.47 451.245L200.488 449.043L202.728 447.025L204.711 449.228L202.47 451.245ZM196.67 467.989L187.998 458.357L189.758 456.772L198.431 466.404L196.67 467.989ZM190.987 459.653L189.004 457.451L192.113 454.652L194.096 456.854L190.987 459.653ZM215.899 472.518L212.742 469.012L214.495 467.434L217.651 470.94L215.899 472.518ZM212.486 478.612L210.524 476.433L220.819 467.163L222.781 469.342L212.486 478.612ZM209.295 482.01L200.574 472.324L202.335 470.739L211.055 480.425L209.295 482.01ZM203.309 473.891L201.306 471.666L205.055 468.29L207.058 470.515L203.309 473.891ZM211.675 462.923L213.809 465.293L215.843 463.461L217.805 465.64L210.566 472.158L204.474 465.392L211.713 458.873L213.709 461.091L211.675 462.923ZM210.319 468.435L212.155 466.782L210.021 464.412L208.185 466.065L210.319 468.435ZM224.518 484.957L222.515 482.731L224.252 481.167L226.256 483.392L224.518 484.957ZM221.253 495.72L219.367 493.624L233.357 481.027L235.244 483.123L221.253 495.72ZM219.222 492.223L217.363 490.158L230.546 478.288L232.405 480.353L219.222 492.223ZM226.181 474.973C226.749 475.603 227.037 476.337 227.046 477.175C227.056 478.013 226.789 478.906 226.245 479.856C225.706 480.81 224.913 481.758 223.867 482.701C222.82 483.643 221.792 484.334 220.781 484.775C219.781 485.216 218.861 485.391 218.024 485.299C217.187 485.206 216.479 484.85 215.902 484.229C215.359 483.605 215.087 482.875 215.087 482.037C215.088 481.2 215.362 480.309 215.91 479.365C216.463 478.416 217.263 477.471 218.309 476.528C219.366 475.577 220.39 474.88 221.381 474.439C222.372 473.997 223.282 473.822 224.11 473.914C224.942 474.01 225.633 474.364 226.181 474.973ZM224.101 476.846C223.91 476.614 223.632 476.519 223.267 476.563C222.911 476.607 222.473 476.795 221.952 477.126C221.431 477.457 220.825 477.933 220.134 478.555C219.444 479.177 218.904 479.732 218.515 480.22C218.132 480.704 217.899 481.12 217.818 481.469C217.747 481.818 217.811 482.105 218.013 482.329C218.228 482.567 218.513 482.669 218.868 482.635C219.233 482.601 219.68 482.423 220.21 482.102C220.745 481.777 221.358 481.303 222.049 480.681C222.74 480.059 223.272 479.501 223.647 479.008C224.021 478.515 224.244 478.088 224.316 477.729C224.398 477.37 224.326 477.076 224.101 476.846ZM230.179 495.948L228.231 493.784L235.691 486.638L238.072 489.283L230.179 495.948ZM225.692 498.029C225.468 497.78 225.323 497.492 225.258 497.164C225.193 496.836 225.21 496.518 225.308 496.208C225.416 495.899 225.595 495.633 225.844 495.409C226.083 495.194 226.359 495.051 226.672 494.98C226.995 494.91 227.314 494.927 227.628 495.03C227.942 495.134 228.211 495.31 228.435 495.559C228.655 495.803 228.797 496.084 228.863 496.402C228.933 496.725 228.919 497.046 228.82 497.365C228.726 497.68 228.559 497.944 228.321 498.159C228.072 498.384 227.783 498.528 227.456 498.593C227.133 498.654 226.812 498.635 226.493 498.536C226.179 498.442 225.912 498.273 225.692 498.029Z" fill="#FBFBFB"/>
<path d="M417.308 621.596L439.024 622.912L383.435 560.104L341.39 582.244L394.267 641.988L415.984 643.304L405.792 631.789L427.5 633.112L417.308 621.596Z" fill="#FBFBFB"/>
<path d="M381.207 604.24L348.301 633.364L309.132 558.498L343.422 536.058L381.207 604.24Z" fill="#FBFBFB"/>
</g>
<defs>
<filter id="filter0_f_6235_29650" x="-184.594" y="-63.2754" width="1113.4" height="729.396" filterUnits="userSpaceOnUse" color-interpolation-filters="sRGB">
<feFlood flood-opacity="0" result="BackgroundImageFix"/>
<feBlend mode="normal" in="SourceGraphic" in2="BackgroundImageFix" result="shape"/>
<feGaussianBlur stdDeviation="2" result="effect1_foregroundBlur_6235_29650"/>
</filter>
<filter id="filter1_d_6235_29650" x="293.869" y="137.549" width="201.402" height="385.994" filterUnits="userSpaceOnUse" color-interpolation-filters="sRGB">
<feFlood flood-opacity="0" result="BackgroundImageFix"/>
<feColorMatrix in="SourceAlpha" type="matrix" values="0 0 0 0 0 0 0 0 0 0 0 0 0 0 0 0 0 0 127 0" result="hardAlpha"/>
<feOffset dx="6" dy="6"/>
<feGaussianBlur stdDeviation="7.5"/>
<feComposite in2="hardAlpha" operator="out"/>
<feColorMatrix type="matrix" values="0 0 0 0 0 0 0 0 0 0 0 0 0 0 0 0 0 0 0.45 0"/>
<feBlend mode="normal" in2="BackgroundImageFix" result="effect1_dropShadow_6235_29650"/>
<feBlend mode="normal" in="SourceGraphic" in2="effect1_dropShadow_6235_29650" result="shape"/>
</filter>
<filter id="filter2_d_6235_29650" x="344.696" y="-68.2754" width="601.11" height="591.818" filterUnits="userSpaceOnUse" color-interpolation-filters="sRGB">
<feFlood flood-opacity="0" result="BackgroundImageFix"/>
<feColorMatrix in="SourceAlpha" type="matrix" values="0 0 0 0 0 0 0 0 0 0 0 0 0 0 0 0 0 0 127 0" result="hardAlpha"/>
<feOffset dx="6" dy="6"/>
<feGaussianBlur stdDeviation="7.5"/>
<feComposite in2="hardAlpha" operator="out"/>
<feColorMatrix type="matrix" values="0 0 0 0 0 0 0 0 0 0 0 0 0 0 0 0 0 0 0.45 0"/>
<feBlend mode="normal" in2="BackgroundImageFix" result="effect1_dropShadow_6235_29650"/>
<feBlend mode="normal" in="SourceGraphic" in2="effect1_dropShadow_6235_29650" result="shape"/>
</filter>
<filter id="filter3_d_6235_29650" x="-189.594" y="137.549" width="635.01" height="545.572" filterUnits="userSpaceOnUse" color-interpolation-filters="sRGB">
<feFlood flood-opacity="0" result="BackgroundImageFix"/>
<feColorMatrix in="SourceAlpha" type="matrix" values="0 0 0 0 0 0 0 0 0 0 0 0 0 0 0 0 0 0 127 0" result="hardAlpha"/>
<feOffset dx="6" dy="6"/>
<feGaussianBlur stdDeviation="7.5"/>
<feComposite in2="hardAlpha" operator="out"/>
<feColorMatrix type="matrix" values="0 0 0 0 0 0 0 0 0 0 0 0 0 0 0 0 0 0 0.45 0"/>
<feBlend mode="normal" in2="BackgroundImageFix" result="effect1_dropShadow_6235_29650"/>
<feBlend mode="normal" in="SourceGraphic" in2="effect1_dropShadow_6235_29650" result="shape"/>
</filter>
<filter id="filter4_d_6235_29650" x="-100.784" y="84.5449" width="821.141" height="897.188" filterUnits="userSpaceOnUse" color-interpolation-filters="sRGB">
<feFlood flood-opacity="0" result="BackgroundImageFix"/>
<feColorMatrix in="SourceAlpha" type="matrix" values="0 0 0 0 0 0 0 0 0 0 0 0 0 0 0 0 0 0 127 0" result="hardAlpha"/>
<feOffset dx="6" dy="6"/>
<feGaussianBlur stdDeviation="7.5"/>
<feComposite in2="hardAlpha" operator="out"/>
<feColorMatrix type="matrix" values="0 0 0 0 0 0 0 0 0 0 0 0 0 0 0 0 0 0 0.45 0"/>
<feBlend mode="normal" in2="BackgroundImageFix" result="effect1_dropShadow_6235_29650"/>
<feBlend mode="normal" in="SourceGraphic" in2="effect1_dropShadow_6235_29650" result="shape"/>
</filter>
<linearGradient id="paint0_linear_6235_29650" x1="220" y1="128" x2="220" y2="956" gradientUnits="userSpaceOnUse">
<stop stop-color="#CCCCCC"/>
<stop offset="0.5" stop-color="#FBFBFB"/>
<stop offset="1" stop-color="#CCCCCC"/>
</linearGradient>
<clipPath id="clip0_6235_29650">
<rect width="226.5" height="71.2224" fill="white" transform="translate(-60.7568 491.135) rotate(-40.6116)"/>
</clipPath>
<clipPath id="clip1_6235_29650">
<rect width="416.574" height="109.647" fill="white" transform="matrix(0.920816 -0.389998 0.810631 0.585557 256.967 170.219)"/>
</clipPath>
<clipPath id="clip2_6235_29650">
<rect width="226.5" height="71.2224" fill="white" transform="translate(65.6982 207.482) rotate(48.3231)"/>
</clipPath>
</defs>
</svg>
