<svg width="440" height="1093" viewBox="0 0 440 1093" fill="none" xmlns="http://www.w3.org/2000/svg">
<g opacity="0.9" filter="url(#filter0_f_7285_74224)">
<g filter="url(#filter1_d_7285_74224)">
<path d="M302.863 146.541L424.41 201.204L474.266 502.535L353.689 457.923L302.863 146.541Z" fill="#BB2200"/>
</g>
<g filter="url(#filter2_d_7285_74224)">
<path d="M836.523 -59.2829L924.803 19.6476L474.269 502.536L353.692 457.924L836.523 -59.2829Z" fill="#FF3D12"/>
</g>
<g filter="url(#filter3_d_7285_74224)">
<path d="M-107.133 662.112L-180.597 576.911L302.866 146.541L424.413 201.203L-107.133 662.112Z" fill="#FF3D12"/>
</g>
<g clip-path="url(#clip0_7285_74224)">
<path d="M30.7784 451.066L25.5715 441.706L34.6748 426.585L43.5228 431.523L30.7784 451.066Z" fill="#FBFBFB"/>
<path d="M55.319 446.487L51.4534 434.829L28.4776 458.389L38.2886 464.495L55.319 446.487Z" fill="#FBFBFB"/>
<path d="M38.5727 464.177L28.9971 468.679L5.5808 442.756L12.2144 434.999L38.5727 464.177Z" fill="#FBFBFB"/>
<path d="M59.413 435.595L55.3161 446.487L31.1456 419.684L37.7802 411.914L59.413 435.595Z" fill="#FBFBFB"/>
<path d="M52.5925 407.855L60.2792 415.05L74.6401 399.722L65.0851 393.296L52.5925 407.855Z" fill="#FBFBFB"/>
<path d="M94.5561 446.092L99.4237 433.858L74.812 390.355L65.0421 393.334L94.5561 446.092Z" fill="#FBFBFB"/>
<path d="M74.0417 389.46L81.7284 396.656L96.0893 381.327L86.5343 374.901L74.0417 389.46Z" fill="#FBFBFB"/>
<path d="M116.005 427.698L120.873 415.464L96.2539 371.967L86.4913 374.939L116.005 427.698Z" fill="#FBFBFB"/>
<path d="M82.3248 454.145L38.9485 499.449L34.257 491.678L76.9271 447.85L82.3248 454.145Z" fill="#FBFBFB"/>
<path d="M58.7319 471.133L50.0317 475.743L46.5623 464.061L55.0697 458.784L58.7319 471.133Z" fill="#FBFBFB"/>
<path d="M28.9621 499.896L-14.407 545.194L-19.0984 537.423L23.5644 493.601L28.9621 499.896Z" fill="#FBFBFB"/>
<path d="M5.37256 516.885L-3.32763 521.495L-6.78978 509.806L1.71757 504.53L5.37256 516.885Z" fill="#FBFBFB"/>
<path d="M96.5359 357.523L137.59 414.867L143.304 407.747L102.844 352.114L96.5359 357.523Z" fill="#FBFBFB"/>
<path d="M119.174 369.283L122.021 380.401L132.613 368.683L124.368 363.769L119.174 369.283Z" fill="#FBFBFB"/>
</g>
<path d="M174.331 296.55L161.589 308.097L160.026 306.372L172.768 294.825L174.331 296.55ZM168.078 300.293L165.928 302.241L163.456 299.514L165.606 297.565L168.078 300.293ZM170.367 295.077L160.588 303.939L159.039 302.229L168.818 293.367L170.367 295.077ZM167.462 292.009L159.925 298.839L162.238 301.392L160.065 303.361L156.216 299.114L165.926 290.314L167.462 292.009ZM168.448 302.946C169.466 302.023 170.43 301.33 171.338 300.867C172.247 300.403 173.072 300.195 173.815 300.241C174.554 300.282 175.175 300.581 175.68 301.139C176.167 301.676 176.392 302.311 176.356 303.045C176.32 303.779 176.027 304.58 175.476 305.448C174.93 306.312 174.15 307.202 173.137 308.12C172.124 309.039 171.156 309.731 170.233 310.199C169.315 310.662 168.484 310.88 167.74 310.853C167.001 310.822 166.388 310.537 165.902 310C165.397 309.443 165.163 308.793 165.199 308.049C165.236 307.296 165.532 306.488 166.088 305.625C166.643 304.762 167.43 303.869 168.448 302.946ZM169.949 304.603C169.336 305.158 168.862 305.648 168.527 306.072C168.191 306.495 167.992 306.865 167.928 307.182C167.864 307.498 167.93 307.765 168.128 307.983C168.321 308.196 168.575 308.283 168.892 308.246C169.204 308.203 169.584 308.038 170.034 307.75C170.484 307.453 171.018 307.024 171.636 306.464C172.249 305.909 172.723 305.424 173.058 305.01C173.388 304.59 173.588 304.225 173.656 303.914C173.725 303.603 173.665 303.343 173.477 303.135C173.28 302.918 173.02 302.825 172.699 302.858C172.378 302.89 171.99 303.053 171.536 303.345C171.081 303.637 170.552 304.056 169.949 304.603ZM172.208 285.244C172.928 284.592 173.752 284.219 174.681 284.124C175.615 284.025 176.586 284.206 177.594 284.667C178.602 285.128 179.561 285.86 180.47 286.863C181.388 287.876 182.027 288.907 182.387 289.955C182.746 291.004 182.831 291.988 182.641 292.908C182.45 293.828 181.998 294.611 181.284 295.258C180.564 295.91 179.735 296.288 178.796 296.392C177.862 296.491 176.893 296.308 175.89 295.842C174.887 295.377 173.926 294.637 173.008 293.624C172.1 292.621 171.463 291.598 171.098 290.554C170.733 289.51 170.646 288.528 170.836 287.608C171.032 286.684 171.489 285.896 172.208 285.244ZM174.006 287.227C173.677 287.506 173.495 287.875 173.457 288.333C173.425 288.786 173.548 289.298 173.825 289.868C174.102 290.438 174.536 291.05 175.128 291.703C175.725 292.362 176.296 292.859 176.841 293.196C177.381 293.527 177.876 293.697 178.326 293.704C178.776 293.702 179.16 293.557 179.48 293.268C179.814 292.965 180.002 292.592 180.043 292.148C180.084 291.695 179.964 291.186 179.682 290.621C179.401 290.045 178.962 289.429 178.365 288.77C177.768 288.112 177.2 287.617 176.66 287.285C176.12 286.944 175.623 286.772 175.168 286.769C174.718 286.761 174.331 286.914 174.006 287.227ZM191.284 291.62L189.089 293.61L176.447 279.66L178.643 277.67L191.284 291.62ZM186.946 282.862L184.492 285.086L182.846 283.27L185.3 281.046L186.946 282.862ZM205.444 278.857L203.263 280.834L190.587 266.845L192.767 264.869L205.444 278.857ZM191.166 282.663C192.488 281.475 193.635 280.379 194.609 279.377C195.588 278.37 196.524 277.301 197.417 276.169L199.204 277.759C198.351 278.874 197.429 279.944 196.44 280.97C195.446 281.99 194.23 283.153 192.791 284.456L191.515 285.613L189.89 283.82L191.166 282.663ZM194.432 275.456L190.04 279.435L192.767 282.444L190.502 284.496L186.227 279.778L190.649 275.77L188.803 273.734L184.374 277.748L182.783 275.993L189.447 269.954L194.432 275.456ZM206.345 259.207C207.383 260.352 208.213 261.564 208.838 262.843C209.467 264.118 209.841 265.416 209.96 266.739C210.074 268.056 209.875 269.312 209.361 270.506L206.559 269.903C207.022 268.857 207.225 267.787 207.167 266.696C207.11 265.594 206.852 264.546 206.393 263.551C205.929 262.55 205.323 261.637 204.575 260.811L203.308 259.413L205.078 257.809L206.345 259.207ZM206.809 258.787C207.52 259.572 208.328 260.224 209.231 260.743C210.136 261.252 211.112 261.576 212.16 261.715C213.209 261.844 214.265 261.716 215.329 261.333L215.701 264.11C214.46 264.543 213.206 264.655 211.938 264.448C210.676 264.236 209.47 263.775 208.319 263.065C207.168 262.355 206.092 261.447 205.092 260.343L203.825 258.945L205.542 257.389L206.809 258.787ZM209.116 255.714L201.237 262.854L199.625 261.076L207.505 253.936L209.116 255.714ZM222.338 263.478L220.112 265.496L207.47 251.546L209.696 249.528L222.338 263.478ZM226.476 252.989L224.281 254.979L221.506 251.917L223.702 249.927L226.476 252.989ZM232.877 247.714L230.689 249.697L221.166 239.189L223.355 237.206L232.877 247.714ZM236.073 250.644L225.519 260.208L223.928 258.453L234.482 248.889L236.073 250.644ZM226.537 256.919L224.341 258.909L221.711 256.007L223.907 254.017L226.537 256.919ZM216.918 254.123C218.805 252.367 220.414 250.844 221.745 249.555C223.077 248.256 224.311 246.944 225.445 245.621L226.978 247.083C225.837 248.532 224.566 249.965 223.165 251.381C221.77 252.794 220.29 254.204 218.725 255.613L216.918 254.123ZM230.266 248.268L227.189 251.057L225.853 249.583L228.93 246.794L230.266 248.268ZM216.323 244.381C216.982 243.774 217.676 243.339 218.405 243.075C219.135 242.801 219.824 242.721 220.472 242.835C221.115 242.944 221.657 243.242 222.097 243.728C222.543 244.22 222.786 244.788 222.826 245.434C222.863 246.074 222.709 246.74 222.365 247.429C222.027 248.114 221.521 248.762 220.847 249.373C220.163 249.992 219.461 250.439 218.741 250.714C218.021 250.988 217.344 251.076 216.71 250.977C216.071 250.873 215.53 250.575 215.084 250.084C214.644 249.597 214.398 249.026 214.348 248.371C214.294 247.71 214.438 247.034 214.782 246.345C215.121 245.65 215.635 244.995 216.323 244.381ZM217.762 245.969C217.473 246.23 217.25 246.498 217.091 246.771C216.933 247.034 216.86 247.289 216.872 247.536C216.884 247.784 216.98 248.006 217.159 248.204C217.333 248.396 217.543 248.511 217.788 248.547C218.028 248.578 218.289 248.531 218.572 248.404C218.854 248.268 219.14 248.069 219.428 247.807C219.707 247.555 219.923 247.299 220.076 247.041C220.224 246.777 220.295 246.524 220.288 246.282C220.281 246.03 220.19 245.807 220.015 245.615C219.836 245.417 219.622 245.303 219.372 245.271C219.122 245.239 218.86 245.287 218.588 245.414C218.316 245.531 218.041 245.716 217.762 245.969ZM246.383 233.925L233.641 245.472L232.092 243.763L244.834 232.216L246.383 233.925ZM244.912 243.021L242.747 244.984L238.106 239.863L240.271 237.9L244.912 243.021ZM230.294 234.556L235.78 229.585L234.431 228.096L236.619 226.113L242.237 232.313L232.413 241.216L226.794 235.016L228.945 233.067L230.294 234.556ZM238.472 232.556L237.329 231.295L231.844 236.266L232.987 237.527L238.472 232.556ZM262.825 226.858L260.652 228.827L247.975 214.839L250.148 212.869L262.825 226.858ZM254.183 221.169L251.645 223.469L250.068 221.729L252.606 219.429L254.183 221.169ZM248.336 231.117C249.572 230.007 250.625 229.016 251.495 228.144C252.366 227.263 253.205 226.336 254.013 225.364L255.817 226.912C254.978 227.921 254.103 228.889 253.191 229.817C252.28 230.736 251.198 231.762 249.947 232.895L248.823 233.914L247.212 232.137L248.336 231.117ZM248.106 220.007L243.767 223.938L249.896 230.701L247.707 232.684L239.989 224.166L246.515 218.251L248.106 220.007ZM251.098 224.27L246.759 228.201L245.21 226.492L249.548 222.56L251.098 224.27ZM189.73 326.568C190.759 325.636 191.739 324.937 192.672 324.47C193.61 323.998 194.463 323.779 195.231 323.811C196.004 323.84 196.645 324.135 197.154 324.697C197.646 325.239 197.865 325.894 197.813 326.661C197.77 327.428 197.468 328.26 196.906 329.157C196.349 330.049 195.562 330.956 194.543 331.879C193.54 332.788 192.568 333.476 191.625 333.942C190.683 334.409 189.823 334.63 189.045 334.607C188.276 334.583 187.646 334.301 187.155 333.759C186.65 333.202 186.419 332.539 186.462 331.772C186.505 330.995 186.807 330.163 187.369 329.276C187.935 328.384 188.722 327.482 189.73 326.568ZM191.19 328.179C190.582 328.73 190.107 329.234 189.766 329.691C189.419 330.144 189.208 330.547 189.132 330.902C189.057 331.246 189.128 331.538 189.344 331.776C189.546 331.999 189.819 332.087 190.165 332.041C190.516 331.991 190.932 331.813 191.411 331.507C191.891 331.202 192.435 330.774 193.042 330.223C193.66 329.663 194.145 329.159 194.496 328.712C194.852 328.26 195.073 327.862 195.157 327.517C195.237 327.168 195.179 326.884 194.981 326.667C194.766 326.429 194.48 326.332 194.124 326.378C193.764 326.418 193.34 326.591 192.85 326.896C192.362 327.191 191.808 327.619 191.19 328.179ZM188.007 316.589L179.155 324.61L177.606 322.901L186.458 314.879L188.007 316.589ZM195.476 320.005L182.825 331.47L181.228 329.707L193.879 318.242L195.476 320.005ZM188.387 324.063L186.222 326.025L183.66 323.199L185.826 321.236L188.387 324.063ZM188.419 315.164C189.098 315.914 189.667 316.588 190.127 317.187C190.586 317.775 191.014 318.472 191.41 319.275L189.067 321.026C188.646 320.235 188.23 319.578 187.821 319.055C187.416 318.527 186.883 317.893 186.223 317.154L185.197 316.022L187.393 314.032L188.419 315.164ZM202.79 305.614L198.687 309.332L197.103 307.585L201.206 303.866L202.79 305.614ZM205.854 308.995L201.751 312.713L200.174 310.973L204.277 307.255L205.854 308.995ZM210.102 310.888L207.929 312.857L198.73 302.706L200.903 300.737L210.102 310.888ZM213.644 314.155L203.979 322.913L202.388 321.158L212.053 312.4L213.644 314.155ZM205.417 320.102L203.228 322.085L199.841 318.347L202.029 316.364L205.417 320.102ZM193.71 308.681C194.394 308.061 195.159 307.658 196.005 307.472C196.852 307.277 197.695 307.306 198.535 307.561C199.379 307.81 200.116 308.282 200.744 308.976C201.36 309.655 201.75 310.426 201.915 311.291C202.082 312.146 202.025 312.991 201.747 313.824C201.474 314.652 201.001 315.372 200.327 315.983C199.628 316.616 198.848 317.033 197.986 317.232C197.13 317.427 196.287 317.398 195.457 317.144C194.628 316.881 193.906 316.409 193.291 315.731C192.662 315.037 192.257 314.264 192.076 313.413C191.896 312.553 191.947 311.708 192.23 310.88C192.518 310.047 193.011 309.314 193.71 308.681ZM195.473 310.626C195.139 310.91 194.908 311.234 194.779 311.601C194.645 311.962 194.626 312.339 194.723 312.73C194.82 313.122 195.031 313.498 195.357 313.858C195.679 314.212 196.025 314.452 196.396 314.577C196.768 314.702 197.14 314.715 197.512 314.617C197.885 314.519 198.238 314.329 198.571 314.045C198.866 313.759 199.078 313.438 199.207 313.082C199.341 312.721 199.361 312.351 199.269 311.974C199.176 311.587 198.972 311.219 198.655 310.87C198.329 310.51 197.976 310.263 197.595 310.128C197.22 309.988 196.846 309.967 196.473 310.065C196.101 310.153 195.768 310.34 195.473 310.626ZM218.156 293.709L215.892 295.761L214.308 294.014L216.572 291.962L218.156 293.709ZM222.094 298.056L219.83 300.107L218.226 298.337L220.49 296.285L222.094 298.056ZM230.78 299.013L228.691 300.906L216.049 286.956L218.138 285.063L230.78 299.013ZM227.343 301.007L225.291 302.866L213.379 289.721L215.431 287.862L227.343 301.007ZM210.018 294.151C210.646 293.582 211.379 293.291 212.217 293.279C213.055 293.267 213.949 293.532 214.9 294.072C215.856 294.608 216.807 295.397 217.753 296.441C218.698 297.484 219.393 298.511 219.837 299.52C220.282 300.519 220.459 301.438 220.37 302.276C220.28 303.113 219.926 303.822 219.307 304.401C218.685 304.946 217.955 305.22 217.118 305.223C216.28 305.225 215.389 304.954 214.443 304.409C213.492 303.859 212.544 303.062 211.598 302.018C210.644 300.965 209.944 299.943 209.499 298.953C209.054 297.963 208.876 297.054 208.965 296.226C209.059 295.394 209.41 294.702 210.018 294.151ZM211.898 296.226C211.656 296.427 211.555 296.707 211.595 297.067C211.635 297.427 211.819 297.87 212.147 298.394C212.47 298.913 212.948 299.522 213.581 300.221C214.21 300.915 214.77 301.451 215.259 301.828C215.749 302.206 216.171 302.432 216.525 302.507C216.875 302.578 217.166 302.508 217.399 302.296C217.643 302.076 217.749 301.786 217.718 301.426C217.683 301.062 217.506 300.613 217.189 300.079C216.867 299.541 216.394 298.927 215.77 298.238C215.145 297.549 214.583 297.021 214.084 296.652C213.584 296.284 213.152 296.067 212.787 296.001C212.423 295.925 212.127 296 211.898 296.226ZM244.229 286.825L242.139 288.719L229.498 274.769L231.587 272.875L244.229 286.825ZM236.549 281.206L234.308 283.238L232.703 281.467L234.945 279.436L236.549 281.206ZM240.541 289.047L238.482 290.913L226.57 277.768L228.629 275.902L240.541 289.047ZM234.968 288.99L229.353 294.079L221.077 284.946L226.692 279.857L234.968 288.99ZM229.848 290.517L231.375 289.133L226.204 283.427L224.677 284.811L229.848 290.517ZM256.766 275.464L254.562 277.461L241.92 263.511L244.124 261.514L256.766 275.464ZM252.386 267.104L249.947 269.314L248.322 267.521L250.761 265.311L252.386 267.104ZM238.33 269.352C239.721 270.887 240.823 272.236 241.637 273.399C242.456 274.557 243.102 275.799 243.574 277.124C244.046 278.449 244.281 279.915 244.279 281.521L241.469 281.84C241.47 280.437 241.29 279.189 240.927 278.097C240.57 277 240.052 275.966 239.374 274.993C238.701 274.016 237.749 272.849 236.519 271.492L236.271 271.218L238.33 269.352ZM238.726 272.217L236.12 274.579L234.516 272.809L237.122 270.447L238.726 272.217ZM242.213 265.834C243.663 267.434 244.849 268.87 245.769 270.139C246.688 271.409 247.435 272.762 248.008 274.198C248.586 275.63 248.924 277.179 249.021 278.844L246.21 279.163C246.099 277.696 245.818 276.368 245.368 275.179C244.918 273.991 244.302 272.847 243.519 271.749C242.731 270.646 241.685 269.375 240.382 267.936L240.161 267.693L242.213 265.834ZM242.662 268.651L240.421 270.682L238.816 268.912L241.058 266.88L242.662 268.651ZM254.731 258.544C255.768 259.689 256.599 260.901 257.223 262.18C257.853 263.455 258.227 264.753 258.346 266.076C258.46 267.393 258.26 268.649 257.747 269.843L254.945 269.24C255.408 268.194 255.611 267.124 255.553 266.033C255.496 264.931 255.238 263.883 254.778 262.888C254.315 261.887 253.709 260.974 252.96 260.148L251.693 258.75L253.464 257.146L254.731 258.544ZM255.194 258.124C255.906 258.909 256.713 259.561 257.617 260.08C258.521 260.589 259.497 260.913 260.546 261.052C261.594 261.181 262.651 261.053 263.715 260.67L264.086 263.447C262.846 263.88 261.591 263.992 260.324 263.785C259.062 263.573 257.855 263.111 256.704 262.402C255.554 261.692 254.478 260.784 253.477 259.68L252.21 258.282L253.927 256.726L255.194 258.124ZM257.502 255.051L249.622 262.191L248.011 260.413L255.89 253.273L257.502 255.051ZM270.724 262.815L268.497 264.833L255.855 250.883L258.082 248.865L270.724 262.815ZM216.991 346.923L214.796 348.913L205.376 338.519L207.572 336.529L216.991 346.923ZM214.772 340.84L212.348 343.036L210.73 341.25L213.154 339.054L214.772 340.84ZM207.503 342.21L199.244 349.694L197.702 347.992L205.961 340.508L207.503 342.21ZM203.75 346.344C204.418 345.738 205.122 345.313 205.86 345.069C206.593 344.819 207.292 344.772 207.957 344.925C208.628 345.074 209.206 345.417 209.693 345.954C210.17 346.481 210.445 347.08 210.519 347.752C210.597 348.419 210.477 349.105 210.156 349.81C209.832 350.51 209.335 351.163 208.666 351.769C207.987 352.385 207.281 352.822 206.547 353.081C205.814 353.33 205.114 353.388 204.448 353.253C203.787 353.114 203.218 352.781 202.74 352.255C202.254 351.718 201.969 351.108 201.887 350.427C201.809 349.741 201.93 349.045 202.251 348.34C202.571 347.625 203.071 346.959 203.75 346.344ZM205.272 348.024C205.003 348.267 204.799 348.521 204.661 348.785C204.522 349.049 204.47 349.313 204.506 349.576C204.546 349.834 204.672 350.08 204.883 350.313C205.08 350.531 205.303 350.67 205.552 350.731C205.806 350.787 206.073 350.761 206.354 350.654C206.631 350.542 206.904 350.364 207.172 350.121C207.451 349.868 207.657 349.612 207.791 349.353C207.925 349.083 207.979 348.817 207.953 348.555C207.927 348.292 207.816 348.052 207.618 347.834C207.407 347.601 207.17 347.456 206.907 347.4C206.643 347.343 206.373 347.371 206.097 347.483C205.825 347.591 205.55 347.771 205.272 348.024ZM203.687 344.076L201.491 346.066L199.467 343.832L201.663 341.843L203.687 344.076ZM220.449 349.823L210.845 358.526L209.255 356.771L218.859 348.068L220.449 349.823ZM212.132 355.533L209.937 357.523L207.127 354.423L209.323 352.433L212.132 355.533ZM224.917 330.58L221.422 333.748L219.838 332L223.333 328.833L224.917 330.58ZM231.022 333.973L228.849 335.942L219.547 325.677L221.72 323.708L231.022 333.973ZM234.43 337.153L224.773 345.905L223.182 344.15L232.839 335.398L234.43 337.153ZM226.33 343.165L224.112 345.176L220.724 341.437L222.943 339.427L226.33 343.165ZM215.336 334.835L217.699 332.693L215.86 330.665L218.033 328.695L224.575 335.914L217.828 342.028L211.286 334.81L213.497 332.806L215.336 334.835ZM220.852 336.173L219.193 334.342L216.83 336.484L218.489 338.315L220.852 336.173ZM237.328 321.921L235.11 323.931L233.54 322.199L235.758 320.188L237.328 321.921ZM248.102 325.151L246.012 327.045L233.37 313.095L235.46 311.201L248.102 325.151ZM244.611 327.194L242.552 329.06L230.64 315.915L232.699 314.049L244.611 327.194ZM227.34 320.29C227.968 319.72 228.701 319.43 229.539 319.418C230.376 319.406 231.271 319.67 232.222 320.21C233.178 320.746 234.129 321.536 235.074 322.579C236.02 323.623 236.715 324.649 237.159 325.658C237.603 326.658 237.781 327.576 237.691 328.414C237.602 329.252 237.247 329.96 236.628 330.539C236.006 331.085 235.277 331.359 234.439 331.361C233.602 331.363 232.71 331.092 231.764 330.547C230.814 329.997 229.866 329.2 228.92 328.157C227.965 327.103 227.265 326.081 226.82 325.091C226.375 324.102 226.197 323.193 226.287 322.365C226.381 321.532 226.732 320.84 227.34 320.29ZM229.219 322.364C228.987 322.556 228.894 322.834 228.939 323.199C228.984 323.555 229.173 323.992 229.506 324.512C229.838 325.032 230.317 325.636 230.941 326.325C231.565 327.014 232.122 327.552 232.611 327.939C233.096 328.321 233.513 328.552 233.862 328.632C234.212 328.702 234.498 328.637 234.721 328.435C234.959 328.219 235.06 327.934 235.024 327.578C234.989 327.214 234.81 326.767 234.488 326.238C234.161 325.704 233.685 325.093 233.061 324.404C232.437 323.715 231.877 323.184 231.383 322.811C230.888 322.439 230.461 322.217 230.101 322.146C229.742 322.065 229.448 322.138 229.219 322.364ZM248.301 316.225L246.144 318.18L238.974 310.742L241.611 308.353L248.301 316.225ZM250.397 320.705C250.149 320.93 249.861 321.076 249.533 321.142C249.206 321.208 248.887 321.192 248.577 321.095C248.268 320.988 248.001 320.81 247.776 320.562C247.56 320.324 247.416 320.048 247.345 319.735C247.274 319.412 247.289 319.093 247.392 318.779C247.494 318.464 247.67 318.195 247.918 317.97C248.161 317.749 248.442 317.606 248.759 317.539C249.082 317.468 249.404 317.482 249.723 317.579C250.038 317.672 250.303 317.838 250.519 318.076C250.744 318.324 250.889 318.612 250.956 318.94C251.017 319.262 250.999 319.583 250.901 319.902C250.808 320.217 250.64 320.485 250.397 320.705Z" fill="#FBFBFB"/>
<mask id="mask0_7285_74224" style="mask-type:alpha" maskUnits="userSpaceOnUse" x="222" y="5" width="550" height="231">
<g clip-path="url(#clip1_7285_74224)">
<path d="M486.693 136.424L470.453 138.353L418.835 106.873L428.59 100.992L486.693 136.424Z" fill="#121212"/>
<path d="M444.43 118.802L434.916 105.474L457.979 83.0371L476.375 89.7394L444.43 118.802Z" fill="#121212"/>
<path d="M375.672 139.292L372.187 120.572L282.182 153.857L330.054 196.165L415.654 164.509L412.169 145.789L395.656 151.896L392.185 133.185L375.672 139.292Z" fill="#121212"/>
<path d="M356.236 166.67L413.333 202.683L298.972 218.602L252.633 183.02L356.236 166.67Z" fill="#121212"/>
</g>
</mask>
<g mask="url(#mask0_7285_74224)">
<path d="M416.383 196.722L317.236 152.944L243.179 218.937L311.359 286.217L416.383 196.722Z" fill="#FBFBFB"/>
</g>
</g>
<g opacity="0.9">
<g filter="url(#filter4_d_7285_74224)">
<rect x="-91.7852" y="168.461" width="112.5" height="1062" transform="rotate(-41.7534 -91.7852 168.461)" fill="#7512FF"/>
</g>
<g clip-path="url(#clip2_7285_74224)">
<path d="M78.5534 264.338L72.438 255.741L89.5327 243.593L94.6317 253.943L78.5534 264.338Z" fill="#FBFBFB"/>
<path d="M61.1277 263.396L69.6256 257.475L51.7607 241.815L45.8384 251.737L61.1277 263.396Z" fill="#FBFBFB"/>
<path d="M46.1637 252.015L41.4842 242.524L66.9677 218.63L74.8463 225.118L46.1637 252.015Z" fill="#FBFBFB"/>
<path d="M58.2853 231.099L71.052 227.942L98.8338 244.705L94.5985 253.974L58.2853 231.099Z" fill="#FBFBFB"/>
<path d="M107.451 298.264L116.712 292.884L132 301.704L127.227 310.643L107.451 298.264Z" fill="#FBFBFB"/>
<path d="M112.485 322.712L124.068 318.63L100.085 296.097L94.1627 306.02L112.485 322.712Z" fill="#FBFBFB"/>
<path d="M94.4841 306.297L89.8045 296.807L115.288 272.912L123.167 279.401L94.4841 306.297Z" fill="#FBFBFB"/>
<path d="M123.453 326.606L112.487 322.712L138.836 298.048L146.728 304.537L123.453 326.606Z" fill="#FBFBFB"/>
<path d="M151.057 319.268L144.005 327.087L159.598 341.161L165.846 331.488L151.057 319.268Z" fill="#FBFBFB"/>
<path d="M113.611 361.935L125.934 366.574L168.972 341.158L165.812 331.445L113.611 361.935Z" fill="#FBFBFB"/>
<path d="M169.85 340.375L162.798 348.194L178.391 362.267L184.639 352.594L169.85 340.375Z" fill="#FBFBFB"/>
<path d="M132.397 383.041L144.719 387.68L187.751 362.257L184.597 352.551L132.397 383.041Z" fill="#FBFBFB"/>
<path d="M105.33 349.856L59.2272 307.33L66.9096 302.494L111.523 344.342L105.33 349.856Z" fill="#FBFBFB"/>
<path d="M87.9089 326.583L83.1386 317.97L94.7542 314.284L100.188 322.692L87.9089 326.583Z" fill="#FBFBFB"/>
<path d="M58.5928 297.358L12.4967 254.838L20.1792 250.003L64.7864 291.844L58.5928 297.358Z" fill="#FBFBFB"/>
<path d="M41.1707 274.085L36.4003 265.472L48.0223 261.793L53.4561 270.201L41.1707 274.085Z" fill="#FBFBFB"/>
<path d="M202.198 362.269L145.627 404.383L152.852 409.963L207.723 368.476L202.198 362.269Z" fill="#FBFBFB"/>
<path d="M190.86 385.118L179.797 388.171L191.711 398.544L196.47 390.209L190.86 385.118Z" fill="#FBFBFB"/>
</g>
<path d="M250.091 422.041L238.585 409.262L240.315 407.704L251.821 420.483L250.091 422.041ZM246.368 415.776L244.426 413.619L247.162 411.156L249.104 413.313L246.368 415.776ZM251.576 418.082L242.746 408.275L244.461 406.731L253.291 416.538L251.576 418.082ZM254.654 415.186L247.848 407.627L245.287 409.933L243.325 407.753L247.585 403.918L256.353 413.656L254.654 415.186ZM243.713 416.138C244.633 417.159 245.323 418.124 245.783 419.034C246.244 419.944 246.45 420.771 246.401 421.513C246.358 422.252 246.057 422.872 245.498 423.376C244.959 423.861 244.323 424.084 243.589 424.045C242.856 424.007 242.056 423.711 241.189 423.157C240.327 422.609 239.439 421.826 238.524 420.81C237.609 419.794 236.92 418.824 236.455 417.899C235.995 416.98 235.78 416.148 235.809 415.404C235.843 414.665 236.129 414.053 236.667 413.569C237.226 413.065 237.877 412.833 238.621 412.872C239.374 412.912 240.181 413.211 241.042 413.769C241.904 414.327 242.794 415.117 243.713 416.138ZM242.052 417.633C241.499 417.019 241.011 416.543 240.588 416.206C240.165 415.869 239.796 415.669 239.479 415.604C239.163 415.539 238.896 415.605 238.678 415.801C238.464 415.993 238.376 416.248 238.413 416.564C238.454 416.876 238.618 417.257 238.904 417.708C239.2 418.159 239.627 418.695 240.185 419.314C240.739 419.929 241.222 420.405 241.635 420.741C242.054 421.073 242.418 421.273 242.729 421.343C243.04 421.412 243.3 421.353 243.508 421.166C243.726 420.969 243.82 420.71 243.788 420.389C243.757 420.068 243.596 419.68 243.305 419.224C243.014 418.768 242.597 418.238 242.052 417.633ZM261.403 419.955C262.053 420.676 262.424 421.501 262.515 422.431C262.611 423.365 262.427 424.336 261.963 425.342C261.499 426.349 260.764 427.305 259.758 428.211C258.742 429.126 257.709 429.761 256.66 430.118C255.61 430.474 254.626 430.556 253.706 430.362C252.787 430.169 252.005 429.714 251.36 428.998C250.711 428.276 250.335 427.446 250.235 426.506C250.138 425.572 250.325 424.604 250.793 423.602C251.262 422.601 252.004 421.643 253.02 420.728C254.026 419.822 255.052 419.188 256.097 418.827C257.142 418.465 258.124 418.381 259.043 418.575C259.967 418.773 260.754 419.233 261.403 419.955ZM259.415 421.745C259.137 421.416 258.769 421.232 258.311 421.194C257.858 421.16 257.345 421.281 256.774 421.556C256.203 421.831 255.59 422.264 254.935 422.854C254.274 423.448 253.775 424.018 253.437 424.561C253.104 425.101 252.932 425.595 252.923 426.045C252.924 426.495 253.068 426.88 253.357 427.2C253.658 427.535 254.031 427.724 254.474 427.767C254.927 427.81 255.436 427.691 256.003 427.411C256.579 427.132 257.197 426.695 257.858 426.1C258.518 425.505 259.015 424.938 259.348 424.399C259.691 423.861 259.865 423.364 259.869 422.909C259.878 422.459 259.727 422.071 259.415 421.745ZM254.967 439.01L252.984 436.808L266.974 424.211L268.957 426.413L254.967 439.01ZM263.738 434.7L261.522 432.238L263.343 430.599L265.559 433.06L263.738 434.7ZM267.683 453.21L265.714 451.023L279.743 438.392L281.712 440.579L267.683 453.21ZM263.924 438.92C265.108 440.246 266.199 441.397 267.199 442.374C268.202 443.356 269.269 444.295 270.398 445.192L268.802 446.974C267.69 446.117 266.623 445.192 265.6 444.2C264.583 443.202 263.424 441.982 262.125 440.54L260.973 439.26L262.771 437.64L263.924 438.92ZM271.121 442.209L267.155 437.805L264.137 440.522L262.093 438.251L266.825 433.99L270.818 438.425L272.86 436.586L268.86 432.144L270.62 430.559L276.638 437.242L271.121 442.209ZM287.331 454.175C286.183 455.208 284.968 456.035 283.687 456.656C282.41 457.281 281.11 457.651 279.788 457.765C278.47 457.875 277.215 457.672 276.022 457.154L276.634 454.355C277.679 454.821 278.748 455.027 279.84 454.973C280.941 454.919 281.99 454.664 282.987 454.208C283.989 453.748 284.904 453.145 285.732 452.399L287.134 451.137L288.733 452.912L287.331 454.175ZM287.749 454.639C286.962 455.348 286.307 456.154 285.786 457.056C285.274 457.958 284.947 458.934 284.805 459.981C284.672 461.03 284.796 462.086 285.176 463.152L282.398 463.515C281.969 462.272 281.861 461.018 282.072 459.751C282.289 458.489 282.753 457.284 283.467 456.136C284.181 454.987 285.091 453.914 286.199 452.917L287.601 451.655L289.151 453.377L287.749 454.639ZM290.815 456.957L283.7 449.054L285.483 447.449L292.598 455.351L290.815 456.957ZM283.008 470.154L280.998 467.921L294.989 455.324L296.999 457.556L283.008 470.154ZM293.484 474.326L291.502 472.123L294.572 469.358L296.555 471.561L293.484 474.326ZM298.739 480.743L296.763 478.549L307.301 469.06L309.277 471.254L298.739 480.743ZM295.798 483.929L286.268 473.345L288.028 471.76L297.559 482.344L295.798 483.929ZM289.554 474.374L287.571 472.172L290.482 469.551L292.465 471.753L289.554 474.374ZM292.381 464.764C294.131 466.656 295.648 468.27 296.934 469.606C298.229 470.942 299.536 472.179 300.856 473.318L299.389 474.846C297.944 473.7 296.515 472.425 295.103 471.02C293.695 469.62 292.289 468.135 290.885 466.566L292.381 464.764ZM298.193 478.13L295.414 475.044L296.893 473.713L299.672 476.799L298.193 478.13ZM302.125 464.2C302.729 464.861 303.163 465.556 303.424 466.286C303.696 467.017 303.774 467.706 303.657 468.353C303.546 468.996 303.247 469.537 302.759 469.976C302.266 470.42 301.697 470.661 301.051 470.7C300.41 470.734 299.746 470.578 299.057 470.232C298.373 469.892 297.727 469.383 297.119 468.708C296.501 468.022 296.056 467.319 295.784 466.598C295.512 465.877 295.427 465.199 295.528 464.566C295.634 463.927 295.933 463.387 296.426 462.943C296.914 462.504 297.486 462.26 298.142 462.212C298.803 462.16 299.477 462.307 300.166 462.652C300.86 462.994 301.513 463.51 302.125 464.2ZM300.533 465.634C300.272 465.344 300.005 465.12 299.733 464.96C299.47 464.801 299.215 464.727 298.968 464.739C298.72 464.75 298.497 464.845 298.299 465.023C298.106 465.197 297.991 465.406 297.954 465.651C297.922 465.892 297.969 466.153 298.095 466.435C298.23 466.718 298.428 467.005 298.688 467.294C298.94 467.574 299.195 467.79 299.453 467.944C299.716 468.094 299.969 468.165 300.211 468.158C300.464 468.152 300.686 468.062 300.879 467.888C301.077 467.71 301.193 467.496 301.225 467.246C301.257 466.996 301.211 466.734 301.085 466.461C300.968 466.189 300.784 465.913 300.533 465.634ZM312.484 494.293L300.978 481.514L302.693 479.971L314.199 492.749L312.484 494.293ZM303.393 492.793L301.437 490.621L306.573 485.997L308.529 488.169L303.393 492.793ZM311.905 478.203L316.858 483.704L318.352 482.359L320.328 484.554L314.11 490.153L305.238 480.3L311.456 474.701L313.398 476.858L311.905 478.203ZM313.879 486.387L315.144 485.248L310.19 479.746L308.925 480.885L313.879 486.387ZM319.499 510.758L317.537 508.578L331.566 495.947L333.528 498.126L319.499 510.758ZM325.215 502.134L322.923 499.589L324.668 498.018L326.96 500.563L325.215 502.134ZM315.286 496.255C316.392 497.494 317.38 498.55 318.249 499.424C319.128 500.297 320.052 501.14 321.021 501.95L319.467 503.749C318.461 502.908 317.495 502.029 316.57 501.115C315.655 500.2 314.632 499.116 313.503 497.861L312.487 496.733L314.27 495.127L315.286 496.255ZM326.397 496.061L322.48 491.71L315.698 497.816L313.722 495.621L322.264 487.93L328.158 494.476L326.397 496.061ZM322.125 499.039L318.207 494.688L319.921 493.144L323.839 497.495L322.125 499.039ZM220.023 437.344C220.952 438.375 221.648 439.358 222.112 440.292C222.581 441.232 222.798 442.085 222.762 442.853C222.732 443.626 222.434 444.266 221.87 444.774C221.327 445.264 220.672 445.481 219.905 445.426C219.138 445.381 218.306 445.076 217.412 444.511C216.521 443.952 215.616 443.161 214.697 442.14C213.791 441.134 213.107 440.159 212.643 439.215C212.179 438.271 211.961 437.41 211.987 436.633C212.013 435.864 212.297 435.235 212.841 434.746C213.4 434.243 214.063 434.014 214.83 434.059C215.607 434.104 216.438 434.409 217.323 434.974C218.213 435.543 219.113 436.333 220.023 437.344ZM218.408 438.799C217.859 438.189 217.356 437.713 216.9 437.369C216.449 437.021 216.046 436.809 215.692 436.732C215.347 436.656 215.056 436.726 214.817 436.941C214.593 437.142 214.504 437.415 214.549 437.761C214.598 438.113 214.775 438.528 215.079 439.009C215.383 439.49 215.809 440.035 216.358 440.644C216.916 441.264 217.418 441.75 217.865 442.103C218.315 442.46 218.713 442.682 219.057 442.768C219.406 442.849 219.69 442.791 219.908 442.595C220.147 442.38 220.244 442.094 220.2 441.739C220.161 441.378 219.989 440.953 219.686 440.463C219.392 439.973 218.966 439.418 218.408 438.799ZM230.008 435.653L222.015 426.775L223.729 425.232L231.723 434.109L230.008 435.653ZM226.568 443.111L215.144 430.423L216.912 428.831L228.336 441.519L226.568 443.111ZM222.533 436.009L220.578 433.837L223.412 431.285L225.368 433.457L222.533 436.009ZM231.431 436.069C230.679 436.746 230.003 437.313 229.404 437.77C228.813 438.228 228.116 438.654 227.311 439.047L225.568 436.698C226.36 436.28 227.018 435.866 227.543 435.458C228.072 435.055 228.707 434.525 229.448 433.867L230.584 432.844L232.567 435.046L231.431 436.069ZM240.936 450.471L237.231 446.356L238.983 444.778L242.688 448.893L240.936 450.471ZM237.545 453.524L233.84 449.409L235.585 447.838L239.29 451.953L237.545 453.524ZM235.638 457.766L233.676 455.587L243.856 446.42L245.818 448.599L235.638 457.766ZM232.36 461.297L223.632 451.604L225.393 450.019L234.12 459.712L232.36 461.297ZM226.439 453.051L224.463 450.856L228.212 447.481L230.188 449.675L226.439 453.051ZM237.898 441.381C238.515 442.067 238.916 442.833 239.099 443.68C239.292 444.528 239.26 445.371 239.003 446.209C238.75 447.053 238.276 447.788 237.58 448.414C236.899 449.027 236.126 449.415 235.261 449.578C234.405 449.741 233.562 449.683 232.729 449.402C231.901 449.126 231.183 448.65 230.575 447.975C229.944 447.274 229.53 446.492 229.333 445.63C229.141 444.773 229.173 443.93 229.429 443.101C229.695 442.273 230.169 441.552 230.849 440.939C231.545 440.312 232.319 439.91 233.171 439.732C234.032 439.555 234.876 439.609 235.703 439.894C236.535 440.184 237.267 440.68 237.898 441.381ZM235.947 443.138C235.665 442.803 235.34 442.571 234.974 442.44C234.614 442.305 234.237 442.286 233.845 442.381C233.453 442.477 233.076 442.687 232.716 443.012C232.36 443.332 232.119 443.678 231.993 444.049C231.867 444.419 231.853 444.791 231.949 445.164C232.046 445.537 232.236 445.891 232.518 446.225C232.803 446.521 233.123 446.734 233.479 446.864C233.84 446.999 234.209 447.02 234.587 446.929C234.974 446.838 235.343 446.635 235.693 446.319C236.054 445.994 236.302 445.642 236.438 445.262C236.579 444.887 236.601 444.513 236.505 444.14C236.418 443.767 236.232 443.433 235.947 443.138ZM252.791 465.875L250.746 463.604L252.499 462.026L254.543 464.297L252.791 465.875ZM248.432 469.799L246.387 467.528L248.163 465.93L250.208 468.201L248.432 469.799ZM247.447 478.482L245.56 476.387L259.551 463.789L261.438 465.885L247.447 478.482ZM245.464 475.038L243.611 472.981L256.794 461.111L258.647 463.168L245.464 475.038ZM252.375 457.736C252.942 458.365 253.231 459.099 253.24 459.937C253.249 460.775 252.982 461.669 252.439 462.618C251.9 463.572 251.107 464.521 250.061 465.463C249.014 466.405 247.986 467.097 246.975 467.537C245.974 467.979 245.055 468.153 244.218 468.061C243.38 467.969 242.673 467.612 242.096 466.991C241.552 466.367 241.281 465.637 241.281 464.799C241.281 463.962 241.556 463.071 242.104 462.127C242.657 461.178 243.457 460.233 244.503 459.291C245.56 458.339 246.584 457.643 247.575 457.201C248.566 456.759 249.476 456.584 250.303 456.676C251.136 456.773 251.826 457.126 252.375 457.736ZM250.295 459.609C250.095 459.366 249.814 459.264 249.454 459.303C249.094 459.342 248.651 459.525 248.126 459.851C247.606 460.172 246.995 460.648 246.294 461.279C245.598 461.906 245.06 462.464 244.681 462.952C244.302 463.44 244.075 463.862 243.998 464.216C243.926 464.565 243.996 464.857 244.206 465.091C244.426 465.335 244.716 465.442 245.075 465.412C245.44 465.378 245.89 465.203 246.424 464.888C246.964 464.567 247.579 464.096 248.27 463.474C248.961 462.852 249.491 462.292 249.861 461.793C250.231 461.295 250.449 460.863 250.517 460.499C250.594 460.135 250.52 459.838 250.295 459.609ZM259.591 491.97L257.704 489.874L271.695 477.277L273.582 479.373L259.591 491.97ZM265.235 484.308L263.211 482.06L264.986 480.461L267.01 482.709L265.235 484.308ZM257.382 488.274L255.522 486.209L268.705 474.339L270.565 476.405L257.382 488.274ZM257.456 482.702L252.386 477.071L261.545 468.824L266.615 474.455L257.456 482.702ZM255.946 477.577L257.325 479.109L263.048 473.956L261.668 472.424L255.946 477.577ZM270.912 504.543L268.923 502.333L282.913 489.736L284.903 491.946L270.912 504.543ZM279.287 500.19L277.084 497.744L278.883 496.125L281.085 498.571L279.287 500.19ZM277.083 486.127C275.544 487.513 274.192 488.611 273.026 489.421C271.865 490.236 270.622 490.878 269.295 491.346C267.969 491.813 266.502 492.044 264.895 492.037L264.585 489.226C265.989 489.231 267.237 489.055 268.33 488.696C269.428 488.342 270.464 487.827 271.439 487.152C272.418 486.483 273.588 485.535 274.95 484.309L275.224 484.062L277.083 486.127ZM274.217 486.514L271.863 483.9L273.639 482.302L275.992 484.915L274.217 486.514ZM280.589 490.021C278.984 491.466 277.545 492.647 276.272 493.563C275 494.479 273.644 495.221 272.206 495.789C270.772 496.363 269.223 496.695 267.558 496.787L267.248 493.976C268.715 493.868 270.044 493.592 271.234 493.146C272.424 492.7 273.569 492.087 274.67 491.308C275.776 490.524 277.05 489.482 278.493 488.183L278.737 487.963L280.589 490.021ZM277.771 490.461L275.747 488.213L277.522 486.615L279.546 488.862L277.771 490.461ZM287.839 502.562C286.691 503.596 285.476 504.423 284.195 505.043C282.918 505.668 281.618 506.038 280.296 506.153C278.978 506.263 277.723 506.059 276.53 505.542L277.142 502.742C278.187 503.208 279.256 503.414 280.348 503.36C281.449 503.307 282.498 503.052 283.495 502.596C284.497 502.135 285.412 501.532 286.24 500.787L287.642 499.524L289.241 501.3L287.839 502.562ZM288.257 503.027C287.47 503.736 286.815 504.541 286.294 505.443C285.782 506.346 285.455 507.321 285.313 508.369C285.18 509.417 285.304 510.474 285.684 511.539L282.906 511.902C282.477 510.66 282.369 509.405 282.58 508.138C282.797 506.877 283.261 505.672 283.975 504.523C284.689 503.375 285.599 502.302 286.707 501.305L288.109 500.042L289.659 501.764L288.257 503.027ZM291.323 505.344L284.208 497.442L285.991 495.836L293.106 503.738L291.323 505.344ZM283.516 518.541L281.506 516.308L295.497 503.711L297.507 505.944L283.516 518.541ZM199.581 464.54L197.598 462.338L208.023 452.952L210.005 455.154L199.581 464.54ZM205.672 462.34L203.483 459.909L205.274 458.296L207.463 460.727L205.672 462.34ZM204.325 455.067L196.867 446.783L198.574 445.247L206.032 453.53L204.325 455.067ZM200.202 451.3C200.806 451.971 201.229 452.675 201.471 453.414C201.718 454.148 201.764 454.848 201.608 455.512C201.457 456.182 201.112 456.759 200.573 457.244C200.045 457.72 199.445 457.993 198.773 458.065C198.106 458.141 197.42 458.018 196.716 457.695C196.017 457.368 195.365 456.87 194.762 456.199C194.149 455.518 193.714 454.811 193.457 454.076C193.21 453.342 193.155 452.642 193.291 451.976C193.432 451.316 193.767 450.747 194.295 450.272C194.834 449.787 195.444 449.504 196.126 449.424C196.812 449.348 197.508 449.472 198.212 449.795C198.926 450.118 199.589 450.619 200.202 451.3ZM198.518 452.816C198.276 452.547 198.023 452.343 197.759 452.203C197.495 452.063 197.232 452.011 196.969 452.045C196.71 452.085 196.464 452.21 196.23 452.421C196.012 452.617 195.872 452.84 195.81 453.088C195.753 453.342 195.778 453.609 195.884 453.891C195.996 454.168 196.173 454.441 196.415 454.71C196.667 454.99 196.922 455.197 197.181 455.331C197.45 455.466 197.716 455.521 197.978 455.496C198.241 455.471 198.482 455.361 198.7 455.164C198.934 454.953 199.079 454.717 199.137 454.453C199.194 454.19 199.167 453.92 199.056 453.643C198.949 453.371 198.77 453.096 198.518 452.816ZM202.47 451.245L200.488 449.043L202.728 447.025L204.711 449.228L202.47 451.245ZM196.67 467.989L187.998 458.357L189.758 456.772L198.431 466.404L196.67 467.989ZM190.987 459.653L189.004 457.451L192.113 454.652L194.096 456.854L190.987 459.653ZM215.899 472.518L212.742 469.012L214.495 467.434L217.651 470.94L215.899 472.518ZM212.486 478.612L210.524 476.433L220.819 467.163L222.781 469.342L212.486 478.612ZM209.295 482.01L200.574 472.324L202.335 470.739L211.055 480.425L209.295 482.01ZM203.309 473.891L201.306 471.666L205.055 468.29L207.058 470.515L203.309 473.891ZM211.675 462.923L213.809 465.293L215.843 463.461L217.805 465.64L210.566 472.158L204.474 465.392L211.713 458.873L213.709 461.091L211.675 462.923ZM210.319 468.435L212.155 466.782L210.021 464.412L208.185 466.065L210.319 468.435ZM224.518 484.957L222.515 482.731L224.252 481.167L226.256 483.392L224.518 484.957ZM221.253 495.72L219.367 493.624L233.357 481.027L235.244 483.123L221.253 495.72ZM219.222 492.223L217.363 490.158L230.546 478.288L232.405 480.353L219.222 492.223ZM226.181 474.973C226.749 475.603 227.037 476.337 227.046 477.175C227.056 478.013 226.789 478.906 226.245 479.856C225.706 480.81 224.913 481.758 223.867 482.701C222.82 483.643 221.792 484.334 220.781 484.775C219.781 485.216 218.861 485.391 218.024 485.299C217.187 485.206 216.479 484.85 215.902 484.229C215.359 483.605 215.087 482.875 215.087 482.037C215.088 481.2 215.362 480.309 215.91 479.365C216.463 478.416 217.263 477.471 218.309 476.528C219.366 475.577 220.39 474.88 221.381 474.439C222.372 473.997 223.282 473.822 224.11 473.914C224.942 474.01 225.633 474.364 226.181 474.973ZM224.101 476.846C223.91 476.614 223.632 476.519 223.267 476.563C222.911 476.607 222.473 476.795 221.952 477.126C221.431 477.457 220.825 477.933 220.134 478.555C219.444 479.177 218.904 479.732 218.515 480.22C218.132 480.704 217.899 481.12 217.818 481.469C217.747 481.818 217.811 482.105 218.013 482.329C218.228 482.567 218.513 482.669 218.868 482.635C219.233 482.601 219.68 482.423 220.21 482.102C220.745 481.777 221.358 481.303 222.049 480.681C222.74 480.059 223.272 479.501 223.647 479.008C224.021 478.515 224.244 478.088 224.316 477.729C224.398 477.37 224.326 477.076 224.101 476.846ZM230.179 495.948L228.231 493.784L235.691 486.638L238.072 489.283L230.179 495.948ZM225.692 498.029C225.468 497.78 225.323 497.492 225.258 497.164C225.193 496.836 225.21 496.518 225.308 496.208C225.416 495.899 225.595 495.633 225.844 495.409C226.083 495.194 226.359 495.051 226.672 494.98C226.995 494.91 227.314 494.927 227.628 495.03C227.942 495.134 228.211 495.31 228.435 495.559C228.655 495.803 228.797 496.084 228.863 496.402C228.933 496.725 228.919 497.046 228.82 497.365C228.726 497.68 228.559 497.944 228.321 498.159C228.072 498.384 227.783 498.528 227.456 498.593C227.133 498.654 226.812 498.635 226.493 498.536C226.179 498.442 225.912 498.273 225.692 498.029Z" fill="#FBFBFB"/>
<path d="M417.31 621.591L439.026 622.906L383.437 560.098L341.392 582.238L394.269 641.983L415.986 643.298L405.794 631.783L427.502 633.106L417.31 621.591Z" fill="#FBFBFB"/>
<path d="M381.206 604.233L348.3 633.357L309.131 558.491L343.422 536.051L381.206 604.233Z" fill="#FBFBFB"/>
</g>
<path d="M40.7852 623.678H24.8711V620.588H40.7852V623.678ZM45.543 640.699H22.6699V637.514H45.543V640.699ZM31.1875 638.525H27.2637V629.748H31.1875V638.525ZM43.6699 622.912C43.6699 624.298 43.6562 625.51 43.6289 626.549C43.6016 627.588 43.515 628.796 43.3691 630.172C43.2324 631.539 43.0182 633.029 42.7266 634.643L38.8438 634.287C39.1172 632.783 39.3132 631.366 39.4316 630.035C39.5592 628.695 39.6367 627.51 39.6641 626.48C39.6914 625.451 39.7051 624.261 39.7051 622.912V620.588H43.6699V622.912ZM37.4219 638.525H33.5391V629.748H37.4219V638.525ZM68.5527 643.611H64.7793V618.51H68.5527V643.611ZM65.7773 631.211H61.7441V628.066H65.7773V631.211ZM62.8516 642.436H59.1465V618.92H62.8516V642.436ZM51.7227 635.723H47.7988V621.23H51.7227V635.723ZM49.5215 634.232C50.9434 634.232 52.3333 634.182 53.6914 634.082C55.0586 633.973 56.4486 633.786 57.8613 633.521L58.2578 636.898C56.7083 637.154 55.2135 637.34 53.7734 637.459C52.3424 637.568 50.9251 637.623 49.5215 637.623H47.7988V634.232H49.5215ZM88.623 634.082C90.4733 634.082 92.0684 634.269 93.4082 634.643C94.7572 635.016 95.7962 635.563 96.5254 636.283C97.2637 637.003 97.6328 637.869 97.6328 638.881C97.6328 639.856 97.2637 640.699 96.5254 641.41C95.7962 642.13 94.7526 642.682 93.3945 643.064C92.0456 643.447 90.4551 643.639 88.623 643.639C86.8184 643.639 85.2415 643.447 83.8926 643.064C82.5436 642.682 81.4954 642.13 80.748 641.41C80.0098 640.699 79.6406 639.856 79.6406 638.881C79.6406 637.878 80.0052 637.017 80.7344 636.297C81.4727 635.568 82.5163 635.016 83.8652 634.643C85.2233 634.269 86.8092 634.082 88.623 634.082ZM88.623 636.98C87.5293 636.98 86.6087 637.053 85.8613 637.199C85.1139 637.336 84.5443 637.546 84.1523 637.828C83.7695 638.102 83.5781 638.452 83.5781 638.881C83.5781 639.282 83.7695 639.615 84.1523 639.879C84.5443 640.143 85.1139 640.339 85.8613 640.467C86.6087 640.594 87.5293 640.658 88.623 640.658C89.735 640.658 90.6647 640.594 91.4121 640.467C92.1686 640.339 92.7428 640.143 93.1348 639.879C93.5267 639.605 93.7227 639.273 93.7227 638.881C93.7227 638.452 93.5267 638.102 93.1348 637.828C92.7428 637.546 92.1686 637.336 91.4121 637.199C90.6647 637.053 89.735 636.98 88.623 636.98ZM95.8555 622.68H79.9277V619.604H95.8555V622.68ZM100.176 632.742H77.4121V629.57H100.176V632.742ZM89.5391 630.404H85.6426V625.318H89.5391V630.404ZM97.5371 621.641C97.5371 622.99 97.4961 624.165 97.4141 625.168C97.3411 626.161 97.1406 627.232 96.8125 628.381L92.9297 628.012C93.2214 626.854 93.3991 625.833 93.4629 624.949C93.5358 624.065 93.5768 622.962 93.5859 621.641V619.604H97.5371V621.641ZM120.287 625.072H112.904V621.928H120.287V625.072ZM120.287 631.156H112.904V628.025H120.287V631.156ZM122.789 636.83H118.879V618.564H122.789V636.83ZM123.363 643.229H105.973V640.07H123.363V643.229ZM109.91 641.738H105.973V635.012H109.91V641.738ZM108.57 619.973C109.801 619.973 110.917 620.26 111.92 620.834C112.932 621.399 113.738 622.183 114.34 623.186C114.951 624.188 115.256 625.314 115.256 626.562C115.256 627.784 114.951 628.896 114.34 629.898C113.738 630.892 112.927 631.676 111.906 632.25C110.895 632.824 109.783 633.111 108.57 633.111C107.312 633.111 106.169 632.824 105.139 632.25C104.118 631.676 103.311 630.892 102.719 629.898C102.135 628.896 101.844 627.784 101.844 626.562C101.844 625.314 102.135 624.188 102.719 623.186C103.311 622.174 104.118 621.385 105.139 620.82C106.169 620.255 107.312 619.973 108.57 619.973ZM108.57 623.473C107.987 623.454 107.467 623.568 107.012 623.814C106.556 624.051 106.201 624.407 105.945 624.881C105.69 625.355 105.562 625.915 105.562 626.562C105.562 627.201 105.69 627.747 105.945 628.203C106.201 628.659 106.556 629.005 107.012 629.242C107.467 629.479 107.987 629.607 108.57 629.625C109.117 629.607 109.614 629.479 110.061 629.242C110.516 629.005 110.867 628.659 111.113 628.203C111.368 627.738 111.496 627.191 111.496 626.562C111.496 625.915 111.368 625.355 111.113 624.881C110.867 624.407 110.516 624.051 110.061 623.814C109.614 623.568 109.117 623.454 108.57 623.473ZM150.352 627.684H145.826V624.512H150.352V627.684ZM153.277 633.426H149.367V618.51H153.277V633.426ZM144.637 633.891C146.441 633.891 147.995 634.082 149.299 634.465C150.602 634.848 151.605 635.408 152.307 636.146C153.008 636.885 153.359 637.764 153.359 638.785C153.359 639.797 153.008 640.667 152.307 641.396C151.605 642.126 150.602 642.686 149.299 643.078C147.995 643.47 146.441 643.666 144.637 643.666C142.85 643.666 141.301 643.47 139.988 643.078C138.685 642.686 137.682 642.126 136.98 641.396C136.288 640.667 135.941 639.797 135.941 638.785C135.941 637.764 136.288 636.885 136.98 636.146C137.682 635.408 138.685 634.848 139.988 634.465C141.301 634.082 142.85 633.891 144.637 633.891ZM144.637 636.857C143.579 636.857 142.695 636.926 141.984 637.062C141.283 637.19 140.749 637.4 140.385 637.691C140.029 637.974 139.852 638.339 139.852 638.785C139.852 639.204 140.029 639.56 140.385 639.852C140.749 640.134 141.283 640.344 141.984 640.48C142.695 640.617 143.579 640.686 144.637 640.686C145.703 640.686 146.592 640.617 147.303 640.48C148.014 640.344 148.547 640.134 148.902 639.852C149.258 639.56 149.436 639.204 149.436 638.785C149.436 638.339 149.258 637.974 148.902 637.691C148.547 637.4 148.014 637.19 147.303 637.062C146.592 636.926 145.703 636.857 144.637 636.857ZM140.918 622.543C140.918 624.211 140.667 625.774 140.166 627.232C139.665 628.682 138.885 629.958 137.828 631.061C136.771 632.154 135.44 632.97 133.836 633.508L131.785 630.391C133.171 629.935 134.305 629.297 135.189 628.477C136.074 627.656 136.716 626.736 137.117 625.715C137.518 624.694 137.719 623.637 137.719 622.543V621.039H140.918V622.543ZM141.738 622.516C141.738 623.527 141.93 624.503 142.312 625.441C142.695 626.38 143.306 627.232 144.145 627.998C144.992 628.755 146.068 629.352 147.371 629.789L145.443 632.865C143.885 632.364 142.586 631.594 141.547 630.555C140.517 629.516 139.756 628.308 139.264 626.932C138.781 625.555 138.539 624.083 138.539 622.516V621.039H141.738V622.516ZM146.537 623.09H132.906V619.945H146.537V623.09ZM179.172 640.795H156.244V637.623H179.172V640.795ZM169.602 638.375H165.719V632.373H169.602V638.375ZM162.52 623.773H172.773V620.068H176.697V633.221H158.582V620.068H162.52V623.773ZM172.773 630.076V626.863H162.52V630.076H172.773ZM189.877 637.145H185.967V631.225H189.877V637.145ZM187.881 619.973C189.157 619.973 190.324 620.242 191.381 620.779C192.438 621.308 193.272 622.046 193.883 622.994C194.503 623.942 194.812 625.013 194.812 626.207C194.812 627.401 194.503 628.472 193.883 629.42C193.272 630.368 192.438 631.106 191.381 631.635C190.324 632.163 189.157 632.428 187.881 632.428C186.568 632.428 185.379 632.163 184.312 631.635C183.255 631.106 182.426 630.368 181.824 629.42C181.223 628.472 180.922 627.401 180.922 626.207C180.922 625.013 181.223 623.942 181.824 622.994C182.426 622.046 183.255 621.308 184.312 620.779C185.379 620.242 186.568 619.973 187.881 619.973ZM187.881 623.295C187.279 623.295 186.742 623.409 186.268 623.637C185.803 623.865 185.434 624.197 185.16 624.635C184.896 625.072 184.764 625.596 184.764 626.207C184.764 626.799 184.896 627.319 185.16 627.766C185.434 628.203 185.807 628.54 186.281 628.777C186.755 629.005 187.288 629.119 187.881 629.119C188.455 629.119 188.975 629.005 189.439 628.777C189.904 628.54 190.269 628.203 190.533 627.766C190.798 627.319 190.93 626.799 190.93 626.207C190.93 625.596 190.798 625.077 190.533 624.648C190.269 624.211 189.909 623.878 189.453 623.65C188.997 623.413 188.473 623.295 187.881 623.295ZM200.527 643.611H196.59V618.51H200.527V643.611ZM203.713 631.498H199.297V628.203H203.713V631.498ZM180.143 635.559C182.476 635.549 184.34 635.536 185.734 635.518C187.129 635.499 188.692 635.445 190.424 635.354C192.165 635.253 193.801 635.098 195.332 634.889L195.592 637.773C193.997 638.092 192.333 638.325 190.602 638.471C188.879 638.607 187.252 638.689 185.721 638.717C184.199 638.735 182.508 638.735 180.648 638.717L180.143 635.559ZM45.5977 675.303H22.6699V672.199H45.5977V675.303ZM36.0684 673.402H32.1992V668.494H36.0684V673.402ZM43 670.299H25.4043V667.223H43V670.299ZM42.877 664.666H29.3145V669.26H25.4043V661.617H42.877V664.666ZM34.0586 676.355C35.8906 676.355 37.4629 676.533 38.7754 676.889C40.0879 677.244 41.0905 677.777 41.7832 678.488C42.4759 679.19 42.8223 680.042 42.8223 681.045C42.8223 682.011 42.4759 682.84 41.7832 683.533C41.0905 684.226 40.0833 684.755 38.7617 685.119C37.4492 685.484 35.8815 685.666 34.0586 685.666C32.2357 685.666 30.6589 685.484 29.3281 685.119C28.0065 684.755 26.9902 684.226 26.2793 683.533C25.5775 682.84 25.2266 682.011 25.2266 681.045C25.2266 680.042 25.5775 679.19 26.2793 678.488C26.9902 677.777 28.0065 677.244 29.3281 676.889C30.6497 676.533 32.2266 676.355 34.0586 676.355ZM34.0586 679.336C32.9557 679.336 32.0488 679.395 31.3379 679.514C30.627 679.632 30.0983 679.819 29.752 680.074C29.4056 680.329 29.2324 680.653 29.2324 681.045C29.2324 681.428 29.4056 681.742 29.752 681.988C30.0983 682.225 30.6224 682.403 31.3242 682.521C32.0352 682.631 32.9466 682.686 34.0586 682.686C35.1615 682.686 36.0638 682.631 36.7656 682.521C37.4674 682.403 37.9915 682.221 38.3379 681.975C38.6842 681.729 38.8574 681.419 38.8574 681.045C38.8574 680.653 38.6842 680.329 38.3379 680.074C37.9915 679.819 37.4629 679.632 36.752 679.514C36.041 679.395 35.1432 679.336 34.0586 679.336ZM53.623 662.232C54.9173 662.232 56.0658 662.602 57.0684 663.34C58.0801 664.078 58.8776 665.126 59.4609 666.484C60.0443 667.842 60.3359 669.424 60.3359 671.229C60.3359 673.051 60.0443 674.642 59.4609 676C58.8776 677.358 58.0801 678.406 57.0684 679.145C56.0566 679.883 54.9082 680.252 53.623 680.252C52.3288 680.252 51.1712 679.883 50.1504 679.145C49.1387 678.406 48.3457 677.358 47.7715 676C47.1973 674.642 46.9102 673.051 46.9102 671.229C46.9102 669.424 47.1973 667.842 47.7715 666.484C48.3457 665.126 49.1387 664.078 50.1504 663.34C51.1712 662.602 52.3288 662.232 53.623 662.232ZM53.623 665.801C53.0488 665.783 52.5384 665.983 52.0918 666.402C51.6543 666.822 51.3171 667.437 51.0801 668.248C50.8431 669.059 50.7246 670.053 50.7246 671.229C50.7246 672.413 50.8431 673.416 51.0801 674.236C51.3171 675.048 51.6543 675.658 52.0918 676.068C52.5384 676.469 53.0488 676.67 53.623 676.67C54.2246 676.67 54.7441 676.469 55.1816 676.068C55.6283 675.658 55.9655 675.048 56.1934 674.236C56.4303 673.416 56.5488 672.413 56.5488 671.229C56.5488 670.044 56.4303 669.046 56.1934 668.234C55.9655 667.414 55.6283 666.799 55.1816 666.389C54.7441 665.979 54.2246 665.783 53.623 665.801ZM66.7617 685.611H62.8105V660.51H66.7617V685.611ZM70.3164 673.074H65.9004V669.807H70.3164V673.074ZM92.1777 685.68H88.2539V660.51H92.1777V685.68ZM74.6641 676.656C77.0339 676.665 79.1484 676.611 81.0078 676.492C82.8763 676.374 84.7585 676.155 86.6543 675.836L86.9961 679.008C85.1549 679.345 83.2865 679.577 81.3906 679.705C79.4948 679.824 77.2526 679.883 74.6641 679.883H72.3672V676.656H74.6641ZM84.3438 672.459H76.4414V677.873H72.3672V669.383H80.3242V665.719H72.3535V662.561H84.3438V672.459ZM119.863 669.684H115.338V666.512H119.863V669.684ZM122.789 675.426H118.879V660.51H122.789V675.426ZM114.148 675.891C115.953 675.891 117.507 676.082 118.811 676.465C120.114 676.848 121.117 677.408 121.818 678.146C122.52 678.885 122.871 679.764 122.871 680.785C122.871 681.797 122.52 682.667 121.818 683.396C121.117 684.126 120.114 684.686 118.811 685.078C117.507 685.47 115.953 685.666 114.148 685.666C112.362 685.666 110.812 685.47 109.5 685.078C108.197 684.686 107.194 684.126 106.492 683.396C105.799 682.667 105.453 681.797 105.453 680.785C105.453 679.764 105.799 678.885 106.492 678.146C107.194 677.408 108.197 676.848 109.5 676.465C110.812 676.082 112.362 675.891 114.148 675.891ZM114.148 678.857C113.091 678.857 112.207 678.926 111.496 679.062C110.794 679.19 110.261 679.4 109.896 679.691C109.541 679.974 109.363 680.339 109.363 680.785C109.363 681.204 109.541 681.56 109.896 681.852C110.261 682.134 110.794 682.344 111.496 682.48C112.207 682.617 113.091 682.686 114.148 682.686C115.215 682.686 116.104 682.617 116.814 682.48C117.525 682.344 118.059 682.134 118.414 681.852C118.77 681.56 118.947 681.204 118.947 680.785C118.947 680.339 118.77 679.974 118.414 679.691C118.059 679.4 117.525 679.19 116.814 679.062C116.104 678.926 115.215 678.857 114.148 678.857ZM110.43 664.543C110.43 666.211 110.179 667.774 109.678 669.232C109.176 670.682 108.397 671.958 107.34 673.061C106.283 674.154 104.952 674.97 103.348 675.508L101.297 672.391C102.682 671.935 103.817 671.297 104.701 670.477C105.585 669.656 106.228 668.736 106.629 667.715C107.03 666.694 107.23 665.637 107.23 664.543V663.039H110.43V664.543ZM111.25 664.516C111.25 665.527 111.441 666.503 111.824 667.441C112.207 668.38 112.818 669.232 113.656 669.998C114.504 670.755 115.579 671.352 116.883 671.789L114.955 674.865C113.396 674.364 112.098 673.594 111.059 672.555C110.029 671.516 109.268 670.308 108.775 668.932C108.292 667.555 108.051 666.083 108.051 664.516V663.039H111.25V664.516ZM116.049 665.09H102.418V661.945H116.049V665.09ZM148.684 682.795H125.756V679.623H148.684V682.795ZM139.113 680.375H135.23V674.373H139.113V680.375ZM132.031 665.773H142.285V662.068H146.209V675.221H128.094V662.068H132.031V665.773ZM142.285 672.076V668.863H132.031V672.076H142.285ZM165.691 675.631H161.754V671.926H165.691V675.631ZM176.438 677.682H172.486V660.564H176.438V677.682ZM179.486 670.818H175.084V667.605H179.486V670.818ZM155.916 674.25C157.757 674.25 159.521 674.232 161.207 674.195C162.893 674.159 164.63 674.095 166.416 674.004C168.202 673.904 169.884 673.762 171.461 673.58L171.734 676.26C169.419 676.661 167.04 676.925 164.598 677.053C162.155 677.171 159.389 677.24 156.299 677.258L155.916 674.25ZM176.438 685.611H172.486V681.619H159.115V678.598H176.438V685.611ZM170.859 665.076H156.559V662.26H170.859V665.076ZM163.709 665.527C164.949 665.527 166.038 665.678 166.977 665.979C167.924 666.279 168.654 666.712 169.164 667.277C169.684 667.842 169.943 668.508 169.943 669.273C169.943 670.039 169.684 670.704 169.164 671.27C168.654 671.835 167.924 672.272 166.977 672.582C166.038 672.892 164.949 673.047 163.709 673.047C162.469 673.047 161.376 672.892 160.428 672.582C159.48 672.272 158.746 671.835 158.227 671.27C157.716 670.704 157.461 670.039 157.461 669.273C157.461 668.508 157.716 667.842 158.227 667.277C158.746 666.712 159.48 666.279 160.428 665.979C161.376 665.678 162.469 665.527 163.709 665.527ZM163.709 668.111C163.153 668.111 162.693 668.152 162.328 668.234C161.973 668.316 161.699 668.439 161.508 668.604C161.316 668.768 161.221 668.991 161.221 669.273C161.221 669.547 161.316 669.77 161.508 669.943C161.699 670.117 161.977 670.249 162.342 670.34C162.715 670.431 163.171 670.477 163.709 670.477C164.247 670.477 164.693 670.431 165.049 670.34C165.413 670.249 165.687 670.117 165.869 669.943C166.061 669.77 166.156 669.547 166.156 669.273C166.156 668.991 166.061 668.768 165.869 668.604C165.687 668.439 165.418 668.316 165.062 668.234C164.716 668.152 164.265 668.111 163.709 668.111ZM165.691 663.559H161.754V660.346H165.691V663.559ZM201.512 678.475H197.561V660.564H201.512V678.475ZM202.154 685.229H184.518V682.07H202.154V685.229ZM188.51 683.41H184.518V676.697H188.51V683.41ZM187.703 662.096C188.988 662.096 190.164 662.369 191.23 662.916C192.297 663.463 193.131 664.224 193.732 665.199C194.343 666.174 194.648 667.264 194.648 668.467C194.648 669.697 194.343 670.805 193.732 671.789C193.131 672.764 192.297 673.53 191.23 674.086C190.164 674.633 188.988 674.906 187.703 674.906C186.418 674.906 185.247 674.633 184.189 674.086C183.132 673.53 182.294 672.764 181.674 671.789C181.063 670.805 180.758 669.697 180.758 668.467C180.758 667.264 181.063 666.174 181.674 665.199C182.294 664.224 183.132 663.463 184.189 662.916C185.247 662.369 186.418 662.096 187.703 662.096ZM187.703 665.527C187.111 665.509 186.577 665.618 186.104 665.855C185.63 666.083 185.26 666.421 184.996 666.867C184.732 667.314 184.6 667.847 184.6 668.467C184.6 669.096 184.732 669.643 184.996 670.107C185.26 670.563 185.63 670.905 186.104 671.133C186.577 671.361 187.111 671.475 187.703 671.475C188.286 671.475 188.806 671.361 189.262 671.133C189.727 670.905 190.091 670.563 190.355 670.107C190.62 669.643 190.752 669.096 190.752 668.467C190.752 667.847 190.62 667.314 190.355 666.867C190.091 666.421 189.727 666.083 189.262 665.855C188.806 665.618 188.286 665.509 187.703 665.527ZM227.516 676.342H204.643V673.238H227.516V676.342ZM224.891 685.229H207.336V682.07H224.891V685.229ZM211.273 683.082H207.336V677.859H211.273V683.082ZM216.072 661.262C217.904 661.262 219.513 661.471 220.898 661.891C222.293 662.301 223.368 662.898 224.125 663.682C224.882 664.465 225.26 665.386 225.26 666.443C225.26 667.501 224.882 668.426 224.125 669.219C223.368 670.012 222.293 670.622 220.898 671.051C219.513 671.47 217.904 671.689 216.072 671.707C214.222 671.689 212.6 671.47 211.205 671.051C209.82 670.622 208.744 670.012 207.979 669.219C207.222 668.426 206.844 667.501 206.844 666.443C206.844 665.386 207.222 664.465 207.979 663.682C208.744 662.898 209.82 662.301 211.205 661.891C212.6 661.471 214.222 661.262 216.072 661.262ZM216.072 664.352C214.969 664.352 214.035 664.429 213.27 664.584C212.504 664.739 211.921 664.976 211.52 665.295C211.128 665.605 210.932 665.988 210.932 666.443C210.932 666.899 211.123 667.286 211.506 667.605C211.898 667.915 212.477 668.143 213.242 668.289C214.017 668.435 214.96 668.508 216.072 668.508C217.175 668.508 218.105 668.435 218.861 668.289C219.627 668.143 220.206 667.915 220.598 667.605C220.99 667.286 221.186 666.899 221.186 666.443C221.186 665.988 220.99 665.605 220.598 665.295C220.206 664.976 219.627 664.739 218.861 664.584C218.105 664.429 217.175 664.352 216.072 664.352ZM45.5977 724.781H22.6699V721.568H45.5977V724.781ZM36.0273 722.293H32.1445V716.236H36.0273V722.293ZM43.1367 716.756H25.0078V704.314H43.1367V716.756ZM28.8906 713.693H39.2402V707.445H28.8906V713.693ZM67.1445 714.391H49.6719V711.328H67.1445V714.391ZM69.7695 719.777H46.8418V716.674H69.7695V719.777ZM60.1719 727.584H56.2754V718.479H60.1719V727.584ZM66.9395 706.939H53.7188V712.791H49.6719V703.822H66.9395V706.939ZM164.01 714.773H160.018V711.656H164.01V714.773ZM171.762 727.611H168.002V702.51H171.762V727.611ZM166.484 726.504H162.779V702.852H166.484V726.504ZM155.602 704.219C156.732 704.219 157.716 704.588 158.555 705.326C159.393 706.064 160.04 707.126 160.496 708.512C160.961 709.897 161.193 711.529 161.193 713.406C161.193 715.284 160.961 716.92 160.496 718.314C160.04 719.7 159.393 720.766 158.555 721.514C157.716 722.261 156.732 722.644 155.602 722.662C154.499 722.644 153.533 722.261 152.703 721.514C151.874 720.766 151.236 719.7 150.789 718.314C150.342 716.92 150.119 715.284 150.119 713.406C150.119 711.51 150.342 709.874 150.789 708.498C151.236 707.122 151.874 706.064 152.703 705.326C153.542 704.588 154.508 704.219 155.602 704.219ZM155.602 707.951C155.201 707.933 154.859 708.124 154.576 708.525C154.303 708.917 154.098 709.519 153.961 710.33C153.824 711.141 153.756 712.167 153.756 713.406C153.756 714.646 153.824 715.676 153.961 716.496C154.098 717.307 154.303 717.909 154.576 718.301C154.859 718.684 155.201 718.875 155.602 718.875C156.03 718.875 156.385 718.684 156.668 718.301C156.96 717.909 157.183 717.307 157.338 716.496C157.493 715.676 157.57 714.646 157.57 713.406C157.57 712.167 157.493 711.141 157.338 710.33C157.183 709.519 156.96 708.917 156.668 708.525C156.385 708.124 156.03 707.933 155.602 707.951ZM193.486 713.365H186.951V710.207H193.486V713.365ZM183.027 707.855C183.027 710.116 182.79 712.212 182.316 714.145C181.852 716.077 181.104 717.786 180.074 719.271C179.044 720.748 177.727 721.883 176.123 722.676L173.676 719.449C175.107 718.811 176.283 717.895 177.203 716.701C178.124 715.498 178.794 714.145 179.213 712.641C179.641 711.137 179.855 709.542 179.855 707.855V704.369H183.027V707.855ZM183.848 707.855C183.848 709.551 184.044 711.132 184.436 712.6C184.837 714.058 185.479 715.352 186.363 716.482C187.247 717.613 188.382 718.479 189.768 719.08L187.361 722.211C185.794 721.454 184.513 720.37 183.52 718.957C182.535 717.544 181.82 715.908 181.373 714.049C180.926 712.18 180.703 710.116 180.703 707.855V704.369H183.848V707.855ZM195.428 727.68H191.518V702.51H195.428V727.68Z" fill="#121212"/>
<path d="M100.285 724.781H77.3574V721.568H100.285V724.781ZM90.7148 722.293H86.832V716.236H90.7148V722.293ZM97.8242 716.756H79.6953V704.314H97.8242V716.756ZM83.5781 713.693H93.9277V707.445H83.5781V713.693ZM124.484 724.795H101.557V721.623H124.484V724.795ZM114.914 722.375H111.031V716.373H114.914V722.375ZM107.832 707.773H118.086V704.068H122.01V717.221H103.895V704.068H107.832V707.773ZM118.086 714.076V710.863H107.832V714.076H118.086ZM145.922 727.611H141.957V702.51H145.922V727.611ZM149.08 715.43H144.691V712.203H149.08V715.43ZM133.18 705.066C133.18 707.828 133.061 710.148 132.824 712.025C132.596 713.903 132.122 715.708 131.402 717.439C130.682 719.171 129.602 720.83 128.162 722.416L125.1 720.215C126.357 718.829 127.296 717.435 127.916 716.031C128.545 714.628 128.96 713.142 129.16 711.574C129.37 710.007 129.475 708.001 129.475 705.559V705.066H133.18ZM131.006 708.252H126.316V705.066H131.006V708.252ZM140.166 705.066C140.166 707.947 140.052 710.426 139.824 712.504C139.596 714.582 139.122 716.587 138.402 718.52C137.691 720.452 136.639 722.284 135.244 724.016L132.182 721.814C133.385 720.265 134.296 718.702 134.916 717.125C135.536 715.548 135.951 713.867 136.16 712.08C136.37 710.285 136.475 708.092 136.475 705.504V705.066H140.166ZM138.088 708.252H134.055V705.066H138.088V708.252Z" fill="#FF3D12"/>
<defs>
<filter id="filter0_f_7285_74224" x="-184.598" y="-63.2832" width="1113.4" height="729.396" filterUnits="userSpaceOnUse" color-interpolation-filters="sRGB">
<feFlood flood-opacity="0" result="BackgroundImageFix"/>
<feBlend mode="normal" in="SourceGraphic" in2="BackgroundImageFix" result="shape"/>
<feGaussianBlur stdDeviation="2" result="effect1_foregroundBlur_7285_74224"/>
</filter>
<filter id="filter1_d_7285_74224" x="293.863" y="137.541" width="201.402" height="385.994" filterUnits="userSpaceOnUse" color-interpolation-filters="sRGB">
<feFlood flood-opacity="0" result="BackgroundImageFix"/>
<feColorMatrix in="SourceAlpha" type="matrix" values="0 0 0 0 0 0 0 0 0 0 0 0 0 0 0 0 0 0 127 0" result="hardAlpha"/>
<feOffset dx="6" dy="6"/>
<feGaussianBlur stdDeviation="7.5"/>
<feComposite in2="hardAlpha" operator="out"/>
<feColorMatrix type="matrix" values="0 0 0 0 0 0 0 0 0 0 0 0 0 0 0 0 0 0 0.45 0"/>
<feBlend mode="normal" in2="BackgroundImageFix" result="effect1_dropShadow_7285_74224"/>
<feBlend mode="normal" in="SourceGraphic" in2="effect1_dropShadow_7285_74224" result="shape"/>
</filter>
<filter id="filter2_d_7285_74224" x="344.691" y="-68.2832" width="601.109" height="591.819" filterUnits="userSpaceOnUse" color-interpolation-filters="sRGB">
<feFlood flood-opacity="0" result="BackgroundImageFix"/>
<feColorMatrix in="SourceAlpha" type="matrix" values="0 0 0 0 0 0 0 0 0 0 0 0 0 0 0 0 0 0 127 0" result="hardAlpha"/>
<feOffset dx="6" dy="6"/>
<feGaussianBlur stdDeviation="7.5"/>
<feComposite in2="hardAlpha" operator="out"/>
<feColorMatrix type="matrix" values="0 0 0 0 0 0 0 0 0 0 0 0 0 0 0 0 0 0 0.45 0"/>
<feBlend mode="normal" in2="BackgroundImageFix" result="effect1_dropShadow_7285_74224"/>
<feBlend mode="normal" in="SourceGraphic" in2="effect1_dropShadow_7285_74224" result="shape"/>
</filter>
<filter id="filter3_d_7285_74224" x="-189.598" y="137.541" width="635.012" height="545.571" filterUnits="userSpaceOnUse" color-interpolation-filters="sRGB">
<feFlood flood-opacity="0" result="BackgroundImageFix"/>
<feColorMatrix in="SourceAlpha" type="matrix" values="0 0 0 0 0 0 0 0 0 0 0 0 0 0 0 0 0 0 127 0" result="hardAlpha"/>
<feOffset dx="6" dy="6"/>
<feGaussianBlur stdDeviation="7.5"/>
<feComposite in2="hardAlpha" operator="out"/>
<feColorMatrix type="matrix" values="0 0 0 0 0 0 0 0 0 0 0 0 0 0 0 0 0 0 0.45 0"/>
<feBlend mode="normal" in2="BackgroundImageFix" result="effect1_dropShadow_7285_74224"/>
<feBlend mode="normal" in="SourceGraphic" in2="effect1_dropShadow_7285_74224" result="shape"/>
</filter>
<filter id="filter4_d_7285_74224" x="-100.785" y="84.5439" width="821.141" height="897.188" filterUnits="userSpaceOnUse" color-interpolation-filters="sRGB">
<feFlood flood-opacity="0" result="BackgroundImageFix"/>
<feColorMatrix in="SourceAlpha" type="matrix" values="0 0 0 0 0 0 0 0 0 0 0 0 0 0 0 0 0 0 127 0" result="hardAlpha"/>
<feOffset dx="6" dy="6"/>
<feGaussianBlur stdDeviation="7.5"/>
<feComposite in2="hardAlpha" operator="out"/>
<feColorMatrix type="matrix" values="0 0 0 0 0 0 0 0 0 0 0 0 0 0 0 0 0 0 0.45 0"/>
<feBlend mode="normal" in2="BackgroundImageFix" result="effect1_dropShadow_7285_74224"/>
<feBlend mode="normal" in="SourceGraphic" in2="effect1_dropShadow_7285_74224" result="shape"/>
</filter>
<clipPath id="clip0_7285_74224">
<rect width="226.5" height="71.2224" fill="white" transform="translate(-60.7617 491.127) rotate(-40.6116)"/>
</clipPath>
<clipPath id="clip1_7285_74224">
<rect width="475.957" height="121.871" fill="white" transform="matrix(0.937919 -0.346853 0.845816 0.533474 222.25 170.212)"/>
</clipPath>
<clipPath id="clip2_7285_74224">
<rect width="226.5" height="71.2224" fill="white" transform="translate(65.6953 207.48) rotate(48.3231)"/>
</clipPath>
</defs>
</svg>
