<svg width="155" height="23" viewBox="0 0 155 23" fill="none" xmlns="http://www.w3.org/2000/svg">
<path d="M20.2266 13.4023H0.574219V10.7422H20.2266V13.4023ZM12.0586 11.7734H8.74219V7.56641H12.0586V11.7734ZM18 9.11328H2.91797V6.47656H18V9.11328ZM17.8945 4.28516H6.26953V8.22266H2.91797V1.67188H17.8945V4.28516ZM10.3359 14.3047C11.9062 14.3047 13.2539 14.457 14.3789 14.7617C15.5039 15.0664 16.3633 15.5234 16.957 16.1328C17.5508 16.7344 17.8477 17.4648 17.8477 18.3242C17.8477 19.1523 17.5508 19.8633 16.957 20.457C16.3633 21.0508 15.5 21.5039 14.3672 21.8164C13.2422 22.1289 11.8984 22.2852 10.3359 22.2852C8.77344 22.2852 7.42188 22.1289 6.28125 21.8164C5.14844 21.5039 4.27734 21.0508 3.66797 20.457C3.06641 19.8633 2.76562 19.1523 2.76562 18.3242C2.76562 17.4648 3.06641 16.7344 3.66797 16.1328C4.27734 15.5234 5.14844 15.0664 6.28125 14.7617C7.41406 14.457 8.76562 14.3047 10.3359 14.3047ZM10.3359 16.8594C9.39062 16.8594 8.61328 16.9102 8.00391 17.0117C7.39453 17.1133 6.94141 17.2734 6.64453 17.4922C6.34766 17.7109 6.19922 17.9883 6.19922 18.3242C6.19922 18.6523 6.34766 18.9219 6.64453 19.1328C6.94141 19.3359 7.39062 19.4883 7.99219 19.5898C8.60156 19.6836 9.38281 19.7305 10.3359 19.7305C11.2812 19.7305 12.0547 19.6836 12.6562 19.5898C13.2578 19.4883 13.707 19.332 14.0039 19.1211C14.3008 18.9102 14.4492 18.6445 14.4492 18.3242C14.4492 17.9883 14.3008 17.7109 14.0039 17.4922C13.707 17.2734 13.2539 17.1133 12.6445 17.0117C12.0352 16.9102 11.2656 16.8594 10.3359 16.8594ZM27.1055 2.19922C28.2148 2.19922 29.1992 2.51562 30.0586 3.14844C30.9258 3.78125 31.6094 4.67969 32.1094 5.84375C32.6094 7.00781 32.8594 8.36328 32.8594 9.91016C32.8594 11.4727 32.6094 12.8359 32.1094 14C31.6094 15.1641 30.9258 16.0625 30.0586 16.6953C29.1914 17.3281 28.207 17.6445 27.1055 17.6445C25.9961 17.6445 25.0039 17.3281 24.1289 16.6953C23.2617 16.0625 22.582 15.1641 22.0898 14C21.5977 12.8359 21.3516 11.4727 21.3516 9.91016C21.3516 8.36328 21.5977 7.00781 22.0898 5.84375C22.582 4.67969 23.2617 3.78125 24.1289 3.14844C25.0039 2.51562 25.9961 2.19922 27.1055 2.19922ZM27.1055 5.25781C26.6133 5.24219 26.1758 5.41406 25.793 5.77344C25.418 6.13281 25.1289 6.66016 24.9258 7.35547C24.7227 8.05078 24.6211 8.90234 24.6211 9.91016C24.6211 10.9258 24.7227 11.7852 24.9258 12.4883C25.1289 13.1836 25.418 13.707 25.793 14.0586C26.1758 14.4023 26.6133 14.5742 27.1055 14.5742C27.6211 14.5742 28.0664 14.4023 28.4414 14.0586C28.8242 13.707 29.1133 13.1836 29.3086 12.4883C29.5117 11.7852 29.6133 10.9258 29.6133 9.91016C29.6133 8.89453 29.5117 8.03906 29.3086 7.34375C29.1133 6.64062 28.8242 6.11328 28.4414 5.76172C28.0664 5.41016 27.6211 5.24219 27.1055 5.25781ZM38.3672 22.2383H34.9805V0.722656H38.3672V22.2383ZM41.4141 11.4922H37.6289V8.69141H41.4141V11.4922ZM60.1523 22.2969H56.7891V0.722656H60.1523V22.2969ZM45.1406 14.5625C47.1719 14.5703 48.9844 14.5234 50.5781 14.4219C52.1797 14.3203 53.793 14.1328 55.418 13.8594L55.7109 16.5781C54.1328 16.8672 52.5312 17.0664 50.9062 17.1758C49.2812 17.2773 47.3594 17.3281 45.1406 17.3281H43.1719V14.5625H45.1406ZM53.4375 10.9648H46.6641V15.6055H43.1719V8.32812H49.9922V5.1875H43.1602V2.48047H53.4375V10.9648ZM83.8828 8.58594H80.0039V5.86719H83.8828V8.58594ZM86.3906 13.5078H83.0391V0.722656H86.3906V13.5078ZM78.9844 13.9062C80.5312 13.9062 81.8633 14.0703 82.9805 14.3984C84.0977 14.7266 84.957 15.207 85.5586 15.8398C86.1602 16.4727 86.4609 17.2266 86.4609 18.1016C86.4609 18.9688 86.1602 19.7148 85.5586 20.3398C84.957 20.9648 84.0977 21.4453 82.9805 21.7812C81.8633 22.1172 80.5312 22.2852 78.9844 22.2852C77.4531 22.2852 76.125 22.1172 75 21.7812C73.8828 21.4453 73.0234 20.9648 72.4219 20.3398C71.8281 19.7148 71.5312 18.9688 71.5312 18.1016C71.5312 17.2266 71.8281 16.4727 72.4219 15.8398C73.0234 15.207 73.8828 14.7266 75 14.3984C76.125 14.0703 77.4531 13.9062 78.9844 13.9062ZM78.9844 16.4492C78.0781 16.4492 77.3203 16.5078 76.7109 16.625C76.1094 16.7344 75.6523 16.9141 75.3398 17.1641C75.0352 17.4062 74.8828 17.7188 74.8828 18.1016C74.8828 18.4609 75.0352 18.7656 75.3398 19.0156C75.6523 19.2578 76.1094 19.4375 76.7109 19.5547C77.3203 19.6719 78.0781 19.7305 78.9844 19.7305C79.8984 19.7305 80.6602 19.6719 81.2695 19.5547C81.8789 19.4375 82.3359 19.2578 82.6406 19.0156C82.9453 18.7656 83.0977 18.4609 83.0977 18.1016C83.0977 17.7188 82.9453 17.4062 82.6406 17.1641C82.3359 16.9141 81.8789 16.7344 81.2695 16.625C80.6602 16.5078 79.8984 16.4492 78.9844 16.4492ZM75.7969 4.17969C75.7969 5.60938 75.582 6.94922 75.1523 8.19922C74.7227 9.44141 74.0547 10.5352 73.1484 11.4805C72.2422 12.418 71.1016 13.1172 69.7266 13.5781L67.9688 10.9062C69.1562 10.5156 70.1289 9.96875 70.8867 9.26562C71.6445 8.5625 72.1953 7.77344 72.5391 6.89844C72.8828 6.02344 73.0547 5.11719 73.0547 4.17969V2.89062H75.7969V4.17969ZM76.5 4.15625C76.5 5.02344 76.6641 5.85938 76.9922 6.66406C77.3203 7.46875 77.8438 8.19922 78.5625 8.85547C79.2891 9.50391 80.2109 10.0156 81.3281 10.3906L79.6758 13.0273C78.3398 12.5977 77.2266 11.9375 76.3359 11.0469C75.4531 10.1562 74.8008 9.12109 74.3789 7.94141C73.9648 6.76172 73.7578 5.5 73.7578 4.15625V2.89062H76.5V4.15625ZM80.6133 4.64844H68.9297V1.95312H80.6133V4.64844ZM108.586 19.8242H88.9336V17.1055H108.586V19.8242ZM100.383 17.75H97.0547V12.6055H100.383V17.75ZM94.3125 5.23438H103.102V2.05859H106.465V13.332H90.9375V2.05859H94.3125V5.23438ZM103.102 10.6367V7.88281H94.3125V10.6367H103.102ZM126.059 2.31641C126.059 3.71484 125.715 5.01562 125.027 6.21875C124.348 7.41406 123.328 8.42578 121.969 9.25391C120.617 10.0742 118.977 10.6211 117.047 10.8945L115.734 8.19922C117.375 8.00391 118.75 7.59375 119.859 6.96875C120.977 6.34375 121.793 5.625 122.309 4.8125C122.832 4 123.094 3.16797 123.094 2.31641V1.33203H126.059V2.31641ZM126.656 2.31641C126.656 3.17578 126.918 4.01562 127.441 4.83594C127.973 5.64844 128.793 6.36328 129.902 6.98047C131.02 7.59766 132.402 8.00391 134.051 8.19922L132.762 10.8945C130.824 10.6211 129.176 10.0742 127.816 9.25391C126.457 8.43359 125.43 7.42578 124.734 6.23047C124.047 5.02734 123.703 3.72266 123.703 2.31641V1.33203H126.656V2.31641ZM126.469 22.2383H123.129V14.4336H126.469V22.2383ZM134.672 15.043H115.066V12.2891H134.672V15.043ZM151.5 8.58594H147.621V5.86719H151.5V8.58594ZM154.008 13.5078H150.656V0.722656H154.008V13.5078ZM146.602 13.9062C148.148 13.9062 149.48 14.0703 150.598 14.3984C151.715 14.7266 152.574 15.207 153.176 15.8398C153.777 16.4727 154.078 17.2266 154.078 18.1016C154.078 18.9688 153.777 19.7148 153.176 20.3398C152.574 20.9648 151.715 21.4453 150.598 21.7812C149.48 22.1172 148.148 22.2852 146.602 22.2852C145.07 22.2852 143.742 22.1172 142.617 21.7812C141.5 21.4453 140.641 20.9648 140.039 20.3398C139.445 19.7148 139.148 18.9688 139.148 18.1016C139.148 17.2266 139.445 16.4727 140.039 15.8398C140.641 15.207 141.5 14.7266 142.617 14.3984C143.742 14.0703 145.07 13.9062 146.602 13.9062ZM146.602 16.4492C145.695 16.4492 144.938 16.5078 144.328 16.625C143.727 16.7344 143.27 16.9141 142.957 17.1641C142.652 17.4062 142.5 17.7188 142.5 18.1016C142.5 18.4609 142.652 18.7656 142.957 19.0156C143.27 19.2578 143.727 19.4375 144.328 19.5547C144.938 19.6719 145.695 19.7305 146.602 19.7305C147.516 19.7305 148.277 19.6719 148.887 19.5547C149.496 19.4375 149.953 19.2578 150.258 19.0156C150.562 18.7656 150.715 18.4609 150.715 18.1016C150.715 17.7188 150.562 17.4062 150.258 17.1641C149.953 16.9141 149.496 16.7344 148.887 16.625C148.277 16.5078 147.516 16.4492 146.602 16.4492ZM143.414 4.17969C143.414 5.60938 143.199 6.94922 142.77 8.19922C142.34 9.44141 141.672 10.5352 140.766 11.4805C139.859 12.418 138.719 13.1172 137.344 13.5781L135.586 10.9062C136.773 10.5156 137.746 9.96875 138.504 9.26562C139.262 8.5625 139.812 7.77344 140.156 6.89844C140.5 6.02344 140.672 5.11719 140.672 4.17969V2.89062H143.414V4.17969ZM144.117 4.15625C144.117 5.02344 144.281 5.85938 144.609 6.66406C144.938 7.46875 145.461 8.19922 146.18 8.85547C146.906 9.50391 147.828 10.0156 148.945 10.3906L147.293 13.0273C145.957 12.5977 144.844 11.9375 143.953 11.0469C143.07 10.1562 142.418 9.12109 141.996 7.94141C141.582 6.76172 141.375 5.5 141.375 4.15625V2.89062H144.117V4.15625ZM148.23 4.64844H136.547V1.95312H148.23V4.64844Z" fill="#121212"/>
</svg>
