<svg width="71" height="18" viewBox="0 0 71 18" fill="none" xmlns="http://www.w3.org/2000/svg">
<rect x="0.5" y="2.5" width="13" height="13" rx="2.5" stroke="#3E3E3E"/>
<circle cx="7" cy="9" r="2.5" stroke="#3E3E3E"/>
<circle cx="11" cy="5" r="1" fill="#3E3E3E"/>
<path d="M22.7412 7.16699H23.665V13H22.7412V7.16699ZM23.2031 6.2002C23.0885 6.2002 22.9811 6.17334 22.8809 6.11963C22.7806 6.06592 22.7018 5.99072 22.6445 5.89404C22.5872 5.79736 22.5586 5.69531 22.5586 5.58789C22.5586 5.47331 22.5872 5.36947 22.6445 5.27637C22.7018 5.18327 22.7806 5.10986 22.8809 5.05615C22.9811 5.00244 23.0885 4.97559 23.2031 4.97559C23.3249 4.97559 23.4359 5.00244 23.5361 5.05615C23.6364 5.10986 23.7152 5.18327 23.7725 5.27637C23.8298 5.36947 23.8584 5.47331 23.8584 5.58789C23.8584 5.69531 23.8298 5.79736 23.7725 5.89404C23.7152 5.99072 23.6364 6.06592 23.5361 6.11963C23.4359 6.17334 23.3249 6.2002 23.2031 6.2002ZM26.0605 13H25.1367V7.16699H26.0283V8.08008H26.1035C26.2539 7.76497 26.4688 7.52148 26.748 7.34961C27.0273 7.17773 27.3818 7.0918 27.8115 7.0918C28.2126 7.0918 28.5599 7.17236 28.8535 7.3335C29.1471 7.49463 29.3745 7.73991 29.5356 8.06934C29.6968 8.39876 29.7773 8.80697 29.7773 9.29395V13H28.8535V9.3584C28.8535 9.05762 28.8016 8.7998 28.6978 8.58496C28.5939 8.37012 28.4435 8.2054 28.2466 8.09082C28.0496 7.97624 27.8115 7.91895 27.5322 7.91895C27.2458 7.91895 26.9915 7.97982 26.7695 8.10156C26.5475 8.22331 26.3739 8.40413 26.2485 8.64404C26.1232 8.88395 26.0605 9.16862 26.0605 9.49805V13ZM34.5039 8.68164C34.4395 8.42383 34.3088 8.2251 34.1118 8.08545C33.9149 7.9458 33.6517 7.87598 33.3223 7.87598C33.0859 7.87598 32.8747 7.91357 32.6885 7.98877C32.5023 8.06396 32.3555 8.1696 32.248 8.30566C32.1406 8.44173 32.0869 8.59212 32.0869 8.75684C32.0869 8.9502 32.1693 9.11491 32.334 9.25098C32.4987 9.38704 32.7493 9.49447 33.0859 9.57324L33.9561 9.78809C34.4788 9.90983 34.8691 10.1014 35.127 10.3628C35.3848 10.6242 35.5137 10.959 35.5137 11.3672C35.5137 11.7038 35.4242 12.0046 35.2451 12.2695C35.0661 12.5345 34.8047 12.7422 34.4609 12.8926C34.1172 13.043 33.7054 13.1182 33.2256 13.1182C32.7887 13.1182 32.4128 13.0555 32.0977 12.9302C31.7826 12.8049 31.5301 12.6187 31.3403 12.3716C31.1506 12.1245 31.0306 11.8255 30.9805 11.4746H31.9473C32.0046 11.7539 32.137 11.9634 32.3447 12.103C32.5524 12.2427 32.8389 12.3125 33.2041 12.3125C33.4762 12.3125 33.7144 12.2767 33.9185 12.2051C34.1226 12.1335 34.2801 12.0296 34.3911 11.8936C34.5021 11.7575 34.5576 11.5999 34.5576 11.4209C34.5576 11.2132 34.4806 11.0396 34.3267 10.8999C34.1727 10.7603 33.931 10.6546 33.6016 10.583L32.7207 10.3789C32.2122 10.2572 31.8255 10.062 31.5605 9.79346C31.2956 9.5249 31.1631 9.19727 31.1631 8.81055C31.1631 8.48112 31.2544 8.18571 31.437 7.92432C31.6196 7.66292 31.8739 7.45882 32.1997 7.31201C32.5256 7.1652 32.8997 7.0918 33.3223 7.0918C33.7161 7.0918 34.0635 7.15804 34.3643 7.29053C34.665 7.42301 34.9049 7.60921 35.084 7.84912C35.263 8.08903 35.3704 8.36654 35.4062 8.68164H34.5039ZM39.2627 7.94043H36.2227V7.16699H39.2627V7.94043ZM38.0381 5.77051V11.3242C38.0381 11.5605 38.0721 11.7414 38.1401 11.8667C38.2082 11.992 38.2977 12.078 38.4087 12.1245C38.5197 12.1711 38.6504 12.1943 38.8008 12.1943C38.9798 12.1943 39.1624 12.1872 39.3486 12.1729V13.0322C39.1624 13.0609 38.9476 13.0752 38.7041 13.0752C38.432 13.0752 38.1742 13.0179 37.9307 12.9033C37.6872 12.7887 37.4884 12.6169 37.3345 12.3877C37.1805 12.1585 37.1035 11.8828 37.1035 11.5605V5.77051H38.0381ZM44.0215 10.293C43.957 10.293 43.6455 10.3145 43.0869 10.3574L42.4746 10.4004C42.0378 10.429 41.6994 10.5239 41.4595 10.6851C41.2196 10.8462 41.0996 11.0807 41.0996 11.3887C41.0996 11.5892 41.1515 11.7575 41.2554 11.8936C41.3592 12.0296 41.5042 12.1335 41.6904 12.2051C41.8766 12.2767 42.0879 12.3125 42.3242 12.3125C42.6608 12.3125 42.9508 12.2463 43.1943 12.1138C43.4378 11.9813 43.624 11.8058 43.7529 11.5874C43.8818 11.369 43.9463 11.1344 43.9463 10.8838V9.06836C43.9463 8.81771 43.8979 8.60465 43.8013 8.4292C43.7046 8.25374 43.5578 8.12126 43.3608 8.03174C43.1639 7.94222 42.9186 7.89746 42.625 7.89746C42.2741 7.89746 41.9858 7.96908 41.7603 8.1123C41.5347 8.25553 41.3861 8.44531 41.3145 8.68164H40.3477C40.3906 8.36654 40.5142 8.08903 40.7183 7.84912C40.9224 7.60921 41.1927 7.42301 41.5293 7.29053C41.8659 7.15804 42.2454 7.0918 42.668 7.0918C43.0046 7.0918 43.334 7.14193 43.6562 7.24219C43.9785 7.34245 44.2596 7.54476 44.4995 7.84912C44.7394 8.15348 44.8594 8.58854 44.8594 9.1543V13H43.9463V12.2051H43.9033C43.8317 12.3555 43.7225 12.5005 43.5757 12.6401C43.4289 12.7798 43.2355 12.8979 42.9956 12.9946C42.7557 13.0913 42.4782 13.1396 42.1631 13.1396C41.7907 13.1396 41.4541 13.068 41.1533 12.9248C40.8525 12.7816 40.6144 12.5739 40.439 12.3018C40.2635 12.0296 40.1758 11.7109 40.1758 11.3457C40.1758 10.737 40.3835 10.3091 40.7988 10.062C41.2142 9.81494 41.737 9.66992 42.3672 9.62695C42.4388 9.61979 42.7826 9.59831 43.3984 9.5625L44.0107 9.54102L44.0215 10.293ZM48.7051 15.3096C48.2396 15.3096 47.826 15.2433 47.4644 15.1108C47.1027 14.9784 46.8162 14.785 46.605 14.5308C46.3937 14.2765 46.2702 13.9704 46.2344 13.6123H47.2012C47.2656 13.9059 47.4285 14.1279 47.6899 14.2783C47.9513 14.4287 48.2897 14.5039 48.7051 14.5039C49.2207 14.5039 49.6182 14.3893 49.8975 14.1602C50.1768 13.931 50.3164 13.5801 50.3164 13.1074V11.9258H50.2412C50.141 12.0977 50.0335 12.2498 49.9189 12.3823C49.8044 12.5148 49.6325 12.6366 49.4033 12.7476C49.1742 12.8586 48.8877 12.9141 48.5439 12.9141C48.0713 12.9141 47.647 12.7977 47.271 12.5649C46.895 12.3322 46.5996 11.9956 46.3848 11.5552C46.1699 11.1147 46.0625 10.5973 46.0625 10.0029C46.0625 9.41569 46.1681 8.90186 46.3794 8.46143C46.5907 8.021 46.8843 7.68262 47.2603 7.44629C47.6362 7.20996 48.0677 7.0918 48.5547 7.0918C48.8984 7.0918 49.1831 7.1473 49.4087 7.2583C49.6343 7.3693 49.7972 7.4821 49.8975 7.59668C49.9977 7.71126 50.1195 7.87598 50.2627 8.09082H50.3379V7.16699H51.2402V13.1611C51.2402 13.641 51.131 14.042 50.9126 14.3643C50.6942 14.6865 50.3952 14.9246 50.0156 15.0786C49.6361 15.2326 49.1992 15.3096 48.7051 15.3096ZM48.6729 12.0869C49.0238 12.0869 49.3245 12.0046 49.5752 11.8398C49.8258 11.6751 50.0156 11.4406 50.1445 11.1362C50.2734 10.8319 50.3379 10.4648 50.3379 10.0352C50.3379 9.61263 50.2734 9.24202 50.1445 8.92334C50.0156 8.60465 49.8276 8.35758 49.5806 8.18213C49.3335 8.00667 49.0309 7.91895 48.6729 7.91895C48.3148 7.91895 48.0104 8.01204 47.7598 8.19824C47.5091 8.38444 47.3193 8.63688 47.1904 8.95557C47.0615 9.27425 46.9971 9.63411 46.9971 10.0352C46.9971 10.4434 47.0615 10.8014 47.1904 11.1094C47.3193 11.4173 47.5091 11.6572 47.7598 11.8291C48.0104 12.001 48.3148 12.0869 48.6729 12.0869ZM52.7119 7.16699H53.6035V8.05859H53.668C53.7754 7.75781 53.967 7.5179 54.2427 7.33887C54.5184 7.15983 54.8281 7.07031 55.1719 7.07031C55.3509 7.07031 55.512 7.07747 55.6553 7.0918V8.02637C55.6195 8.01204 55.5443 7.99772 55.4297 7.9834C55.3151 7.96908 55.2041 7.96191 55.0967 7.96191C54.8245 7.96191 54.5775 8.021 54.3555 8.13916C54.1335 8.25732 53.958 8.42025 53.8291 8.62793C53.7002 8.83561 53.6357 9.06836 53.6357 9.32617V13H52.7119V7.16699ZM60.1133 10.293C60.0488 10.293 59.7373 10.3145 59.1787 10.3574L58.5664 10.4004C58.1296 10.429 57.7912 10.5239 57.5513 10.6851C57.3114 10.8462 57.1914 11.0807 57.1914 11.3887C57.1914 11.5892 57.2433 11.7575 57.3472 11.8936C57.451 12.0296 57.596 12.1335 57.7822 12.2051C57.9684 12.2767 58.1797 12.3125 58.416 12.3125C58.7526 12.3125 59.0426 12.2463 59.2861 12.1138C59.5296 11.9813 59.7158 11.8058 59.8447 11.5874C59.9736 11.369 60.0381 11.1344 60.0381 10.8838V9.06836C60.0381 8.81771 59.9897 8.60465 59.8931 8.4292C59.7964 8.25374 59.6496 8.12126 59.4526 8.03174C59.2557 7.94222 59.0104 7.89746 58.7168 7.89746C58.3659 7.89746 58.0776 7.96908 57.8521 8.1123C57.6265 8.25553 57.4779 8.44531 57.4062 8.68164H56.4395C56.4824 8.36654 56.606 8.08903 56.8101 7.84912C57.0142 7.60921 57.2845 7.42301 57.6211 7.29053C57.9577 7.15804 58.3372 7.0918 58.7598 7.0918C59.0964 7.0918 59.4258 7.14193 59.748 7.24219C60.0703 7.34245 60.3514 7.54476 60.5913 7.84912C60.8312 8.15348 60.9512 8.58854 60.9512 9.1543V13H60.0381V12.2051H59.9951C59.9235 12.3555 59.8143 12.5005 59.6675 12.6401C59.5207 12.7798 59.3273 12.8979 59.0874 12.9946C58.8475 13.0913 58.57 13.1396 58.2549 13.1396C57.8825 13.1396 57.5459 13.068 57.2451 12.9248C56.9443 12.7816 56.7062 12.5739 56.5308 12.3018C56.3553 12.0296 56.2676 11.7109 56.2676 11.3457C56.2676 10.737 56.4753 10.3091 56.8906 10.062C57.306 9.81494 57.8288 9.66992 58.459 9.62695C58.5306 9.61979 58.8743 9.59831 59.4902 9.5625L60.1025 9.54102L60.1133 10.293ZM62.4336 7.16699H63.3252V8.08008H63.4004C63.5293 7.76497 63.728 7.52148 63.9966 7.34961C64.2651 7.17773 64.5892 7.0918 64.9688 7.0918C65.2194 7.0918 65.445 7.12939 65.6455 7.20459C65.846 7.27979 66.0197 7.39079 66.1665 7.5376C66.3133 7.68441 66.4333 7.86523 66.5264 8.08008H66.5908C66.6911 7.8724 66.8254 7.69515 66.9937 7.54834C67.1619 7.40153 67.3607 7.28874 67.5898 7.20996C67.819 7.13118 68.0697 7.0918 68.3418 7.0918C68.6999 7.0918 69.0114 7.1652 69.2764 7.31201C69.5413 7.45882 69.749 7.68083 69.8994 7.97803C70.0498 8.27523 70.125 8.64941 70.125 9.10059V13H69.2012V9.11133C69.2012 8.70312 69.0902 8.40234 68.8682 8.20898C68.6462 8.01562 68.3633 7.91895 68.0195 7.91895C67.7546 7.91895 67.5254 7.97445 67.332 8.08545C67.1387 8.19645 66.9919 8.34863 66.8916 8.54199C66.7913 8.73535 66.7412 8.95736 66.7412 9.20801V13H65.8066V9.01465C65.8066 8.7998 65.7583 8.60824 65.6616 8.43994C65.5649 8.27165 65.4307 8.14274 65.2588 8.05322C65.0869 7.9637 64.89 7.91895 64.668 7.91895C64.4388 7.91895 64.224 7.97982 64.0234 8.10156C63.8229 8.22331 63.6618 8.39339 63.54 8.61182C63.4183 8.83024 63.3574 9.0791 63.3574 9.3584V13H62.4336V7.16699Z" fill="#3E3E3E"/>
<path d="M22 14.7563H46.0894V15.5029H22V14.7563ZM51.3013 14.7563H70.8662V15.5029H51.3013V14.7563Z" fill="#3E3E3E"/>
<a href="https://www.instagram.com/mobogga_handong/">
<rect fill="black" fill-opacity="0" y="2.43652" width="48.8662" height="13.127"/>
</a>
</svg>
