<svg width="105" height="18" viewBox="0 0 105 18" fill="none" xmlns="http://www.w3.org/2000/svg">
<circle cx="9" cy="9" r="8" fill="#FBFBFB" stroke="#3E3E3E"/>
<path d="M8.15264 7.99283L7.6192 8.92564L4.3621 6.4919L5.10739 5.77548L8.15264 7.99283Z" fill="#FF3D12"/>
<path d="M13.5853 8.49897L12.8127 9.2459L10.3641 6L11.2797 5.51999L13.5853 8.49897Z" fill="#7512FF"/>
<path d="M5.51408 9.1907L4.58347 8.65342L7.03064 5.4064L7.74398 6.15464L5.51408 9.1907Z" fill="#7512FF"/>
<path d="M10.7173 8.91386L9.97353 8.13825L13.2295 5.70301L13.7057 6.62058L10.7173 8.91386Z" fill="#FF3D12"/>
<path d="M4.78906 10.9023C4.8423 11.1537 4.8854 11.4151 5.03155 11.6302C5.0761 11.6958 5.13847 11.7973 5.211 11.8346C5.29651 11.8786 5.396 11.7778 5.45713 11.7374C5.79241 11.5158 6.17048 11.3649 6.54712 11.2351C6.57713 11.2247 7.0336 11.0483 7.06848 11.0892C7.1028 11.1296 7.088 11.2319 7.11213 11.2837C7.13758 11.3383 7.18187 11.4079 7.24307 11.4233C7.49729 11.4872 7.78543 11.4649 8.04329 11.4582C8.62368 11.443 9.19172 11.3465 9.7674 11.2812C9.84981 11.2718 10.0028 11.2201 10.0499 11.3211C10.0788 11.3831 10.095 11.4465 10.1396 11.4993C10.212 11.5848 10.2962 11.6059 10.4039 11.594C10.5202 11.5812 10.6246 11.5347 10.7325 11.4906C10.9661 11.3952 11.1949 11.3054 11.4394 11.2425C11.8644 11.1333 12.312 11.0295 12.75 10.997C12.79 10.994 12.8843 10.9777 12.8689 11.0157C12.8662 11.0222 12.8337 11.0525 12.8664 11.0394C12.9743 10.9961 13.0557 10.9251 13.1259 10.835" stroke="#121212" stroke-linecap="square"/>
<path d="M32.1309 12.6455H23.3867V11.9365H32.1309V12.6455ZM28.1455 12.1406H27.3184V9.43359H28.1455V12.1406ZM31.0459 9.60547H24.418V5.12598H31.0459V9.60547ZM25.2451 8.92871H30.2295V5.80273H25.2451V8.92871ZM41.6377 12.6455H32.8936V11.9473H41.6377V12.6455ZM37.6523 12.1621H36.8252V9.6377H37.6523V12.1621ZM34.7734 6.72656H39.7363V4.99707H40.5635V9.88477H33.9248V4.99707H34.7734V6.72656ZM39.7363 9.19727V7.41406H34.7734V9.19727H39.7363ZM49.9629 13.8701H49.1143V4.32031H49.9629V13.8701ZM51.4131 8.97168H49.6836V8.2627H51.4131V8.97168ZM45.3008 5.3623C45.3008 6.17155 45.2292 6.94141 45.0859 7.67188C44.9427 8.40234 44.7064 9.11133 44.377 9.79883C44.0475 10.4863 43.6035 11.1237 43.0449 11.7109L42.3682 11.2275C42.8838 10.6976 43.3009 10.1247 43.6196 9.50879C43.9383 8.8929 44.1675 8.25016 44.3071 7.58057C44.4468 6.91097 44.5166 6.20378 44.5166 5.45898V5.3623H45.3008ZM44.8174 6.07129H42.6689V5.3623H44.8174V6.07129ZM47.9219 5.3623C47.9219 6.22884 47.8646 7.05599 47.75 7.84375C47.6354 8.63151 47.4206 9.4139 47.1055 10.1909C46.7904 10.9679 46.3535 11.6859 45.7949 12.3447L45.1074 11.8721C45.6302 11.2777 46.042 10.626 46.3428 9.91699C46.6436 9.20801 46.8512 8.4847 46.9658 7.74707C47.0804 7.00944 47.1377 6.23958 47.1377 5.4375V5.3623H47.9219ZM47.4707 6.07129H45.6016V5.3623H47.4707V6.07129ZM63.4121 12.624H54.668V11.9258H63.4121V12.624ZM59.4053 12.1621H58.5781V9.58398H59.4053V12.1621ZM59.2871 5.70605C59.2871 6.35059 59.0991 6.95394 58.7231 7.51611C58.3472 8.07829 57.8602 8.54736 57.2622 8.92334C56.6642 9.29932 56.0394 9.55534 55.3877 9.69141L55.0117 8.99316C55.5775 8.8929 56.1343 8.68164 56.6821 8.35938C57.23 8.03711 57.6776 7.64144 58.0249 7.17236C58.3722 6.70329 58.5459 6.21452 58.5459 5.70605V4.97559H59.2871V5.70605ZM59.4268 5.70605C59.4268 6.21452 59.604 6.70329 59.9585 7.17236C60.313 7.64144 60.7642 8.03711 61.312 8.35938C61.8599 8.68164 62.4167 8.8929 62.9824 8.99316L62.6064 9.69141C61.9548 9.55534 61.3299 9.29932 60.7319 8.92334C60.134 8.54736 59.647 8.08008 59.271 7.52148C58.895 6.96289 58.707 6.35775 58.707 5.70605V4.97559H59.4268V5.70605ZM72.3281 13.8701H71.501V4.32031H72.3281V13.8701ZM71.8125 8.875H69.9326V8.17676H71.8125V8.875ZM68.2891 5.56641C68.2891 6.42578 68.1745 7.23324 67.9453 7.98877C67.7161 8.7443 67.3348 9.44971 66.8013 10.105C66.2677 10.7603 65.5605 11.3314 64.6797 11.8184L64.1855 11.2275C64.9733 10.7907 65.6107 10.2858 66.0977 9.71289C66.5846 9.13997 66.9373 8.52051 67.1558 7.85449C67.3742 7.18848 67.4834 6.47233 67.4834 5.70605V5.56641H68.2891ZM67.7627 6.26465H64.5508V5.56641H67.7627V6.26465ZM70.1797 13.3975H69.374V4.57812H70.1797V13.3975ZM78.999 13.1074C78.5049 13.1074 78.0698 13.0143 77.6938 12.8281C77.3179 12.6419 77.0278 12.3841 76.8237 12.0547C76.6196 11.7253 76.5176 11.3529 76.5176 10.9375C76.5176 10.6224 76.5838 10.3413 76.7163 10.0942C76.8488 9.84717 77.0296 9.618 77.2588 9.40674C77.488 9.19548 77.7816 8.9681 78.1396 8.72461L79.2891 7.87598C79.5326 7.71126 79.7134 7.54834 79.8315 7.38721C79.9497 7.22607 80.0088 7.02376 80.0088 6.78027C80.0088 6.64421 79.9694 6.51172 79.8906 6.38281C79.8118 6.25391 79.7008 6.14827 79.5576 6.06592C79.4144 5.98356 79.2533 5.94238 79.0742 5.94238C78.888 5.94238 78.7179 5.98893 78.564 6.08203C78.41 6.17513 78.29 6.29867 78.2041 6.45264C78.1182 6.60661 78.0752 6.76595 78.0752 6.93066C78.0752 7.08105 78.1146 7.23861 78.1934 7.40332C78.2721 7.56803 78.3688 7.72738 78.4834 7.88135C78.598 8.03532 78.752 8.23047 78.9453 8.4668C78.9954 8.52409 79.0456 8.58496 79.0957 8.64941L82.6729 13H81.5664L78.6123 9.45508C78.512 9.33333 78.4118 9.21159 78.3115 9.08984C78.0322 8.76042 77.8174 8.49186 77.667 8.28418C77.5166 8.0765 77.3931 7.85986 77.2964 7.63428C77.1997 7.40869 77.1514 7.17057 77.1514 6.91992C77.1514 6.56901 77.2301 6.25928 77.3877 5.99072C77.5452 5.72217 77.7655 5.51449 78.0483 5.36768C78.3312 5.22087 78.6624 5.14746 79.042 5.14746C79.4215 5.14746 79.7546 5.22087 80.041 5.36768C80.3275 5.51449 80.5477 5.71143 80.7017 5.9585C80.8556 6.20557 80.9326 6.47949 80.9326 6.78027C80.9326 7.13118 80.8467 7.44271 80.6748 7.71484C80.5029 7.98698 80.2451 8.25195 79.9014 8.50977L78.3545 9.66992C78.1396 9.82031 77.966 9.97786 77.8335 10.1426C77.701 10.3073 77.6061 10.4577 77.5488 10.5938C77.4915 10.7298 77.4629 10.8444 77.4629 10.9375C77.4629 11.1738 77.5273 11.3958 77.6562 11.6035C77.7852 11.8112 77.9642 11.9777 78.1934 12.103C78.4225 12.2284 78.6839 12.291 78.9775 12.291C79.3714 12.291 79.7492 12.1782 80.1108 11.9526C80.4725 11.7271 80.7661 11.4084 80.9917 10.9966C81.2173 10.5848 81.3301 10.1139 81.3301 9.58398H82.2217C82.2217 10.0495 82.168 10.4469 82.0605 10.7764C81.9531 11.1058 81.8332 11.3618 81.7007 11.5444C81.5682 11.7271 81.4196 11.8971 81.2549 12.0547C81.2262 12.0977 81.1976 12.1335 81.1689 12.1621C81.1618 12.1836 81.1493 12.2033 81.1313 12.2212C81.1134 12.2391 81.0973 12.2588 81.083 12.2803C80.8395 12.5452 80.5298 12.7493 80.1538 12.8926C79.7778 13.0358 79.3929 13.1074 78.999 13.1074ZM94.6396 9.90625H85.8955V9.20801H94.6396V9.90625ZM90.751 11.8613H89.9131V9.6377H90.751V11.8613ZM93.501 8.1123H87.0342V4.79297H93.501V8.1123ZM87.8613 7.43555H92.6631V5.45898H87.8613V7.43555ZM93.6621 13.666H87.0127V12.957H93.6621V13.666ZM87.8613 13.2041H87.0127V10.916H87.8613V13.2041ZM98.5391 5.01855C99.0404 5.01855 99.4844 5.11344 99.8711 5.30322C100.258 5.493 100.56 5.75798 100.779 6.09814C100.997 6.43831 101.106 6.82682 101.106 7.26367C101.106 7.70052 100.997 8.08903 100.779 8.4292C100.56 8.76937 100.258 9.03434 99.8711 9.22412C99.4844 9.4139 99.0404 9.50879 98.5391 9.50879C98.0449 9.50879 97.6009 9.4139 97.207 9.22412C96.8132 9.03434 96.507 8.76937 96.2886 8.4292C96.0701 8.08903 95.9609 7.70052 95.9609 7.26367C95.9609 6.82682 96.0701 6.43831 96.2886 6.09814C96.507 5.75798 96.8132 5.493 97.207 5.30322C97.6009 5.11344 98.0449 5.01855 98.5391 5.01855ZM98.5391 5.75977C98.2025 5.75977 97.9017 5.82243 97.6367 5.94775C97.3717 6.07308 97.1641 6.25033 97.0137 6.47949C96.8633 6.70866 96.7881 6.97005 96.7881 7.26367C96.7881 7.55729 96.8633 7.81689 97.0137 8.04248C97.1641 8.26807 97.3717 8.44531 97.6367 8.57422C97.9017 8.70312 98.2025 8.76758 98.5391 8.76758C98.8757 8.76758 99.1764 8.70312 99.4414 8.57422C99.7064 8.44531 99.9123 8.26807 100.059 8.04248C100.206 7.81689 100.279 7.55729 100.279 7.26367C100.279 6.97005 100.206 6.70866 100.059 6.47949C99.9123 6.25033 99.7064 6.07308 99.4414 5.94775C99.1764 5.82243 98.8757 5.75977 98.5391 5.75977ZM103.244 13.8916H102.406V4.32031H103.244V13.8916ZM95.4668 11.0664C96.2617 11.0664 96.9832 11.0592 97.6313 11.0449C98.2795 11.0306 98.9688 11.0002 99.6992 10.9536C100.43 10.9071 101.121 10.8372 101.772 10.7441L101.837 11.3672C101.164 11.4889 100.465 11.5802 99.7422 11.6411C99.0189 11.702 98.3403 11.7414 97.7065 11.7593C97.0728 11.7772 96.3656 11.7861 95.585 11.7861L95.4668 11.0664Z" fill="#3E3E3E"/>
<path d="M23 14.7563H104.533V15.5029H23V14.7563Z" fill="#3E3E3E"/>
</svg>
