<svg width="128" height="23" viewBox="0 0 128 23" fill="none" xmlns="http://www.w3.org/2000/svg">
<path d="M13.3489 14.8617H22.1178V17.767H11.9251V9.88482L4.86328 5.38366H13.3489V14.864V14.8617ZM22.1178 5.38135H29.1797L22.1178 9.88251V5.38135ZM53.0245 12.319C50.3698 12.319 48.5131 13.4968 48.5086 15.1827C48.5131 16.8687 50.3698 18.0465 53.0245 18.0465C55.6792 18.0465 57.536 16.8687 57.5405 15.1827C57.536 13.4968 55.6792 12.319 53.0245 12.319ZM53.0245 16.4691C51.8275 16.4691 50.5466 16.1389 50.5398 15.2128C50.5466 14.2844 51.8275 13.9541 53.0245 13.9541C54.2215 13.9541 55.5024 14.2844 55.5092 15.2105C55.5024 16.1389 54.2215 16.4691 53.0245 16.4691ZM55.9717 4.9541H57.9078V12.319H55.9717V9.50145H55.1533V11.6516H53.2603V5.10191H55.1533V7.86634H55.9717V4.9541ZM49.4381 10.0257L47.6085 11.8894L46.2483 10.5038L48.3045 8.40907C48.6922 7.98182 48.6854 7.67466 48.6854 7.30052H46.5974V5.55918H52.7366V7.30052H50.6487C50.6487 7.67466 50.6419 7.98182 51.0295 8.40907L53.0857 10.5038L51.7255 11.8894L49.896 10.0257C49.8166 9.94486 49.7282 9.83401 49.667 9.75549C49.6058 9.83632 49.5174 9.94486 49.4381 10.0257ZM40.6328 9.41369H42.8455V13.259H44.9153V4.9541H42.8455V7.77627H40.6328V5.55687H34.0425V11.6493H40.6328V9.41369ZM38.6083 9.90098H36.067V7.30514H38.6083V9.90098ZM42.0951 14.0188L45.371 16.4414L44.2374 18.0465L40.9615 15.6238C40.7099 15.4322 40.4877 15.2382 40.2996 15.0465C40.1114 15.2382 39.8892 15.4322 39.6376 15.6238L36.3617 18.0465L35.2282 16.4414L38.5041 14.0188C39.1819 13.5222 39.2454 13.2959 39.2454 13.0234V12.4899H41.3401V13.0234C41.3401 13.2959 41.4195 13.5199 42.0973 14.0188H42.0951ZM82.9949 9.88251H84.8743V11.6677H82.9949V18.0488H80.9251V4.9541H82.9949V9.88251ZM119.064 12.1804H112.068V7.92408H116.459V7.03724H112.068V5.2959H118.549V9.48759H114.158V10.4391H119.064V12.1804ZM108.055 4.9541H110.125V18.0465H108.055V11.3744H105.826V9.58921H108.055V4.9541ZM123.138 4.9541V12.5661H121.066V9.1735H119.105V7.38828H121.066V4.9541H123.138ZM104.192 10.6285L106.885 14.4668L105.339 15.6008L102.646 11.7624C102.585 11.6839 102.537 11.6054 102.492 11.5407C102.446 11.6031 102.399 11.6816 102.337 11.7624L99.6442 15.6008L98.098 14.4668L100.791 10.6285C101.394 9.76242 101.487 9.44602 101.487 8.79937V8.40214H98.7986V6.6608H101.478V4.9541H103.505V6.6608H106.185V8.40214H103.496V8.79937C103.496 9.44602 103.589 9.76011 104.192 10.6285ZM63.1832 5.38135C60.7869 5.39059 59.4675 7.45526 59.4675 10.6308C59.4675 13.8063 60.7869 15.871 63.1832 15.8802C65.5795 15.871 66.8989 13.8063 66.8989 10.6308C66.8989 7.45526 65.5795 5.39059 63.1832 5.38135ZM63.1832 14.185C61.8456 14.1735 61.5668 12.1042 61.5668 10.6285C61.5668 9.15272 61.8479 7.08343 63.1832 7.07188C64.5207 7.08343 64.7996 9.15272 64.7996 10.6285C64.7996 12.1042 64.5185 14.1735 63.1832 14.185ZM113.763 18.0465H123.138V13.1643H113.763V18.0465ZM115.79 14.7878H121.081V16.4252H115.79V14.7878ZM98.2023 11.6677H96.3365V18.0488H94.2667V4.9541H96.3365V9.88251H98.2023V11.6677ZM77.7127 10.6285L80.406 14.4668L78.8598 15.6008L76.1666 11.7624C76.1054 11.6839 76.0578 11.6054 76.0124 11.5407C75.9671 11.6031 75.9195 11.6816 75.8583 11.7624L73.165 15.6008L71.6189 14.4668L74.3121 10.6285C74.9152 9.76242 75.0081 9.44602 75.0081 8.79937V5.55687H77.019V8.79937C77.019 9.44602 77.1119 9.76011 77.715 10.6285H77.7127ZM68.3589 4.9541H70.4287V18.0465H68.3589V4.9541ZM91.0022 10.6285L93.6954 14.4668L92.1493 15.6008L89.456 11.7624C89.3948 11.6839 89.3472 11.6054 89.3019 11.5407C89.2565 11.6031 89.2089 11.6816 89.1477 11.7624L86.4545 15.6008L84.9083 14.4668L87.6016 10.6285C88.2046 9.76242 88.2976 9.44602 88.2976 8.79937V7.53147H85.6995V5.79013H92.9065V7.53147H90.3085V8.79937C90.3085 9.44602 90.4014 9.76011 91.0044 10.6285H91.0022Z" fill="#FF6000"/>
</svg>
