<svg width="99" height="18" viewBox="0 0 99 18" fill="none" xmlns="http://www.w3.org/2000/svg">
<g clip-path="url(#clip0_9022_3660)">
<path d="M52.5874 7.12711L49.8135 6.83671L50.42 1.56836L53.364 2.34518L52.5874 7.12711Z" fill="#FF5E3A"/>
<path d="M49.339 10.2583L49.6639 7.65918L43.4258 8.3997L44.3445 11.1851L49.339 10.2583Z" fill="#FF5E3A"/>
<path d="M44.4578 11.1705L41.76 10.459L41.5215 1.63321L44.1888 1.23633L44.4578 11.1705Z" fill="#FF3D12"/>
<path d="M42.4561 5.36757L44.0803 2.42727L52.2776 0L53.3638 2.35709L42.4561 5.36757Z" fill="#FF3D12"/>
<path d="M64.373 7.37331L64.939 4.72099L69.3701 3.31738L70.2939 5.72045L64.373 7.37331Z" fill="#FF3D12"/>
<path d="M70.0885 10.5317L71.3194 7.65918L62.6475 8.3997L63.5662 11.1851L70.0885 10.5317Z" fill="#FF5E3A"/>
<path d="M63.6805 11.1705L60.9827 10.459L60.7441 1.63321L63.4114 1.23633L63.6805 11.1705Z" fill="#FF3D12"/>
<path d="M72.7859 9.11585L70.0882 10.5316L69.8496 1.41297L72.5169 1.01367L72.7859 9.11585Z" fill="#FF3D12"/>
<path d="M76.1895 2.6717L76.494 5.31676L82.019 4.73838L81.2068 1.93359L76.1895 2.6717Z" fill="#FF5E3A"/>
<path d="M78.0342 16.911L81.1177 15.3646L83.6632 2.96936L81.1913 1.93359L78.0342 16.911Z" fill="#FF3D12"/>
<path d="M83.6631 2.6717L83.9676 5.31676L89.4926 4.73838L88.6805 1.93359L83.6631 2.6717Z" fill="#FF5E3A"/>
<path d="M85.5088 16.911L88.5923 15.3646L91.1378 2.96936L88.6659 1.93359L85.5088 16.911Z" fill="#FF3D12"/>
<path d="M74.1925 16.4434L57.6836 17.9994L58.0795 15.7367L74.1925 14.3477V16.4434Z" fill="#FF3D12"/>
<path d="M66.5303 15.8219L63.9873 15.2749L65.3045 12.4629L67.921 12.8501L66.5303 15.8219Z" fill="#FF3D12"/>
<path d="M55.602 16.4434L39.0957 17.9994L39.4891 15.7367L55.602 14.3477V16.4434Z" fill="#FF3D12"/>
<path d="M47.9398 15.8219L45.3994 15.2749L46.7166 12.4629L49.3306 12.8501L47.9398 15.8219Z" fill="#FF3D12"/>
<path d="M93.6801 0.244141L92.0508 17.9997L94.4237 17.5738L95.8779 0.244141H93.6801Z" fill="#FF3D12"/>
<path d="M96.1974 6.22379L94.8574 8.82529L98.9992 8.31951L98.1922 6.02051L96.1974 6.22379Z" fill="#FF3D12"/>
<path d="M28.3026 4.50574L31.9648 1.01367H12.0044L9.31934 11.4875H28.3026L31.9648 7.99539H28.3026L31.9648 4.50574H28.3026Z" fill="#7512FF"/>
<path d="M19.5163 8.02958V18L0 13.3972L1.40852 4.19629L19.5163 8.02958Z" fill="#FF3D12"/>
</g>
<defs>
<clipPath id="clip0_9022_3660">
<rect width="99" height="18" fill="white"/>
</clipPath>
</defs>
</svg>
